<!--?xml version="1.0" encoding="utf-8" standalone="no"?-->

<svg xmlns:xlink="http://www.w3.org/1999/xlink" width="460.8pt" height="386.45623pt" viewBox="0 0 460.8 386.45623" xmlns="http://www.w3.org/2000/svg" version="1.1">
 <metadata>
  <rdf:rdf xmlns:dc="http://purl.org/dc/elements/1.1/" xmlns:cc="http://creativecommons.org/ns#" xmlns:rdf="http://www.w3.org/1999/02/22-rdf-syntax-ns#">
   <cc:work>
    <dc:type rdf:resource="http://purl.org/dc/dcmitype/StillImage"></dc:type>
    <dc:date>2024-11-19T20:57:02.235027</dc:date>
    <dc:format>image/svg+xml</dc:format>
    <dc:creator>
     <cc:agent>
      <dc:title>Matplotlib v3.9.1.post1, https://matplotlib.org/</dc:title>
     </cc:agent>
    </dc:creator>
   </cc:work>
  </rdf:rdf>
 </metadata>
 <defs>
  <style type="text/css">*{stroke-linejoin: round; stroke-linecap: butt}</style>
 </defs>
 <g id="figure_1">
  <g id="patch_1">
   <path d="M 0 386.45623 
L 460.8 386.45623 
L 460.8 0 
L 0 0 
z
" style="fill: #ffffff"></path>
  </g>
  <g id="axes_1">
   <g id="line2d_1">
    <path d="M 156.655507 178.138471 
L 161.874323 177.710904 
L 167.082522 177.254307 
L 172.269487 176.739652 
L 177.4246 176.13791 
L 182.537243 175.42005 
L 187.5968 174.557044 
L 192.592654 173.519863 
L 197.514186 172.279478 
L 202.35078 170.806859 
L 207.091818 169.072976 
L 211.726683 167.048802 
L 216.244757 164.705306 
L 220.635424 162.01346 
L 224.888067 158.944233 
L 228.992186 155.473746 
L 232.938023 151.609883 
L 236.716099 147.372638 
L 240.316935 142.782027 
L 243.731053 137.858068 
L 246.948976 132.620776 
L 249.961224 127.090169 
L 252.75832 121.286263 
L 255.330785 115.229075 
L 257.669142 108.938622 
L 259.763912 102.43492 
L 261.605617 95.737986 
L 263.184778 88.867836 
L 264.491918 81.844488 
L 265.518548 74.695043 
L 266.265905 67.5162 
L 266.740747 60.444163 
L 266.949893 53.615587 
L 266.900164 47.16713 
L 266.598379 41.235449 
L 266.051361 35.957199 
L 265.265927 31.469037 
L 264.2489 27.90762 
L 263.007099 25.409604 
L 261.547344 24.111647 
L 259.876456 24.150404 
L 258.001255 25.662532 
L 255.928562 28.784687 
L 253.666376 33.642681 
L 251.242516 40.180144 
L 248.701248 48.189544 
L 246.087331 57.458771 
L 243.445528 67.775714 
L 240.820601 78.928265 
L 238.257312 90.704313 
L 235.800421 102.89175 
L 233.494692 115.278465 
L 231.384885 127.652349 
L 229.515763 139.801293 
L 227.932087 151.513186 
L 226.678619 162.57592 
L 225.80012 172.777384 
L 225.340242 181.909108 
L 225.305949 189.882851 
L 225.659989 196.755267 
L 226.362481 202.591635 
L 227.37354 207.457236 
L 228.653285 211.417349 
L 230.161831 214.537254 
L 231.859297 216.882231 
L 233.705799 218.517561 
L 235.661454 219.508522 
L 237.68638 219.920395 
L 239.740693 219.81846 
L 241.784511 219.267997 
L 243.77795 218.334286 
L 245.681243 217.082486 
L 247.464619 215.567302 
L 249.115928 213.82502 
L 250.624808 211.890047 
L 251.980902 209.796795 
L 253.173848 207.579672 
L 254.193289 205.273088 
L 255.028865 202.911453 
L 255.670215 200.529176 
L 256.106982 198.160666 
L 256.328805 195.840333 
L 256.325325 193.602586 
L 256.086182 191.481836 
L 255.601018 189.512491 
L 254.859488 187.728937 
L 253.858431 186.153308 
L 252.61355 184.775589 
L 251.143598 183.580556 
L 249.467333 182.552986 
L 247.60351 181.677654 
L 245.570885 180.939338 
L 243.388213 180.322812 
L 241.074251 179.812853 
L 238.647754 179.394237 
L 236.127478 179.051741 
L 233.532179 178.77014 
L 230.880613 178.534211 
L 228.191534 178.328729 
L 225.4837 178.138471 
" clip-path="url(#p454ca27fa2)" style="fill: none; stroke: #000000; stroke-width: 2; stroke-linecap: round"></path>
   </g>
   <g id="line2d_2">
    <path d="M 225.4837 178.138471 
L 225.285244 182.19053 
L 225.087883 186.241603 
L 224.89271 190.290707 
L 224.700821 194.336856 
L 224.513309 198.379064 
L 224.33127 202.416348 
L 224.155797 206.447722 
L 223.987985 210.472201 
L 223.828928 214.4888 
L 223.679721 218.496534 
L 223.541459 222.494419 
L 223.415235 226.481468 
L 223.302144 230.456698 
L 223.203281 234.419123 
L 223.11974 238.367758 
L 223.052615 242.301619 
L 223.003001 246.219719 
L 222.971992 250.121075 
L 222.960683 254.004702 
L 222.970168 257.869613 
L 223.001542 261.714825 
L 223.055898 265.539352 
L 223.134332 269.34221 
L 223.237938 273.122413 
L 223.36781 276.878977 
L 223.525042 280.610915 
L 223.71073 284.317245 
L 223.925967 287.996979 
L 224.171848 291.649134 
L 224.449468 295.272725 
L 224.75992 298.866766 
L 225.104299 302.430273 
L 225.4837 305.96226 
L 225.898944 309.460539 
L 226.349756 312.918105 
L 226.83559 316.32675 
L 227.355899 319.678267 
L 227.910135 322.964446 
L 228.49775 326.177079 
L 229.118199 329.307959 
L 229.770933 332.348877 
L 230.455405 335.291625 
L 231.171069 338.127995 
L 231.917376 340.849778 
L 232.693781 343.448767 
L 233.499734 345.916753 
L 234.33469 348.245528 
L 235.198102 350.426884 
L 236.089421 352.452612 
L 237.0081 354.314505 
L 237.953593 356.004353 
L 238.925353 357.51395 
L 239.922831 358.835087 
L 240.945481 359.959555 
L 241.992756 360.879147 
L 243.064108 361.585654 
L 244.15899 362.070868 
L 245.276855 362.32658 
L 246.417156 362.344584 
L 247.579346 362.116669 
L 248.762877 361.634629 
L 249.967201 360.890255 
L 251.191773 359.875339 
L 252.436045 358.581673 
L 253.699469 357.001047 
L 254.981498 355.125256 
L 256.281585 352.948989 
L 257.599183 350.478541 
L 258.933745 347.723104 
L 260.284723 344.691871 
L 261.65157 341.394037 
L 263.033739 337.838793 
L 264.430683 334.035333 
L 265.841854 329.992851 
L 267.266706 325.720539 
L 268.704691 321.227591 
L 270.155262 316.5232 
L 271.617871 311.616559 
L 273.091972 306.51686 
L 274.577018 301.233299 
L 276.07246 295.775067 
L 277.577752 290.151357 
L 279.092347 284.371364 
L 280.615697 278.44428 
L 282.147255 272.379298 
L 283.686475 266.185611 
L 285.232808 259.872413 
L 286.785707 253.448897 
L 288.344626 246.924256 
L 289.909017 240.307683 
L 291.478333 233.608372 
L 293.052027 226.835515 
L 294.629551 219.998306 
L 296.210359 213.105938 
L 297.793903 206.167603 
L 299.379635 199.192497 
L 300.967009 192.18981 
L 302.555478 185.168737 
L 304.144493 178.138471 
" clip-path="url(#p454ca27fa2)" style="fill: none; stroke: #000000; stroke-width: 2; stroke-linecap: round"></path>
   </g>
  </g>
 </g>
 <defs>
  <clipPath id="p454ca27fa2">
   <rect x="7.2" y="7.2" width="446.4" height="372.05623"></rect>
  </clipPath>
 </defs>
</svg>
