<?xml version="1.0" encoding="UTF-8" standalone="no"?>
                <!DOCTYPE svg PUBLIC "-//W3C//DTD SVG 1.1//EN" "http://www.w3.org/Graphics/SVG/1.1/DTD/svg11.dtd">
                <svg class="d-flex" id="output" viewBox="-2.4000000000000004 -2.3842105263157896 8.38421052631579 3.5842105263157897" preserveAspectRatio="xMidYMid meet" transform="scale(1, -1) translate(0, -3.5842106342315674)" xmlns="http://www.w3.org/2000/svg" xmlns:xlink="http://www.w3.org/1999/xlink"><line x1="-1.2000000000000002" x2="4.78421052631579" y1="-1.1842105263157892" y2="-1.1842105263157892" stroke="grey" stroke-dasharray="0.12, 0.12" stroke-width="0.03"></line><path d="M 0 -1.1842105263157892 L 0.0047846889952153126 -1.1842105263157892 L 0.009569377990430625 -1.1842105263157892 L 0.014354066985645939 -1.1842105263157892 L 0.01913875598086125 -1.1842105263157892 L 0.023923444976076565 -1.1842105263157892 L 0.028708133971291877 -1.1842105263157892 L 0.03349282296650719 -1.1842105263157892 L 0.0382775119617225 -1.1842105263157892 L 0.043062200956937816 -1.1842105263157892 L 0.04784688995215313 -1.1842105263157892 L 0.05263157894736844 -1.1842105263157892 L 0.057416267942583754 -1.1842105263157892 L 0.06220095693779907 -1.1842105263157892 L 0.06698564593301438 -1.1842105263157892 L 0.07177033492822969 -1.1842105263157892 L 0.076555023923445 -1.1842105263157892 L 0.08133971291866032 -1.1842105263157892 L 0.08612440191387563 -1.1842105263157892 L 0.09090909090909094 -1.1842105263157892 L 0.09569377990430626 -1.1842105263157892 L 0.10047846889952157 -1.1842105263157892 L 0.10526315789473688 -1.1842105263157892 L 0.1100478468899522 -1.1842105263157892 L 0.11483253588516751 -1.1842105263157892 L 0.11961722488038282 -1.1842105263157892 L 0.12440191387559814 -1.1842105263157892 L 0.12918660287081346 -1.1842105263157892 L 0.13397129186602877 -1.1842105263157892 L 0.13875598086124405 -1.1842105263157892 L 0.14354066985645939 -1.1842105263157892 L 0.1483253588516747 -1.1842105263157892 L 0.15311004784689 -1.1842105263157892 L 0.15789473684210534 -1.1842105263157892 L 0.16267942583732065 -1.1842105263157892 L 0.16746411483253595 -1.1842105263157892 L 0.17224880382775126 -1.1842105263157892 L 0.17703349282296657 -1.1842105263157892 L 0.18181818181818188 -1.1842105263157892 L 0.18660287081339721 -1.1842105263157892 L 0.19138755980861252 -1.1842105263157892 L 0.19617224880382783 -1.1842105263157892 L 0.20095693779904314 -1.1842105263157892 L 0.20574162679425845 -1.1842105263157892 L 0.21052631578947376 -1.1842105263157892 L 0.2153110047846891 -1.1842105263157892 L 0.2200956937799044 -1.1842105263157892 L 0.2248803827751197 -1.1842105263157892 L 0.22966507177033502 -1.1842105263157892 L 0.23444976076555032 -1.1842105263157892 L 0.23923444976076563 -1.1842105263157892 L 0.24401913875598097 -1.1842105263157892 L 0.24880382775119628 -1.1842105263157892 L 0.2535885167464116 -1.1842105263157892 L 0.2583732057416269 -1.1842105263157892 L 0.2631578947368422 -1.1842105263157892 L 0.26794258373205754 -1.1842105263157892 L 0.2727272727272728 -1.1842105263157892 L 0.2775119617224881 -1.1842105263157892 L 0.2822966507177035 -1.1842105263157892 L 0.28708133971291877 -1.1842105263157892 L 0.2918660287081341 -1.1842105263157892 L 0.2966507177033494 -1.1842105263157892 L 0.3014354066985647 -1.1842105263157892 L 0.30622009569378 -1.1842105263157892 L 0.31100478468899534 -1.1842105263157892 L 0.3157894736842107 -1.1842105263157892 L 0.32057416267942596 -1.1842105263157892 L 0.3253588516746413 -1.1842105263157892 L 0.33014354066985657 -1.1842105263157892 L 0.3349282296650719 -1.1842105263157892 L 0.3397129186602872 -1.1842105263157892 L 0.3444976076555025 -1.1842105263157892 L 0.34928229665071786 -1.1842105263157892 L 0.35406698564593314 -1.1842105263157892 L 0.3588516746411485 -1.1842105263157892 L 0.36363636363636376 -1.1842105263157892 L 0.36842105263157904 -1.1842105263157892 L 0.37320574162679443 -1.1842105263157892 L 0.3779904306220097 -1.1842105263157892 L 0.38277511961722505 -1.1842105263157892 L 0.3875598086124403 -1.1842105263157892 L 0.39234449760765566 -1.1842105263157892 L 0.39712918660287094 -1.1842105263157892 L 0.4019138755980863 -1.1842105263157892 L 0.4066985645933016 -1.1842105263157892 L 0.4114832535885169 -1.1842105263157892 L 0.41626794258373223 -1.1842105263157892 L 0.4210526315789475 -1.1842105263157892 L 0.42583732057416285 -1.1842105263157892 L 0.4306220095693782 -1.1842105263157892 L 0.43540669856459346 -1.1842105263157892 L 0.4401913875598088 -1.1842105263157892 L 0.4449760765550241 -1.1842105263157892 L 0.4497607655502394 -1.1842105263157892 L 0.4545454545454547 -1.1842105263157892 L 0.45933014354067003 -1.1842105263157892 L 0.46411483253588537 -1.1842105263157892 L 0.46889952153110065 -1.1842105263157892 L 0.47368421052631593 -1.1842105263157892" stroke="black" stroke-width="0.03" fill="none" stroke-linecap="round"></path><circle cx="0" cy="-1.1842105263157892" r="0.03" fill="red"></circle><circle cx="0.47368421052631593" cy="-1.1842105263157892" r="0.03" fill="red"></circle><path d="M 1.673684210526316 -1.1842105263157892 L 1.6891514829313874 -1.1602870813397126 L 1.7045994232597106 -1.136363636363636 L 1.720008699434537 -1.1124401913875595 L 1.7353599793791183 -1.0885167464114829 L 1.7506339310167065 -1.0645933014354063 L 1.7658112222705526 -1.04066985645933 L 1.7808725210639087 -1.0167464114832532 L 1.7957984953200266 -0.9928229665071767 L 1.8105698129621577 -0.9688995215311003 L 1.8251671419135536 -0.9449760765550237 L 1.839571150097466 -0.9210526315789471 L 1.8537625054371467 -0.8971291866028706 L 1.8677218758558471 -0.873205741626794 L 1.8814299292768193 -0.8492822966507174 L 1.8948673336233146 -0.8253588516746408 L 1.9080147568185846 -0.8014354066985643 L 1.9208528667858813 -0.7775119617224877 L 1.9333623314484558 -0.7535885167464113 L 1.9455238187295603 -0.7296650717703347 L 1.9573179965524463 -0.7057416267942581 L 1.9687255328403654 -0.6818181818181817 L 1.9797270955165693 -0.6578947368421051 L 1.9903033525043095 -0.6339712918660285 L 2.000434971726838 -0.610047846889952 L 2.010102621107406 -0.5861244019138754 L 2.019286968569265 -0.5622009569377988 L 2.027968682035668 -0.5382775119617222 L 2.0361284294298647 -0.5143540669856457 L 2.0437468786751083 -0.4904306220095692 L 2.05080469769465 -0.46650717703349265 L 2.057282554411741 -0.4425837320574161 L 2.063161116749633 -0.41866028708133957 L 2.068421052631579 -0.39473684210526294 L 2.0730491810961578 -0.3708243812637025 L 2.0770569256432676 -0.34697782522923865 L 2.080461860888133 -0.3232630788089682 L 2.0832815614459808 -0.2997460468099875 L 2.0855336019320365 -0.27649263403939334 L 2.087235556961525 -0.2535687453042823 L 2.0884050011496726 -0.2310402854117511 L 2.089059509111706 -0.20897315916889628 L 2.0892166554628497 -0.18743327138281457 L 2.08889401481833 -0.16648652686060245 L 2.0881091617933722 -0.14619883040935663 L 2.086879671003203 -0.12663608683617375 L 2.0852231170630477 -0.10786420094815041 L 2.0831570745881316 -0.08994907755238327 L 2.0806991181936816 -0.07295662145596898 L 2.0778668224949217 -0.056952737466004086 L 2.0746777621070795 -0.04200333038958527 L 2.07114951164538 -0.02817430503380909 L 2.0672996457250488 -0.015531566205772361 L 2.0631457389613113 -0.004141018712571651 L 2.0587053659693937 0.00593143263869661 L 2.053996101364523 0.014619883040935588 L 2.049035519761923 0.021858427687048765 L 2.04384119577682 0.02758116176993941 L 2.0384307040244414 0.031722180482510964 L 2.03282161912001 0.03421557901766675 L 2.027031515678754 0.03499545256831024 L 2.021077968315898 0.03399589632734468 L 2.0149785516466685 0.031151005487673467 L 2.008750840286291 0.026394875242200022 L 2.002412408849991 0.01966160078382767 L 1.9959808319529946 0.010885277305459795 L 1.989473684210527 -1.3147377923192655e-16 L 1.9829059040455308 -0.01303816767061665 L 1.9762818851118118 -0.028185289168325474 L 1.9696033848708931 -0.04537545968602964 L 1.9628721607842972 -0.0645427744166329 L 1.9560899703135464 -0.0856213285530382 L 1.9492585709201635 -0.1085452172881491 L 1.9423797200656712 -0.13324853581486926 L 1.9354551752115916 -0.15966537932610153 L 1.9284866938194478 -0.18772984301474988 L 1.9214760333507621 -0.21737602207371692 L 1.9144249512670575 -0.24853801169590653 L 1.9073352050298555 -0.2811499070742222 L 1.9002085521006797 -0.3151458034015669 L 1.8930467499410524 -0.3504597958708445 L 1.8858515560124962 -0.38702597967495767 L 1.8786247277765336 -0.4247784500068106 L 1.8713680226946872 -0.4636513020593058 L 1.8640831982284796 -0.5035786310253471 L 1.856772011839433 -0.5444945320978382 L 1.8494362209890707 -0.5863331004696817 L 1.8420775831389147 -0.6290284313337818 L 1.834697855750488 -0.6725146198830411 L 1.8272987962853129 -0.7167257613103637 L 1.8198821622049117 -0.7615959508086521 L 1.8124497109708075 -0.8070592835708104 L 1.805003200044523 -0.8530498547897419 L 1.79754438688758 -0.8995017596583494 L 1.7900750289615017 -0.9463490933695373 L 1.7825968837278108 -0.9935259511162078 L 1.7751117086480295 -1.040966428091265 L 1.7676212611836801 -1.0886046194876122 L 1.7601272987962857 -1.1363746204981522 L 1.752631578947369 -1.1842105263157892" stroke="black" stroke-width="0.03" fill="none" stroke-linecap="round"></path><circle cx="1.673684210526316" cy="-1.1842105263157892" r="0.03" fill="red"></circle><circle cx="2.068421052631579" cy="-0.39473684210526305" r="0.03" fill="red"></circle><circle cx="1.989473684210527" cy="0" r="0.03" fill="red"></circle><circle cx="1.752631578947369" cy="-1.1842105263157892" r="0.03" fill="red"></circle><path d="M 3.5842105263157897 -0.7894736842105261 L 3.5766546836396684 -0.782708202860482 L 3.56909241749307 -0.7759853499963325 L 3.5615173044055166 -0.769347754103972 L 3.553922920906532 -0.762838043669295 L 3.5463028435256385 -0.7564988471781959 L 3.538650648792358 -0.7503727931165695 L 3.5309599132362144 -0.7445025099703101 L 3.5232242133867304 -0.7389306262253122 L 3.515437125773428 -0.7336997703674704 L 3.50759222692583 -0.7288525708826791 L 3.4996830933734597 -0.7244316562568329 L 3.49170330164584 -0.7204796549758262 L 3.483646428272493 -0.7170391955255536 L 3.475506049782941 -0.7141529063919096 L 3.4672757427067085 -0.7118634160607888 L 3.4589490835733168 -0.7102133530180854 L 3.4505196489122887 -0.7092453457496942 L 3.4419810152531474 -0.7090020227415096 L 3.4333267591254155 -0.709526012479426 L 3.42455050844638 -0.7108598465133292 L 3.415656785339256 -0.713025505959192 L 3.406674418339546 -0.7159991212007212 L 3.3976355247996364 -0.7197506187170459 L 3.388572222071913 -0.7242499249872951 L 3.3795166275087625 -0.7294669664905985 L 3.3705008584625706 -0.735371669706085 L 3.3615570322857247 -0.7419339611128839 L 3.3527172663306097 -0.7491237671901243 L 3.344013677949613 -0.7569110144169354 L 3.3354783844951195 -0.7652656292724468 L 3.3271435033195167 -0.7741575382357873 L 3.3190411517751905 -0.7835566677860863 L 3.3112034472145275 -0.7934329444024729 L 3.3036625069899133 -0.8037562945640765 L 3.296450448453735 -0.8144966447500263 L 3.2895993889583783 -0.8256239214394512 L 3.2831414458562294 -0.8371080511114809 L 3.2771087364996747 -0.8489189602452442 L 3.2715333782411005 -0.8610265753198705 L 3.266447145847801 -0.8734006702084026 L 3.261868496091614 -0.8860050862222708 L 3.2577985851972255 -0.8987959580655379 L 3.2542374131646357 -0.9117289053967246 L 3.251184979993844 -0.9247595478743519 L 3.248641285684852 -0.9378435051569401 L 3.2466063302376575 -0.9509363969030105 L 3.245080113652262 -0.9639938427710837 L 3.244062635928665 -0.9769714624196802 L 3.243553897066866 -0.9898248755073213 L 3.243553897066866 -1.0025097016925277 L 3.244062635928665 -1.01498156063382 L 3.245080113652262 -1.0271960719897186 L 3.2466063302376575 -1.039108855418745 L 3.248641285684852 -1.05067553057942 L 3.251184979993844 -1.0618517171302635 L 3.2542374131646357 -1.0725930347297976 L 3.2577985851972255 -1.0828551030365416 L 3.261868496091614 -1.0925935417090178 L 3.266447145847801 -1.1017639704057456 L 3.2715333782411005 -1.1103244894127549 L 3.2771087364996747 -1.1182703165535999 L 3.283141445856229 -1.1256252428057236 L 3.289599388958378 -1.132413794147312 L 3.296450448453735 -1.138660496556551 L 3.303662506989914 -1.1443898760116262 L 3.3112034472145275 -1.1496264584907239 L 3.319041151775191 -1.1543947699720298 L 3.3271435033195167 -1.1587193364337296 L 3.3354783844951195 -1.162624683854009 L 3.3440136779496124 -1.1661353382110546 L 3.3527172663306097 -1.1692758254830522 L 3.3615570322857247 -1.1720706716481868 L 3.370500858462571 -1.174544402684645 L 3.379516627508762 -1.1767215445706123 L 3.388572222071913 -1.178626623284275 L 3.397635524799637 -1.180284164803819 L 3.4066744183395463 -1.1817186951074297 L 3.415656785339256 -1.1829547401732932 L 3.42455050844638 -1.1840168259795958 L 3.433326759125416 -1.1849280085030365 L 3.4419810152531474 -1.1857004794905814 L 3.4505196489122887 -1.1863415613092734 L 3.4589490835733168 -1.186858553357382 L 3.4672757427067085 -1.1872587550331772 L 3.4755060497829415 -1.187549465734928 L 3.483646428272493 -1.1877379848609044 L 3.49170330164584 -1.187831611809376 L 3.49968309337346 -1.1878376459786122 L 3.5075922269258304 -1.1877633867668826 L 3.515437125773428 -1.187616133572457 L 3.5232242133867304 -1.1874031857936052 L 3.530959913236215 -1.1871318428285962 L 3.5386506487923586 -1.1868094040757002 L 3.5463028435256385 -1.1864431689331862 L 3.5539229209065324 -1.1860404367993247 L 3.561517304405517 -1.185608507072384 L 3.5690924174930703 -1.1851546791506353 L 3.576654683639669 -1.184686252432347 L 3.5842105263157897 -1.1842105263157892" stroke="black" stroke-width="0.03" fill="none" stroke-linecap="round"></path><circle cx="3.5842105263157897" cy="-0.7894736842105261" r="0.03" fill="red"></circle><circle cx="3.4263157894736844" cy="-0.7105263157894732" r="0.03" fill="red"></circle><circle cx="3.268421052631579" cy="-0.8684210526315783" r="0.03" fill="red"></circle><circle cx="3.268421052631579" cy="-1.1052631578947363" r="0.03" fill="red"></circle><circle cx="3.4263157894736844" cy="-1.1842105263157892" r="0.03" fill="red"></circle><circle cx="3.5842105263157897" cy="-1.1842105263157892" r="0.03" fill="red"></circle></svg>