<!--?xml version="1.0" encoding="utf-8" standalone="no"?-->

<svg xmlns:xlink="http://www.w3.org/1999/xlink" width="460.8pt" height="111.690449pt" viewBox="0 0 460.8 111.690449" xmlns="http://www.w3.org/2000/svg" version="1.1">
 <metadata>
  <rdf:rdf xmlns:dc="http://purl.org/dc/elements/1.1/" xmlns:cc="http://creativecommons.org/ns#" xmlns:rdf="http://www.w3.org/1999/02/22-rdf-syntax-ns#">
   <cc:work>
    <dc:type rdf:resource="http://purl.org/dc/dcmitype/StillImage"></dc:type>
    <dc:date>2024-10-03T14:32:37.500808</dc:date>
    <dc:format>image/svg+xml</dc:format>
    <dc:creator>
     <cc:agent>
      <dc:title>Matplotlib v3.9.1.post1, https://matplotlib.org/</dc:title>
     </cc:agent>
    </dc:creator>
   </cc:work>
  </rdf:rdf>
 </metadata>
 <defs>
  <style type="text/css">*{stroke-linejoin: round; stroke-linecap: butt}</style>
 </defs>
 <g id="figure_1">
  <g id="patch_1">
   <path d="M 0 111.690449 
L 460.8 111.690449 
L 460.8 0 
L 0 0 
z
" style="fill: #ffffff"></path>
  </g>
  <g id="axes_1">
   <g id="line2d_1">
    <path d="M 7.2 99.80111 
L 453.6 99.80111 
" clip-path="url(#pd37299191b)" style="fill: none; stroke-dasharray: 5.55,2.4; stroke-dashoffset: 0; stroke: #d3d3d3; stroke-width: 1.5"></path>
   </g>
   <g id="line2d_2">
    <path d="M 95.550001 99.80111 
L 95.902273 99.80111 
L 96.254546 99.80111 
L 96.606819 99.80111 
L 96.959091 99.80111 
L 97.311364 99.80111 
L 97.663637 99.80111 
L 98.01591 99.80111 
L 98.368182 99.80111 
L 98.720455 99.80111 
L 99.072728 99.80111 
L 99.425 99.80111 
L 99.777273 99.80111 
L 100.129546 99.80111 
L 100.481819 99.80111 
L 100.834091 99.80111 
L 101.186364 99.80111 
L 101.538637 99.80111 
L 101.890909 99.80111 
L 102.243182 99.80111 
L 102.595455 99.80111 
L 102.947728 99.80111 
L 103.3 99.80111 
L 103.652273 99.80111 
L 104.004546 99.80111 
L 104.356818 99.80111 
L 104.709091 99.80111 
L 105.061364 99.80111 
L 105.413637 99.80111 
L 105.765909 99.80111 
L 106.118182 99.80111 
L 106.470455 99.80111 
L 106.822727 99.80111 
L 107.175 99.80111 
L 107.527273 99.80111 
L 107.879546 99.80111 
L 108.231818 99.80111 
L 108.584091 99.80111 
L 108.936364 99.80111 
L 109.288636 99.80111 
L 109.640909 99.80111 
L 109.993182 99.80111 
L 110.345455 99.80111 
L 110.697727 99.80111 
L 111.05 99.80111 
L 111.402273 99.80111 
L 111.754545 99.80111 
L 112.106818 99.80111 
L 112.459091 99.80111 
L 112.811364 99.80111 
L 113.163636 99.80111 
L 113.515909 99.80111 
L 113.868182 99.80111 
L 114.220454 99.80111 
L 114.572727 99.80111 
L 114.925 99.80111 
L 115.277273 99.80111 
L 115.629545 99.80111 
L 115.981818 99.80111 
L 116.334091 99.80111 
L 116.686363 99.80111 
L 117.038636 99.80111 
L 117.390909 99.80111 
L 117.743182 99.80111 
L 118.095454 99.80111 
L 118.447727 99.80111 
L 118.8 99.80111 
L 119.152272 99.80111 
L 119.504545 99.80111 
L 119.856818 99.80111 
L 120.209091 99.80111 
L 120.561363 99.80111 
L 120.913636 99.80111 
L 121.265909 99.80111 
L 121.618181 99.80111 
L 121.970454 99.80111 
L 122.322727 99.80111 
L 122.675 99.80111 
L 123.027272 99.80111 
L 123.379545 99.80111 
L 123.731818 99.80111 
L 124.08409 99.80111 
L 124.436363 99.80111 
L 124.788636 99.80111 
L 125.140909 99.80111 
L 125.493181 99.80111 
L 125.845454 99.80111 
L 126.197727 99.80111 
L 126.549999 99.80111 
L 126.902272 99.80111 
L 127.254545 99.80111 
L 127.606818 99.80111 
L 127.95909 99.80111 
L 128.311363 99.80111 
L 128.663636 99.80111 
L 129.015908 99.80111 
L 129.368181 99.80111 
L 129.720454 99.80111 
L 130.072727 99.80111 
L 130.424999 99.80111 
" clip-path="url(#pd37299191b)" style="fill: none; stroke: #000000; stroke-width: 2; stroke-linecap: round"></path>
   </g>
   <g id="line2d_3">
    <defs>
     <path id="m2855f9b25a" d="M 0 1.5 
C 0.397805 1.5 0.77937 1.341951 1.06066 1.06066 
C 1.341951 0.77937 1.5 0.397805 1.5 0 
C 1.5 -0.397805 1.341951 -0.77937 1.06066 -1.06066 
C 0.77937 -1.341951 0.397805 -1.5 0 -1.5 
C -0.397805 -1.5 -0.77937 -1.341951 -1.06066 -1.06066 
C -1.341951 -0.77937 -1.5 -0.397805 -1.5 0 
C -1.5 0.397805 -1.341951 0.77937 -1.06066 1.06066 
C -0.77937 1.341951 -0.397805 1.5 0 1.5 
z
" style="stroke: #ff0000"></path>
    </defs>
    <g clip-path="url(#pd37299191b)">
     <use xlink:href="#m2855f9b25a" x="95.550001" y="99.80111" style="fill: #ff0000; stroke: #ff0000"></use>
     <use xlink:href="#m2855f9b25a" x="130.424999" y="99.80111" style="fill: #ff0000; stroke: #ff0000"></use>
    </g>
   </g>
   <g id="line2d_4">
    <path d="M 218.775 99.80111 
L 220.125109 98.603188 
L 221.473601 97.404102 
L 222.818858 96.202687 
L 224.159262 94.997779 
L 225.493197 93.788212 
L 226.819045 92.572823 
L 228.135189 91.350446 
L 229.44001 90.119918 
L 230.731893 88.880073 
L 232.009218 87.629747 
L 233.270369 86.367776 
L 234.513729 85.092996 
L 235.73768 83.80424 
L 236.940605 82.500346 
L 238.120885 81.180148 
L 239.276905 79.842482 
L 240.407046 78.486184 
L 241.509691 77.110088 
L 242.583222 75.713031 
L 243.626023 74.293847 
L 244.636475 72.851373 
L 245.612962 71.384443 
L 246.553865 69.891893 
L 247.457568 68.37256 
L 248.322453 66.825277 
L 249.146903 65.248881 
L 249.9293 63.642206 
L 250.668027 62.00409 
L 251.361466 60.333366 
L 252.008 58.62887 
L 252.606012 56.889439 
L 253.153884 55.113906 
L 253.649999 53.301109 
L 254.093224 51.451208 
L 254.484369 49.56967 
L 254.824726 47.663289 
L 255.115591 45.738858 
L 255.358257 43.803169 
L 255.554019 41.863017 
L 255.704169 39.925193 
L 255.810001 37.996492 
L 255.872811 36.083706 
L 255.893891 34.193628 
L 255.874536 32.333052 
L 255.81604 30.508771 
L 255.719696 28.727578 
L 255.586799 26.996266 
L 255.418642 25.321628 
L 255.216519 23.710457 
L 254.981725 22.169547 
L 254.715552 20.70569 
L 254.419296 19.32568 
L 254.09425 18.03631 
L 253.741708 16.844373 
L 253.362963 15.756662 
L 252.959311 14.779971 
L 252.532044 13.921091 
L 252.082457 13.186818 
L 251.611844 12.583943 
L 251.121498 12.11926 
L 250.612713 11.799562 
L 250.086784 11.631642 
L 249.545005 11.622293 
L 248.988668 11.778309 
L 248.419069 12.106482 
L 247.837501 12.613606 
L 247.245096 13.304403 
L 246.64234 14.175316 
L 246.029556 15.220715 
L 245.407067 16.434973 
L 244.775198 17.812459 
L 244.134271 19.347547 
L 243.484609 21.034606 
L 242.826538 22.86801 
L 242.160379 24.842128 
L 241.486456 26.951333 
L 240.805094 29.189995 
L 240.116615 31.552487 
L 239.421342 34.033179 
L 238.7196 36.626444 
L 238.011712 39.326652 
L 237.298001 42.128174 
L 236.578791 45.025383 
L 235.854405 48.012649 
L 235.125167 51.084345 
L 234.391401 54.234841 
L 233.653429 57.458508 
L 232.911575 60.749719 
L 232.166163 64.102844 
L 231.417516 67.512256 
L 230.665957 70.972325 
L 229.911811 74.477422 
L 229.1554 78.02192 
L 228.397049 81.600189 
L 227.63708 85.206602 
L 226.875817 88.835529 
L 226.113584 92.481341 
L 225.350704 96.138411 
L 224.5875 99.80111 
" clip-path="url(#pd37299191b)" style="fill: none; stroke: #000000; stroke-width: 2; stroke-linecap: round"></path>
   </g>
   <g id="line2d_5">
    <g clip-path="url(#pd37299191b)">
     <use xlink:href="#m2855f9b25a" x="218.775" y="99.80111" style="fill: #ff0000; stroke: #ff0000"></use>
     <use xlink:href="#m2855f9b25a" x="253.649999" y="53.301109" style="fill: #ff0000; stroke: #ff0000"></use>
     <use xlink:href="#m2855f9b25a" x="247.837501" y="12.613606" style="fill: #ff0000; stroke: #ff0000"></use>
     <use xlink:href="#m2855f9b25a" x="224.5875" y="99.80111" style="fill: #ff0000; stroke: #ff0000"></use>
    </g>
   </g>
   <g id="line2d_6">
    <path d="M 365.249999 70.738608 
L 364.693701 70.2405 
L 364.136929 69.74553 
L 363.579211 69.256837 
L 363.020075 68.77756 
L 362.459046 68.310837 
L 361.895653 67.859806 
L 361.329423 67.427607 
L 360.759882 67.017377 
L 360.186558 66.632256 
L 359.608977 66.275381 
L 359.026667 65.949891 
L 358.439155 65.658925 
L 357.845968 65.405621 
L 357.246632 65.193118 
L 356.640676 65.024555 
L 356.027626 64.903069 
L 355.407009 64.831799 
L 354.778352 64.813885 
L 354.141182 64.852463 
L 353.495031 64.950667 
L 352.84023 65.110114 
L 352.178903 65.329046 
L 351.513415 65.60525 
L 350.846129 65.936511 
L 350.179411 66.320616 
L 349.515625 66.75535 
L 348.857136 67.238498 
L 348.206308 67.767848 
L 347.565506 68.341184 
L 346.937095 68.956292 
L 346.32344 69.610959 
L 345.726904 70.30297 
L 345.149853 71.03011 
L 344.594651 71.790167 
L 344.063663 72.580925 
L 343.559254 73.400171 
L 343.083788 74.24569 
L 342.63963 75.115268 
L 342.229144 76.006691 
L 341.85467 76.917734 
L 341.517567 77.845734 
L 341.21792 78.787462 
L 340.955729 79.73965 
L 340.730993 80.699031 
L 340.543714 81.662337 
L 340.39389 82.626301 
L 340.281523 83.587656 
L 340.206611 84.543133 
L 340.169155 85.489466 
L 340.169155 86.423386 
L 340.206611 87.341627 
L 340.281523 88.24092 
L 340.39389 89.117999 
L 340.543714 89.969595 
L 340.730993 90.792442 
L 340.955729 91.583272 
L 341.21792 92.338816 
L 341.517567 93.055809 
L 341.85467 93.730982 
L 342.229144 94.36125 
L 342.63963 94.946262 
L 343.083788 95.487768 
L 343.559254 95.987575 
L 344.063663 96.447489 
L 344.594651 96.869314 
L 345.149853 97.254858 
L 345.726904 97.605925 
L 346.32344 97.924321 
L 346.937095 98.211852 
L 347.565506 98.470324 
L 348.206308 98.701542 
L 348.857136 98.907313 
L 349.515625 99.089441 
L 350.179411 99.249733 
L 350.846129 99.389995 
L 351.513415 99.512031 
L 352.178903 99.617649 
L 352.84023 99.708652 
L 353.495031 99.786848 
L 354.141182 99.853934 
L 354.778352 99.910807 
L 355.407009 99.958007 
L 356.027626 99.996071 
L 356.640676 100.025535 
L 357.246632 100.046939 
L 357.845968 100.060819 
L 358.439155 100.067712 
L 359.026667 100.068156 
L 359.608977 100.062689 
L 360.186558 100.051847 
L 360.759882 100.036169 
L 361.329423 100.016192 
L 361.895653 99.992452 
L 362.459046 99.965488 
L 363.020075 99.935837 
L 363.579211 99.904036 
L 364.136929 99.870623 
L 364.693701 99.836135 
L 365.249999 99.80111 
" clip-path="url(#pd37299191b)" style="fill: none; stroke: #000000; stroke-width: 2; stroke-linecap: round"></path>
   </g>
   <g id="line2d_7">
    <g clip-path="url(#pd37299191b)">
     <use xlink:href="#m2855f9b25a" x="365.249999" y="70.738608" style="fill: #ff0000; stroke: #ff0000"></use>
     <use xlink:href="#m2855f9b25a" x="353.624999" y="64.926111" style="fill: #ff0000; stroke: #ff0000"></use>
     <use xlink:href="#m2855f9b25a" x="341.999999" y="76.551109" style="fill: #ff0000; stroke: #ff0000"></use>
     <use xlink:href="#m2855f9b25a" x="341.999999" y="93.98861" style="fill: #ff0000; stroke: #ff0000"></use>
     <use xlink:href="#m2855f9b25a" x="353.624999" y="99.80111" style="fill: #ff0000; stroke: #ff0000"></use>
     <use xlink:href="#m2855f9b25a" x="365.249999" y="99.80111" style="fill: #ff0000; stroke: #ff0000"></use>
    </g>
   </g>
  </g>
 </g>
 <defs>
  <clipPath id="pd37299191b">
   <rect x="7.2" y="7.2" width="446.4" height="97.290449"></rect>
  </clipPath>
 </defs>
</svg>
