<!--?xml version="1.0" encoding="utf-8" standalone="no"?-->

<svg xmlns:xlink="http://www.w3.org/1999/xlink" width="460.8pt" height="67.313795pt" viewBox="0 0 460.8 67.313795" xmlns="http://www.w3.org/2000/svg" version="1.1">
 <metadata>
  <rdf:rdf xmlns:dc="http://purl.org/dc/elements/1.1/" xmlns:cc="http://creativecommons.org/ns#" xmlns:rdf="http://www.w3.org/1999/02/22-rdf-syntax-ns#">
   <cc:work>
    <dc:type rdf:resource="http://purl.org/dc/dcmitype/StillImage"></dc:type>
    <dc:date>2024-10-03T15:03:10.986521</dc:date>
    <dc:format>image/svg+xml</dc:format>
    <dc:creator>
     <cc:agent>
      <dc:title>Matplotlib v3.9.1.post1, https://matplotlib.org/</dc:title>
     </cc:agent>
    </dc:creator>
   </cc:work>
  </rdf:rdf>
 </metadata>
 <defs>
  <style type="text/css">*{stroke-linejoin: round; stroke-linecap: butt}</style>
 </defs>
 <g id="figure_1">
  <g id="patch_1">
   <path d="M 0 67.313795 
L 460.8 67.313795 
L 460.8 0 
L 0 0 
z
" style="fill: #ffffff"></path>
  </g>
  <g id="axes_1">
   <g id="line2d_1">
    <path d="M 7.2 57.708622 
L 453.6 57.708622 
" clip-path="url(#p3d4b7f6081)" style="fill: none; stroke-dasharray: 5.55,2.4; stroke-dashoffset: 0; stroke: #d3d3d3; stroke-width: 1.5"></path>
   </g>
   <g id="line2d_2">
    <path d="M 153.434482 9.605172 
L 154.406586 10.771317 
L 155.380594 11.937461 
L 156.358409 13.103605 
L 157.341936 14.26975 
L 158.333077 15.435894 
L 159.333737 16.602038 
L 160.345819 17.768182 
L 161.371227 18.934327 
L 162.411865 20.100471 
L 163.469636 21.266615 
L 164.546444 22.43276 
L 165.644193 23.598904 
L 166.764787 24.765048 
L 167.910129 25.931192 
L 169.082123 27.097337 
L 170.282673 28.263481 
L 171.513682 29.429625 
L 172.777055 30.595769 
L 174.074694 31.761914 
L 175.408504 32.928058 
L 176.780388 34.094202 
L 178.19225 35.260346 
L 179.645994 36.426491 
L 181.143524 37.592635 
L 182.686732 38.758769 
L 184.276314 39.923684 
L 185.910633 41.083839 
L 187.587786 42.235428 
L 189.305869 43.374643 
L 191.062978 44.497676 
L 192.857209 45.60072 
L 194.686659 46.679967 
L 196.549424 47.731611 
L 198.4436 48.751843 
L 200.367284 49.736857 
L 202.318572 50.682845 
L 204.29556 51.585998 
L 206.296344 52.442511 
L 208.319021 53.248576 
L 210.361687 54.000385 
L 212.422439 54.69413 
L 214.499371 55.326005 
L 216.590582 55.892201 
L 218.694167 56.388912 
L 220.808223 56.81233 
L 222.930845 57.158647 
L 225.06013 57.424057 
L 227.194174 57.604751 
L 229.331074 57.696922 
L 231.468926 57.696922 
L 233.605826 57.604751 
L 235.73987 57.424057 
L 237.869155 57.158647 
L 239.991777 56.81233 
L 242.105833 56.388912 
L 244.209418 55.892201 
L 246.300629 55.326005 
L 248.377561 54.69413 
L 250.438313 54.000385 
L 252.480979 53.248576 
L 254.503656 52.442511 
L 256.50444 51.585998 
L 258.481428 50.682845 
L 260.432716 49.736857 
L 262.3564 48.751843 
L 264.250576 47.731611 
L 266.113341 46.679967 
L 267.942791 45.60072 
L 269.737022 44.497676 
L 271.494131 43.374643 
L 273.212214 42.235428 
L 274.889367 41.083839 
L 276.523686 39.923684 
L 278.113268 38.758769 
L 279.656476 37.592635 
L 281.154006 36.426491 
L 282.60775 35.260346 
L 284.019612 34.094202 
L 285.391496 32.928058 
L 286.725306 31.761914 
L 288.022945 30.595769 
L 289.286318 29.429625 
L 290.517327 28.263481 
L 291.717877 27.097337 
L 292.889871 25.931192 
L 294.035213 24.765048 
L 295.155807 23.598904 
L 296.253556 22.43276 
L 297.330364 21.266615 
L 298.388135 20.100471 
L 299.428773 18.934327 
L 300.454181 17.768182 
L 301.466263 16.602038 
L 302.466923 15.435894 
L 303.458064 14.26975 
L 304.441591 13.103605 
L 305.419406 11.937461 
L 306.393414 10.771317 
L 307.365518 9.605172 
" clip-path="url(#p3d4b7f6081)" style="fill: none; stroke: #000000; stroke-width: 2; stroke-linecap: round"></path>
   </g>
   <g id="line2d_3">
    <defs>
     <path id="m7c14699e3c" d="M 0 1.5 
C 0.397805 1.5 0.77937 1.341951 1.06066 1.06066 
C 1.341951 0.77937 1.5 0.397805 1.5 0 
C 1.5 -0.397805 1.341951 -0.77937 1.06066 -1.06066 
C 0.77937 -1.341951 0.397805 -1.5 0 -1.5 
C -0.397805 -1.5 -0.77937 -1.341951 -1.06066 -1.06066 
C -1.341951 -0.77937 -1.5 -0.397805 -1.5 0 
C -1.5 0.397805 -1.341951 0.77937 -1.06066 1.06066 
C -0.77937 1.341951 -0.397805 1.5 0 1.5 
z
" style="stroke: #ff0000"></path>
    </defs>
    <g clip-path="url(#p3d4b7f6081)">
     <use xlink:href="#m7c14699e3c" x="153.434482" y="9.605172" style="fill: #ff0000; stroke: #ff0000"></use>
     <use xlink:href="#m7c14699e3c" x="182.29655" y="38.467243" style="fill: #ff0000; stroke: #ff0000"></use>
     <use xlink:href="#m7c14699e3c" x="230.4" y="57.708622" style="fill: #ff0000; stroke: #ff0000"></use>
     <use xlink:href="#m7c14699e3c" x="278.50345" y="38.467243" style="fill: #ff0000; stroke: #ff0000"></use>
     <use xlink:href="#m7c14699e3c" x="307.365518" y="9.605172" style="fill: #ff0000; stroke: #ff0000"></use>
    </g>
   </g>
   <g id="line2d_4">
    <path d="M 307.365518 9.605172 
L 307.268339 10.091066 
L 307.17116 10.576959 
L 307.073982 11.062853 
L 306.976803 11.548746 
L 306.879624 12.03464 
L 306.782446 12.520533 
L 306.685267 13.006427 
L 306.588088 13.49232 
L 306.490909 13.978213 
L 306.393731 14.464107 
L 306.296552 14.95 
L 306.199373 15.435894 
L 306.102195 15.921787 
L 306.005016 16.407681 
L 305.907837 16.893574 
L 305.810659 17.379467 
L 305.71348 17.865361 
L 305.616301 18.351254 
L 305.519123 18.837148 
L 305.421944 19.323041 
L 305.324765 19.808935 
L 305.227587 20.294828 
L 305.130408 20.780721 
L 305.033229 21.266615 
L 304.936051 21.752508 
L 304.838872 22.238402 
L 304.741693 22.724295 
L 304.644514 23.210189 
L 304.547336 23.696082 
L 304.450157 24.181975 
L 304.352978 24.667869 
L 304.2558 25.153762 
L 304.158621 25.639656 
L 304.061442 26.125549 
L 303.964264 26.611443 
L 303.867085 27.097336 
L 303.769906 27.58323 
L 303.672728 28.069123 
L 303.575549 28.555016 
L 303.47837 29.04091 
L 303.381192 29.526803 
L 303.284013 30.012697 
L 303.186834 30.49859 
L 303.089656 30.984484 
L 302.992477 31.470377 
L 302.895298 31.95627 
L 302.798119 32.442164 
L 302.700941 32.928057 
L 302.603762 33.413951 
L 302.506583 33.899844 
L 302.409405 34.385738 
L 302.312226 34.871631 
L 302.215047 35.357524 
L 302.117869 35.843418 
L 302.02069 36.329311 
L 301.923511 36.815205 
L 301.826333 37.301098 
L 301.729154 37.786992 
L 301.631975 38.272885 
L 301.534797 38.758778 
L 301.437618 39.244672 
L 301.340439 39.730565 
L 301.243261 40.216459 
L 301.146082 40.702352 
L 301.048903 41.188246 
L 300.951724 41.674139 
L 300.854546 42.160033 
L 300.757367 42.645926 
L 300.660188 43.131819 
L 300.56301 43.617713 
L 300.465831 44.103606 
L 300.368652 44.5895 
L 300.271474 45.075393 
L 300.174295 45.561287 
L 300.077116 46.04718 
L 299.979938 46.533073 
L 299.882759 47.018967 
L 299.78558 47.50486 
L 299.688402 47.990754 
L 299.591223 48.476647 
L 299.494044 48.962541 
L 299.396866 49.448434 
L 299.299687 49.934327 
L 299.202508 50.420221 
L 299.105329 50.906114 
L 299.008151 51.392008 
L 298.910972 51.877901 
L 298.813793 52.363795 
L 298.716615 52.849688 
L 298.619436 53.335581 
L 298.522257 53.821475 
L 298.425079 54.307368 
L 298.3279 54.793262 
L 298.230721 55.279155 
L 298.133543 55.765049 
L 298.036364 56.250942 
L 297.939185 56.736836 
L 297.842007 57.222729 
L 297.744828 57.708622 
" clip-path="url(#p3d4b7f6081)" style="fill: none; stroke: #000000; stroke-width: 2; stroke-linecap: round"></path>
   </g>
   <g id="line2d_5">
    <g clip-path="url(#p3d4b7f6081)">
     <use xlink:href="#m7c14699e3c" x="307.365518" y="9.605172" style="fill: #ff0000; stroke: #ff0000"></use>
     <use xlink:href="#m7c14699e3c" x="297.744828" y="57.708622" style="fill: #ff0000; stroke: #ff0000"></use>
    </g>
   </g>
  </g>
 </g>
 <defs>
  <clipPath id="p3d4b7f6081">
   <rect x="7.2" y="7.2" width="446.4" height="52.913795"></rect>
  </clipPath>
 </defs>
</svg>
