<?xml version="1.0" encoding="UTF-8" standalone="no"?>
                <!DOCTYPE svg PUBLIC "-//W3C//DTD SVG 1.1//EN" "http://www.w3.org/Graphics/SVG/1.1/DTD/svg11.dtd">
                <svg class="d-flex" id="output" viewBox="-2.4000000000000004 -1.673684210526316 6.300000000000001 2.8736842105263163" preserveAspectRatio="xMidYMid meet" transform="scale(1, -1) translate(0, -2.8736841678619385)" xmlns="http://www.w3.org/2000/svg" xmlns:xlink="http://www.w3.org/1999/xlink"><line x1="-1.2000000000000002" x2="2.7" y1="-0.47368421052631593" y2="-0.47368421052631593" stroke="grey" stroke-dasharray="0.12, 0.12" stroke-width="0.03"></line><path d="M 0 0 L 0.009173908465871147 -0.01366905218821513 L 0.01836734428199315 -0.027329177587744155 L 0.02759983479861685 -0.04097144940990097 L 0.03689090736599312 -0.054586940865999474 L 0.046260089334372805 -0.06816672516735356 L 0.05572690805400674 -0.08170187552527712 L 0.06531089087514581 -0.09518346515108407 L 0.07503156514804085 -0.10860256725608827 L 0.08490845822294271 -0.12195025505160363 L 0.09496109745010227 -0.13521760174894407 L 0.10520901017977033 -0.14839568055942345 L 0.11567172376219778 -0.16147556469435567 L 0.12636876554763551 -0.1744483273650547 L 0.1373196628863343 -0.18730504178283433 L 0.14854394312854502 -0.20003678115900847 L 0.16006113362451857 -0.2126346187048911 L 0.17189076172450576 -0.22508962763179605 L 0.18405235477875745 -0.23739288115103716 L 0.1965654401375245 -0.24953545247392842 L 0.2094495451510578 -0.2615084148117837 L 0.2227241971696081 -0.273302841375917 L 0.23640892354342635 -0.28490980537764193 L 0.2505232516227634 -0.29632038002827266 L 0.26508670875787 -0.30752563853912296 L 0.28011872059404785 -0.3185166308746613 L 0.2956264064777427 -0.3292815941310459 L 0.3115929850923326 -0.33980330239573425 L 0.3279989290875666 -0.350063902091354 L 0.3448247111131939 -0.36004553964053293 L 0.36205080381896376 -0.369730361465899 L 0.3796576798546253 -0.37910051399007977 L 0.39762581186992757 -0.38813814363570326 L 0.4159356725146198 -0.39682539682539714 L 0.4345677344384512 -0.4051444199817892 L 0.4535024702911707 -0.41307735952750724 L 0.4727203527225275 -0.420606361885179 L 0.492201854382271 -0.4277135734774324 L 0.5119274479201501 -0.43438114072689515 L 0.5318776059859139 -0.44059121005619506 L 0.5520328012293119 -0.44632592788795994 L 0.5723735063000929 -0.4515674406448175 L 0.5928801938480058 -0.4562978947493955 L 0.6135333365228005 -0.46049943662432197 L 0.6343134069742257 -0.4641542126922245 L 0.6552008778520306 -0.46724436937573094 L 0.6761762218059642 -0.4697520530974691 L 0.6972199114857759 -0.47165941028006675 L 0.7183124195412146 -0.47294858734615164 L 0.7394342186220297 -0.47360173071835165 L 0.7605657813779704 -0.4736017307183516 L 0.7816875804587856 -0.47294858734615164 L 0.8027800885142243 -0.47165941028006675 L 0.8238237781940358 -0.46975205309746915 L 0.8447991221479696 -0.467244369375731 L 0.8656865930257744 -0.4641542126922245 L 0.8864666634771997 -0.46049943662432197 L 0.9071198061519943 -0.4562978947493955 L 0.9276264936999072 -0.45156744064481746 L 0.9479671987706884 -0.44632592788795983 L 0.9681223940140862 -0.440591210056195 L 0.9880725520798501 -0.43438114072689504 L 1.0077981456177292 -0.42771357347743233 L 1.0272796472774728 -0.4206063618851789 L 1.0464975297088295 -0.4130773595275071 L 1.065432265561549 -0.40514441998178913 L 1.0840643274853805 -0.396825396825397 L 1.1023741881300726 -0.38813814363570326 L 1.120342320145375 -0.3791005139900797 L 1.1379491961810362 -0.3697303614658989 L 1.1551752888868063 -0.3600455396405328 L 1.1720010709124336 -0.3500639020913539 L 1.1884070149076675 -0.3398033023957342 L 1.2043735935222575 -0.3292815941310458 L 1.2198812794059521 -0.31851663087466114 L 1.2349132912421301 -0.3075256385391229 L 1.2494767483772367 -0.2963203800282726 L 1.2635910764565736 -0.28490980537764193 L 1.277275802830392 -0.27330284137591687 L 1.2905504548489422 -0.26150841481178366 L 1.3034345598624757 -0.24953545247392833 L 1.3159476452212426 -0.2373928811510371 L 1.3281092382754944 -0.22508962763179588 L 1.3399388663754817 -0.212634618704891 L 1.351456056871455 -0.20003678115900844 L 1.362680337113666 -0.1873050417828342 L 1.3736312344523647 -0.17444832736505464 L 1.3843282762378024 -0.16147556469435556 L 1.3947909898202298 -0.1483956805594234 L 1.4050389025498977 -0.1352176017489439 L 1.4150915417770575 -0.12195025505160353 L 1.4249684348519593 -0.10860256725608822 L 1.4346891091248544 -0.09518346515108395 L 1.4442730919459934 -0.08170187552527705 L 1.4537399106656272 -0.0681667251673534 L 1.463109092634007 -0.054586940865999384 L 1.4724001652013832 -0.04097144940990094 L 1.4816326557180068 -0.02732917758774404 L 1.4908260915341287 -0.013669052188215073 L 1.5 0" stroke="black" stroke-width="0.03" fill="none" stroke-linecap="round"></path><circle cx="0" cy="0" r="0.03" fill="red"></circle><circle cx="0.27631578947368407" cy="-0.31578947368421084" r="0.03" fill="red"></circle><circle cx="0.75" cy="-0.47368421052631593" r="0.03" fill="red"></circle><circle cx="1.223684210526316" cy="-0.31578947368421084" r="0.03" fill="red"></circle><circle cx="1.5" cy="0" r="0.03" fill="red"></circle><path d="M 1.5 0 L 1.4984051036682615 -0.0047846889952153126 L 1.496810207336523 -0.009569377990430625 L 1.4952153110047848 -0.014354066985645939 L 1.4936204146730463 -0.01913875598086125 L 1.4920255183413078 -0.023923444976076565 L 1.4904306220095693 -0.028708133971291877 L 1.4888357256778308 -0.03349282296650719 L 1.4872408293460926 -0.0382775119617225 L 1.485645933014354 -0.043062200956937816 L 1.4840510366826156 -0.04784688995215313 L 1.4824561403508771 -0.05263157894736844 L 1.4808612440191389 -0.057416267942583754 L 1.4792663476874004 -0.06220095693779907 L 1.477671451355662 -0.06698564593301438 L 1.4760765550239234 -0.07177033492822969 L 1.474481658692185 -0.076555023923445 L 1.4728867623604467 -0.08133971291866032 L 1.4712918660287082 -0.08612440191387563 L 1.4696969696969697 -0.09090909090909094 L 1.4681020733652312 -0.09569377990430626 L 1.4665071770334928 -0.10047846889952157 L 1.4649122807017545 -0.10526315789473688 L 1.463317384370016 -0.1100478468899522 L 1.4617224880382775 -0.11483253588516751 L 1.460127591706539 -0.11961722488038282 L 1.4585326953748008 -0.12440191387559814 L 1.4569377990430623 -0.12918660287081346 L 1.4553429027113238 -0.13397129186602877 L 1.4537480063795853 -0.13875598086124405 L 1.4521531100478469 -0.14354066985645939 L 1.4505582137161086 -0.1483253588516747 L 1.4489633173843701 -0.15311004784689 L 1.4473684210526316 -0.15789473684210534 L 1.4457735247208932 -0.16267942583732065 L 1.4441786283891547 -0.16746411483253595 L 1.4425837320574164 -0.17224880382775126 L 1.440988835725678 -0.17703349282296657 L 1.4393939393939394 -0.18181818181818188 L 1.437799043062201 -0.18660287081339721 L 1.4362041467304625 -0.19138755980861252 L 1.4346092503987242 -0.19617224880382783 L 1.4330143540669857 -0.20095693779904314 L 1.4314194577352473 -0.20574162679425845 L 1.4298245614035088 -0.21052631578947376 L 1.4282296650717705 -0.2153110047846891 L 1.426634768740032 -0.2200956937799044 L 1.4250398724082936 -0.2248803827751197 L 1.423444976076555 -0.22966507177033502 L 1.4218500797448166 -0.23444976076555032 L 1.4202551834130783 -0.23923444976076563 L 1.4186602870813398 -0.24401913875598097 L 1.4170653907496014 -0.24880382775119628 L 1.4154704944178629 -0.2535885167464116 L 1.4138755980861244 -0.2583732057416269 L 1.4122807017543861 -0.2631578947368422 L 1.4106858054226477 -0.26794258373205754 L 1.4090909090909092 -0.2727272727272728 L 1.4074960127591707 -0.2775119617224881 L 1.4059011164274322 -0.2822966507177035 L 1.404306220095694 -0.28708133971291877 L 1.4027113237639555 -0.2918660287081341 L 1.401116427432217 -0.2966507177033494 L 1.3995215311004785 -0.3014354066985647 L 1.3979266347687402 -0.30622009569378 L 1.3963317384370018 -0.31100478468899534 L 1.3947368421052633 -0.3157894736842107 L 1.3931419457735248 -0.32057416267942596 L 1.3915470494417863 -0.3253588516746413 L 1.389952153110048 -0.33014354066985657 L 1.3883572567783096 -0.3349282296650719 L 1.386762360446571 -0.3397129186602872 L 1.3851674641148326 -0.3444976076555025 L 1.3835725677830941 -0.34928229665071786 L 1.3819776714513559 -0.35406698564593314 L 1.3803827751196174 -0.3588516746411485 L 1.378787878787879 -0.36363636363636376 L 1.3771929824561404 -0.36842105263157904 L 1.375598086124402 -0.37320574162679443 L 1.3740031897926637 -0.3779904306220097 L 1.3724082934609252 -0.38277511961722505 L 1.3708133971291867 -0.3875598086124403 L 1.3692185007974482 -0.39234449760765566 L 1.36762360446571 -0.39712918660287094 L 1.3660287081339715 -0.4019138755980863 L 1.364433811802233 -0.4066985645933016 L 1.3628389154704945 -0.4114832535885169 L 1.361244019138756 -0.41626794258373223 L 1.3596491228070178 -0.4210526315789475 L 1.3580542264752793 -0.42583732057416285 L 1.3564593301435408 -0.4306220095693782 L 1.3548644338118023 -0.43540669856459346 L 1.353269537480064 -0.4401913875598088 L 1.3516746411483256 -0.4449760765550241 L 1.350079744816587 -0.4497607655502394 L 1.3484848484848486 -0.4545454545454547 L 1.3468899521531101 -0.45933014354067003 L 1.3452950558213717 -0.46411483253588537 L 1.3437001594896334 -0.46889952153110065 L 1.342105263157895 -0.47368421052631593" stroke="black" stroke-width="0.03" fill="none" stroke-linecap="round"></path><circle cx="1.5" cy="0" r="0.03" fill="red"></circle><circle cx="1.342105263157895" cy="-0.47368421052631593" r="0.03" fill="red"></circle></svg>