<!--?xml version="1.0" encoding="utf-8" standalone="no"?-->

<svg xmlns:xlink="http://www.w3.org/1999/xlink" width="460.8pt" height="195.758008pt" viewBox="0 0 460.8 195.758008" xmlns="http://www.w3.org/2000/svg" version="1.1">
 <metadata>
  <rdf:rdf xmlns:dc="http://purl.org/dc/elements/1.1/" xmlns:cc="http://creativecommons.org/ns#" xmlns:rdf="http://www.w3.org/1999/02/22-rdf-syntax-ns#">
   <cc:work>
    <dc:type rdf:resource="http://purl.org/dc/dcmitype/StillImage"></dc:type>
    <dc:date>2024-10-03T15:53:51.063689</dc:date>
    <dc:format>image/svg+xml</dc:format>
    <dc:creator>
     <cc:agent>
      <dc:title>Matplotlib v3.9.1.post1, https://matplotlib.org/</dc:title>
     </cc:agent>
    </dc:creator>
   </cc:work>
  </rdf:rdf>
 </metadata>
 <defs>
  <style type="text/css">*{stroke-linejoin: round; stroke-linecap: butt}</style>
 </defs>
 <g id="figure_1">
  <g id="patch_1">
   <path d="M 0 195.758008 
L 460.8 195.758008 
L 460.8 0 
L 0 0 
z
" style="fill: #ffffff"></path>
  </g>
  <g id="axes_1">
   <g id="line2d_1">
    <path d="M 7.2 107.248173 
L 453.6 107.248173 
" clip-path="url(#pe4235bd875)" style="fill: none; stroke-dasharray: 5.55,2.4; stroke-dashoffset: 0; stroke: #d3d3d3; stroke-width: 1.5"></path>
   </g>
   <g id="line2d_2">
    <path d="M 123.103343 15.443546 
L 122.407853 16.02331 
L 121.712363 16.604209 
L 121.016874 17.187379 
L 120.321384 17.773955 
L 119.625894 18.365073 
L 118.930405 18.961867 
L 118.234915 19.565474 
L 117.539425 20.177028 
L 116.843936 20.797666 
L 116.148446 21.428522 
L 115.452956 22.070731 
L 114.757467 22.72543 
L 114.061977 23.393753 
L 113.366488 24.076836 
L 112.670998 24.775815 
L 111.975508 25.491824 
L 111.280019 26.225999 
L 110.584529 26.979476 
L 109.889039 27.753389 
L 109.19355 28.548875 
L 108.49806 29.367068 
L 107.80257 30.209104 
L 107.107081 31.076118 
L 106.411591 31.969247 
L 105.716108 32.889618 
L 105.021351 33.837646 
L 104.329433 34.812356 
L 103.642625 35.812611 
L 102.963196 36.837278 
L 102.293418 37.885219 
L 101.635561 38.9553 
L 100.991897 40.046386 
L 100.364695 41.157341 
L 99.756228 42.28703 
L 99.168765 43.434317 
L 98.604577 44.598067 
L 98.065935 45.777145 
L 97.55511 46.970414 
L 97.074372 48.176741 
L 96.625992 49.394989 
L 96.212242 50.624024 
L 95.835391 51.862708 
L 95.497711 53.109909 
L 95.201472 54.364489 
L 94.948945 55.625314 
L 94.742401 56.891248 
L 94.584111 58.161156 
L 94.476345 59.433902 
L 94.421373 60.708351 
L 94.421373 61.983368 
L 94.476345 63.257817 
L 94.584111 64.530564 
L 94.742401 65.800472 
L 94.948945 67.066406 
L 95.201472 68.32723 
L 95.497711 69.581811 
L 95.835391 70.829011 
L 96.212242 72.067696 
L 96.625992 73.29673 
L 97.074372 74.514978 
L 97.55511 75.721305 
L 98.065935 76.914575 
L 98.604577 78.093652 
L 99.168765 79.257402 
L 99.756228 80.404689 
L 100.364695 81.534378 
L 100.991897 82.645333 
L 101.635561 83.736419 
L 102.293418 84.8065 
L 102.963196 85.854442 
L 103.642625 86.879108 
L 104.329433 87.879364 
L 105.021351 88.854073 
L 105.716108 89.802102 
L 106.411591 90.722473 
L 107.107081 91.615601 
L 107.80257 92.482615 
L 108.49806 93.324651 
L 109.19355 94.142844 
L 109.889039 94.93833 
L 110.584529 95.712243 
L 111.280019 96.46572 
L 111.975508 97.199895 
L 112.670998 97.915904 
L 113.366488 98.614883 
L 114.061977 99.297966 
L 114.757467 99.966289 
L 115.452956 100.620988 
L 116.148446 101.263198 
L 116.843936 101.894053 
L 117.539425 102.514691 
L 118.234915 103.126245 
L 118.930405 103.729852 
L 119.625894 104.326647 
L 120.321384 104.917764 
L 121.016874 105.50434 
L 121.712363 106.08751 
L 122.407853 106.66841 
L 123.103343 107.248173 
" clip-path="url(#pe4235bd875)" style="fill: none; stroke: #000000; stroke-width: 2; stroke-linecap: round"></path>
   </g>
   <g id="line2d_3">
    <defs>
     <path id="mb4fc712a96" d="M 0 1.5 
C 0.397805 1.5 0.77937 1.341951 1.06066 1.06066 
C 1.341951 0.77937 1.5 0.397805 1.5 0 
C 1.5 -0.397805 1.341951 -0.77937 1.06066 -1.06066 
C 0.77937 -1.341951 0.397805 -1.5 0 -1.5 
C -0.397805 -1.5 -0.77937 -1.341951 -1.06066 -1.06066 
C -1.341951 -0.77937 -1.5 -0.397805 -1.5 0 
C -1.5 0.397805 -1.341951 0.77937 -1.06066 1.06066 
C -0.77937 1.341951 -0.397805 1.5 0 1.5 
z
" style="stroke: #ff0000"></path>
    </defs>
    <g clip-path="url(#pe4235bd875)">
     <use xlink:href="#mb4fc712a96" x="123.103343" y="15.443546" style="fill: #ff0000; stroke: #ff0000"></use>
     <use xlink:href="#mb4fc712a96" x="105.889974" y="32.656913" style="fill: #ff0000; stroke: #ff0000"></use>
     <use xlink:href="#mb4fc712a96" x="94.414396" y="61.34586" style="fill: #ff0000; stroke: #ff0000"></use>
     <use xlink:href="#mb4fc712a96" x="105.889974" y="90.034807" style="fill: #ff0000; stroke: #ff0000"></use>
     <use xlink:href="#mb4fc712a96" x="123.103343" y="107.248173" style="fill: #ff0000; stroke: #ff0000"></use>
    </g>
   </g>
   <g id="line2d_4">
    <path d="M 233.268895 135.93712 
L 232.719746 136.428826 
L 232.170131 136.917434 
L 231.619582 137.399846 
L 231.067632 137.872962 
L 230.513815 138.333687 
L 229.957664 138.77892 
L 229.398712 139.205564 
L 228.836491 139.610521 
L 228.270536 139.990692 
L 227.700379 140.34298 
L 227.125554 140.664286 
L 226.545594 140.951512 
L 225.960031 141.20156 
L 225.368399 141.411332 
L 224.770231 141.577729 
L 224.165061 141.697653 
L 223.552421 141.768006 
L 222.931844 141.785691 
L 222.302864 141.747608 
L 221.665018 141.650667 
L 221.018634 141.493269 
L 220.365808 141.277151 
L 219.708873 141.004497 
L 219.050165 140.677494 
L 218.392016 140.298326 
L 217.736762 139.86918 
L 217.086737 139.392242 
L 216.444274 138.869696 
L 215.811709 138.30373 
L 215.191375 137.696528 
L 214.585607 137.050276 
L 213.996739 136.36716 
L 213.427105 135.649365 
L 212.87904 134.899078 
L 212.354877 134.118484 
L 211.856951 133.309768 
L 211.387597 132.475117 
L 210.949147 131.616716 
L 210.543938 130.736751 
L 210.174277 129.837418 
L 209.841507 128.921346 
L 209.545711 127.991723 
L 209.28689 127.051774 
L 209.065043 126.104724 
L 208.880171 125.153799 
L 208.732273 124.202226 
L 208.62135 123.253228 
L 208.547401 122.310032 
L 208.510426 121.375863 
L 208.510426 120.453947 
L 208.547401 119.547509 
L 208.62135 118.659774 
L 208.732273 117.793969 
L 208.880171 116.953319 
L 209.065043 116.141048 
L 209.28689 115.360384 
L 209.545711 114.61455 
L 209.841507 113.906773 
L 210.174277 113.240279 
L 210.543938 112.618112 
L 210.949147 112.04062 
L 211.387597 111.506074 
L 211.856951 111.012691 
L 212.354877 110.558689 
L 212.87904 110.142285 
L 213.427105 109.761697 
L 213.996739 109.415143 
L 214.585607 109.100839 
L 215.191375 108.817004 
L 215.811709 108.561854 
L 216.444274 108.333607 
L 217.086737 108.130482 
L 217.736762 107.950694 
L 218.392016 107.792463 
L 219.050165 107.654004 
L 219.708873 107.533536 
L 220.365808 107.429276 
L 221.018634 107.339442 
L 221.665018 107.262251 
L 222.302864 107.196028 
L 222.931844 107.139886 
L 223.552421 107.093293 
L 224.165061 107.055718 
L 224.770231 107.026632 
L 225.368399 107.005504 
L 225.960031 106.991802 
L 226.545594 106.984998 
L 227.125554 106.984559 
L 227.700379 106.989956 
L 228.270536 107.000658 
L 228.836491 107.016135 
L 229.398712 107.035856 
L 229.957664 107.05929 
L 230.513815 107.085908 
L 231.067632 107.115178 
L 231.619582 107.14657 
L 232.170131 107.179554 
L 232.719746 107.213598 
L 233.268895 107.248173 
" clip-path="url(#pe4235bd875)" style="fill: none; stroke: #000000; stroke-width: 2; stroke-linecap: round"></path>
   </g>
   <g id="line2d_5">
    <g clip-path="url(#pe4235bd875)">
     <use xlink:href="#mb4fc712a96" x="233.268895" y="135.93712" style="fill: #ff0000; stroke: #ff0000"></use>
     <use xlink:href="#mb4fc712a96" x="221.793317" y="141.674907" style="fill: #ff0000; stroke: #ff0000"></use>
     <use xlink:href="#mb4fc712a96" x="210.317738" y="130.19933" style="fill: #ff0000; stroke: #ff0000"></use>
     <use xlink:href="#mb4fc712a96" x="210.317738" y="112.985963" style="fill: #ff0000; stroke: #ff0000"></use>
     <use xlink:href="#mb4fc712a96" x="221.793317" y="107.248173" style="fill: #ff0000; stroke: #ff0000"></use>
     <use xlink:href="#mb4fc712a96" x="233.268895" y="107.248173" style="fill: #ff0000; stroke: #ff0000"></use>
    </g>
   </g>
   <g id="line2d_6">
    <path d="M 320.483291 72.82144 
L 320.367482 75.186008 
L 320.252312 77.550003 
L 320.13842 79.912847 
L 320.026443 82.273967 
L 319.917021 84.632788 
L 319.810792 86.988735 
L 319.708396 89.341233 
L 319.610469 91.689708 
L 319.517652 94.033585 
L 319.430583 96.372288 
L 319.3499 98.705244 
L 319.276243 101.031877 
L 319.210249 103.351612 
L 319.152557 105.663876 
L 319.103807 107.968092 
L 319.064637 110.263687 
L 319.035685 112.550085 
L 319.01759 114.826711 
L 319.01099 117.092992 
L 319.016525 119.348352 
L 319.034833 121.592216 
L 319.066553 123.824009 
L 319.112323 126.043157 
L 319.172781 128.249086 
L 319.248568 130.441219 
L 319.34032 132.618983 
L 319.448678 134.781802 
L 319.574279 136.929102 
L 319.717762 139.060308 
L 319.879767 141.174846 
L 320.06093 143.272139 
L 320.261892 145.351615 
L 320.483291 147.412697 
L 320.725605 149.454109 
L 320.988675 151.471763 
L 321.272183 153.46087 
L 321.575807 155.416639 
L 321.89923 157.334281 
L 322.242132 159.209005 
L 322.604193 161.036022 
L 322.985094 162.810542 
L 323.384517 164.527776 
L 323.80214 166.182932 
L 324.237646 167.771222 
L 324.690715 169.287856 
L 325.161027 170.728043 
L 325.648264 172.086994 
L 326.152105 173.359918 
L 326.672232 174.542027 
L 327.208325 175.62853 
L 327.760066 176.614637 
L 328.327133 177.495558 
L 328.909209 178.266504 
L 329.505974 178.922685 
L 330.117109 179.45931 
L 330.742294 179.871591 
L 331.38121 180.154736 
L 332.033537 180.303956 
L 332.698957 180.314462 
L 333.37715 180.181463 
L 334.067796 179.90017 
L 334.770577 179.465792 
L 335.485173 178.873541 
L 336.211265 178.118625 
L 336.948532 177.196255 
L 337.696657 176.101641 
L 338.45532 174.831686 
L 339.224201 173.390062 
L 340.002981 171.782133 
L 340.791341 170.013265 
L 341.588962 168.088822 
L 342.395523 166.014168 
L 343.210706 163.794669 
L 344.034192 161.435688 
L 344.865661 158.942591 
L 345.704793 156.320742 
L 346.551271 153.575506 
L 347.404773 150.712248 
L 348.264981 147.736332 
L 349.131575 144.653122 
L 350.004237 141.467984 
L 350.882647 138.186283 
L 351.766485 134.813382 
L 352.655432 131.354646 
L 353.549169 127.815441 
L 354.447377 124.201131 
L 355.349736 120.51708 
L 356.255927 116.768653 
L 357.16563 112.961215 
L 358.078527 109.10013 
L 358.994297 105.190763 
L 359.912623 101.238479 
L 360.833183 97.248643 
L 361.755659 93.226618 
L 362.679733 89.17777 
L 363.605083 85.107464 
L 364.531391 81.021064 
L 365.458338 76.923934 
L 366.385604 72.82144 
" clip-path="url(#pe4235bd875)" style="fill: none; stroke: #000000; stroke-width: 2; stroke-linecap: round"></path>
   </g>
   <g id="line2d_7">
    <g clip-path="url(#pe4235bd875)">
     <use xlink:href="#mb4fc712a96" x="320.483291" y="72.82144" style="fill: #ff0000; stroke: #ff0000"></use>
     <use xlink:href="#mb4fc712a96" x="320.483291" y="147.412697" style="fill: #ff0000; stroke: #ff0000"></use>
     <use xlink:href="#mb4fc712a96" x="337.696657" y="176.101641" style="fill: #ff0000; stroke: #ff0000"></use>
     <use xlink:href="#mb4fc712a96" x="366.385604" y="72.82144" style="fill: #ff0000; stroke: #ff0000"></use>
    </g>
   </g>
  </g>
 </g>
 <defs>
  <clipPath id="pe4235bd875">
   <rect x="7.2" y="7.2" width="446.4" height="181.358008"></rect>
  </clipPath>
 </defs>
</svg>
