<?xml version="1.0" encoding="UTF-8" standalone="no"?>
                <!DOCTYPE svg PUBLIC "-//W3C//DTD SVG 1.1//EN" "http://www.w3.org/Graphics/SVG/1.1/DTD/svg11.dtd">
                <svg class="d-flex" id="output" viewBox="-2.4000000000000004 -3.568421052631579 8.542105263157897 4.768421052631579" preserveAspectRatio="xMidYMid meet" transform="scale(1, -1) translate(0, -4.768421173095703)" xmlns="http://www.w3.org/2000/svg" xmlns:xlink="http://www.w3.org/1999/xlink"><line x1="-1.2000000000000002" x2="4.942105263157895" y1="-1.4210526315789471" y2="-1.4210526315789471" stroke="grey" stroke-dasharray="0.12, 0.12" stroke-width="0.03"></line><path d="M 0.47368421052631593 0 L 0.4600151583381008 -0.007180938962873149 L 0.4463550329385718 -0.014385310746047321 L 0.43271276111641493 -0.02163654816982354 L 0.4190972696603164 -0.02895808405450283 L 0.40551748535896237 -0.03637335122038622 L 0.3919823350010388 -0.04390578248777472 L 0.3785007453752318 -0.05157881067696938 L 0.3650816432702277 -0.05941586860827119 L 0.35173395547471226 -0.06744038910198119 L 0.3384666087773719 -0.07567580497840043 L 0.3252885299668925 -0.08414554905782988 L 0.31220864583196023 -0.09287305416057058 L 0.2992358831612612 -0.1018817531069236 L 0.28637916874348157 -0.11119507871718992 L 0.2736474293673075 -0.12083646381167056 L 0.2610495918214249 -0.13082934121066656 L 0.24859458289451988 -0.14119714373447895 L 0.23629132937527877 -0.15196330420340873 L 0.22414875805238751 -0.16315125543775694 L 0.21217579571453218 -0.17478443025782464 L 0.20038136915039897 -0.18688626148391274 L 0.188774405148674 -0.19948018193632241 L 0.17736383049804325 -0.2125896244353546 L 0.16615857198719297 -0.22623802180131025 L 0.15516757965165465 -0.2404486848085515 L 0.14440261639527 -0.25523015667281296 L 0.13388090813058168 -0.27056229981414853 L 0.12362030843496194 -0.2864216814122571 L 0.11363867088578299 -0.3027848686468376 L 0.10395384906041696 -0.3196284286975892 L 0.09458369653623612 -0.33692892874421076 L 0.08554606689061267 -0.35466293596640125 L 0.07685881370091881 -0.3728070175438596 L 0.06853979054452675 -0.3913377406562849 L 0.0606068509988087 -0.4102316724833761 L 0.05307784864113692 -0.42946538020483205 L 0.04597063704888354 -0.44901543100035185 L 0.03930306979942078 -0.4688583920496344 L 0.03309300047012088 -0.4889708305323788 L 0.027358282638356025 -0.509329313628284 L 0.022116769881498438 -0.529910408517049 L 0.017386315776920347 -0.5506906823783725 L 0.013184773901993917 -0.5716467023919537 L 0.009529997834091381 -0.5927550357374918 L 0.006439841150584928 -0.6139922495946852 L 0.0039321574288467935 -0.6353349111432333 L 0.002024800246249181 -0.656759587562835 L 0.0007356231801642493 -0.6782428460331893 L 0.00008247980796428911 -0.699761253733995 L 0.00008247980796431899 -0.7212913778449515 L 0.0007356231801642926 -0.7428097855457574 L 0.0020248002462491884 -0.7642930440161116 L 0.003932157428846803 -0.7857177204357132 L 0.006439841150584957 -0.8070603819842616 L 0.009529997834091388 -0.828297595841455 L 0.013184773901993956 -0.8494059291869931 L 0.017386315776920368 -0.8703619492005744 L 0.02211676988149846 -0.8911422230618978 L 0.027358282638356077 -0.9117233179506629 L 0.033093000470120905 -0.9320818010465678 L 0.039303069799420845 -0.9521942395293124 L 0.045970637048883566 -0.972037200578595 L 0.05307784864113701 -0.991587251374115 L 0.060606850998808796 -1.010820959095571 L 0.06853979054452679 -1.029714890922662 L 0.0768588137009189 -1.0482456140350875 L 0.08554606689061271 -1.0663896956125458 L 0.09458369653623622 -1.0841237028347364 L 0.10395384906041703 -1.101424202881358 L 0.11363867088578311 -1.1182677629321094 L 0.12362030843496205 -1.13463095016669 L 0.13388090813058176 -1.1504903317647988 L 0.14440261639527013 -1.1658224749061343 L 0.15516757965165473 -1.1806039467703955 L 0.16615857198719305 -1.1948146097776369 L 0.17736383049804333 -1.2084630071435927 L 0.18877440514867397 -1.2215724496426248 L 0.2003813691503991 -1.2341663700950345 L 0.2121757957145322 -1.2462682013211228 L 0.2241487580523876 -1.2579013761411901 L 0.23629132937527883 -1.2690893273755386 L 0.24859458289452005 -1.2798554878444683 L 0.26104959182142495 -1.2902232903682809 L 0.27364742936730746 -1.3002161677672768 L 0.28637916874348174 -1.3098575528617573 L 0.2992358831612613 -1.3191708784720237 L 0.3122086458319604 -1.3281795774183767 L 0.32528852996689256 -1.3369070825211176 L 0.338466608777372 -1.3453768266005468 L 0.3517339554747124 -1.353612242476966 L 0.36508164327022774 -1.361636762970676 L 0.378500745375232 -1.3694738209019781 L 0.39198233500103885 -1.3771468490911727 L 0.40551748535896254 -1.384679280358561 L 0.4190972696603165 -1.3920945475244444 L 0.432712761116415 -1.3994160834091236 L 0.4463550329385719 -1.4066673208329 L 0.46001515833810086 -1.413871692616074 L 0.47368421052631593 -1.4210526315789471" stroke="black" stroke-width="0.03" fill="none" stroke-linecap="round"></path><circle cx="0.47368421052631593" cy="0" r="0.03" fill="red"></circle><circle cx="0.1578947368421051" cy="-0.23684210526315796" r="0.03" fill="red"></circle><circle cx="0" cy="-0.7105263157894732" r="0.03" fill="red"></circle><circle cx="0.1578947368421051" cy="-1.1842105263157892" r="0.03" fill="red"></circle><circle cx="0.47368421052631593" cy="-1.4210526315789471" r="0.03" fill="red"></circle><path d="M 1.910526315789474 -1.8157894736842102 L 1.9019151936942285 -1.8149905609670722 L 1.8933119801758345 -1.8141828609423212 L 1.8847245838111435 -1.8133575863023446 L 1.8761609131770074 -1.812505949739529 L 1.8676288768502778 -1.8116191639462624 L 1.8591363834078063 -1.8106884416149311 L 1.850691341426444 -1.8097049954379225 L 1.842301659483043 -1.8086600381076237 L 1.833975246154455 -1.807544782316422 L 1.825720010017531 -1.806350440756704 L 1.8175438596491231 -1.8050682261208573 L 1.8094547036260826 -1.8036893511012688 L 1.8014604505252618 -1.802205028390326 L 1.7935690089235112 -1.8006064706804155 L 1.7857882873976831 -1.7988848906639248 L 1.7781261945246287 -1.7970315010332407 L 1.7705906388812003 -1.7950375144807504 L 1.7631895290442487 -1.792894143698841 L 1.755930773590626 -1.7905926013798998 L 1.7488222810971836 -1.788124100216314 L 1.741871960140773 -1.78547985290047 L 1.735087719298246 -1.782651072124756 L 1.7284774671464538 -1.7796289705815582 L 1.7220491122622488 -1.7764047609632643 L 1.7158105632224818 -1.7729696559622612 L 1.7097697286040046 -1.7693148682709359 L 1.7039345169836693 -1.7654316105816754 L 1.6983128369383267 -1.7613110955868674 L 1.6929125970448287 -1.7569445359788984 L 1.687741705880027 -1.752323144450156 L 1.6828080720207734 -1.7474381336930267 L 1.6781196040439192 -1.7422807163998981 L 1.673684210526316 -1.7368421052631575 L 1.6695084819486736 -1.7311179066289981 L 1.6655937364071338 -1.7251213014588391 L 1.6619399739016967 -1.7188698643679066 L 1.6585471944323622 -1.7123811699714262 L 1.6554153979991304 -1.7056727928846236 L 1.6525445846020013 -1.6987623077227247 L 1.6499347542409746 -1.6916672891009554 L 1.6475859069160508 -1.6844053116345412 L 1.6454980426272294 -1.676993949938708 L 1.643671161374511 -1.6694507786286816 L 1.6421052631578952 -1.6617933723196878 L 1.6408003479773818 -1.6540393056269518 L 1.6397564158329712 -1.6462061531657004 L 1.6389734667246632 -1.6383114895511586 L 1.6384515006524578 -1.6303728893985523 L 1.6381905176163551 -1.6224079273231073 L 1.6381905176163551 -1.6144341779400497 L 1.6384515006524578 -1.6064692158646046 L 1.6389734667246634 -1.5985306157119985 L 1.6397564158329712 -1.5906359520974567 L 1.6408003479773818 -1.5828027996362048 L 1.642105263157895 -1.5750487329434693 L 1.643671161374511 -1.5673913266344752 L 1.6454980426272294 -1.559848155324449 L 1.6475859069160508 -1.5524367936286156 L 1.6499347542409748 -1.5451748161622014 L 1.6525445846020013 -1.5380797975404321 L 1.6554153979991304 -1.5311693123785333 L 1.6585471944323622 -1.5244609352917309 L 1.6619399739016967 -1.5179722408952503 L 1.6655937364071338 -1.511720803804318 L 1.6695084819486739 -1.5057241986341587 L 1.673684210526316 -1.4999999999999996 L 1.6781196040439192 -1.494561388863259 L 1.6828080720207736 -1.4894039715701302 L 1.6877417058800275 -1.4845189608130014 L 1.692912597044829 -1.4798975692842586 L 1.6983128369383265 -1.4755310096762897 L 1.703934516983669 -1.4714104946814817 L 1.7097697286040046 -1.4675272369922214 L 1.7158105632224818 -1.463872449300896 L 1.7220491122622488 -1.4604373442998928 L 1.7284774671464542 -1.4572131346815986 L 1.735087719298246 -1.4541910331384011 L 1.7418719601407728 -1.4513622523626868 L 1.7488222810971834 -1.4487180050468431 L 1.755930773590626 -1.4462495038832575 L 1.7631895290442487 -1.4439479615643163 L 1.7705906388812003 -1.4418045907824069 L 1.7781261945246292 -1.4398106042299166 L 1.7857882873976831 -1.4379572145992325 L 1.7935690089235112 -1.4362356345827416 L 1.8014604505252616 -1.4346370768728312 L 1.8094547036260828 -1.4331527541618883 L 1.8175438596491231 -1.4317738791423 L 1.8257200100175313 -1.4304916645064532 L 1.833975246154455 -1.4292973229467354 L 1.8423016594830428 -1.4281820671555336 L 1.850691341426444 -1.4271371098252348 L 1.859136383407806 -1.4261536636482262 L 1.8676288768502778 -1.4252229413168949 L 1.8761609131770076 -1.424336155523628 L 1.8847245838111437 -1.4234845189608127 L 1.8933119801758345 -1.4226592443208361 L 1.9019151936942285 -1.421851544296085 L 1.910526315789474 -1.4210526315789471" stroke="black" stroke-width="0.03" fill="none" stroke-linecap="round"></path><circle cx="1.910526315789474" cy="-1.8157894736842102" r="0.03" fill="red"></circle><circle cx="1.673684210526316" cy="-1.7368421052631575" r="0.03" fill="red"></circle><circle cx="1.673684210526316" cy="-1.4999999999999996" r="0.03" fill="red"></circle><circle cx="1.910526315789474" cy="-1.4210526315789471" r="0.03" fill="red"></circle><path d="M 3.1105263157894742 -0.9473684210526312 L 3.1089328840090045 -0.9799029881239534 L 3.107348239536148 -1.012429646618424 L 3.105781169678517 -1.0449404879591915 L 3.1042404617437245 -1.0774276035694041 L 3.1027349030393836 -1.10988308487221 L 3.101273280873108 -1.1422990232907584 L 3.0998643825525085 -1.1746675102481972 L 3.0985169953851996 -1.2069806371676746 L 3.097239906678794 -1.2392304954723394 L 3.096041903740904 -1.27140917658534 L 3.094931773879143 -1.3035087719298242 L 3.0939183044011234 -1.3355213729289412 L 3.093010282614459 -1.3674390710058388 L 3.0922164958267615 -1.399253957583666 L 3.0915457313456445 -1.4309581240855704 L 3.0910067764787215 -1.4625436619347012 L 3.0906084185336042 -1.4940026625542064 L 3.0903594448179055 -1.5253272173672345 L 3.090268642639239 -1.5565094177969339 L 3.0903447993052175 -1.5875413552664528 L 3.0905967021234533 -1.61841512119894 L 3.09103313840156 -1.6491228070175437 L 3.09166289544715 -1.6796565041454121 L 3.092494760567836 -1.710008304005694 L 3.093537521071232 -1.7401702980215374 L 3.0947999642649497 -1.770134577616091 L 3.0962908774566023 -1.7998932342125034 L 3.098019047953803 -1.8294383592339223 L 3.0999932630641642 -1.8587620441034967 L 3.102222310095299 -1.8878563802443749 L 3.1047149763548205 -1.916713459079705 L 3.107480049150341 -1.945325372032636 L 3.1105263157894742 -1.9736842105263157 L 3.1138603667529297 -2.001772399945519 L 3.117480005213803 -2.029533701521522 L 3.121380837518289 -2.05690221044723 L 3.125558470012581 -2.083812021915545 L 3.1300085090428724 -2.110197231119371 L 3.1347265609553565 -2.1359919332516113 L 3.1397082320962273 -2.1611302235051686 L 3.144949128811678 -2.1855461970729477 L 3.1504448574479027 -2.209173949147851 L 3.1561910243510947 -2.2319475749227813 L 3.162183235867447 -2.2538011695906435 L 3.168417098343154 -2.274668828344339 L 3.1748882181244085 -2.294484646376773 L 3.1815922015574043 -2.313182718880848 L 3.1885246549883357 -2.330697141049468 L 3.195681184763395 -2.3469620080755353 L 3.203057397228777 -2.3619114151519542 L 3.2106488987306743 -2.3754794574716276 L 3.2184512956152806 -2.3876002302274593 L 3.2264601942287903 -2.3982078286123523 L 3.2346712009173957 -2.4072363478192096 L 3.2430799220272912 -2.414619883040935 L 3.2516819639046703 -2.4202925294704327 L 3.260472932895726 -2.424188382300605 L 3.2694484353466526 -2.426241536724355 L 3.2786040776036436 -2.426386087934587 L 3.287935466012892 -2.424556131124204 L 3.2974382069205914 -2.420685761486109 L 3.307107906672935 -2.4147090742132065 L 3.3169401716161184 -2.4065601644983983 L 3.3269306080963332 -2.3961731275345888 L 3.337074822459773 -2.3834820585146814 L 3.347368421052632 -2.3684210526315788 L 3.3578070102211037 -2.350947491443359 L 3.368386196311382 -2.3311119019687956 L 3.3791015856696593 -2.3089880975918375 L 3.3899487846421303 -2.2846498916964335 L 3.4009233995749883 -2.25817109766653 L 3.412021036814426 -2.2296255288860767 L 3.423237302706638 -2.1990869987390207 L 3.4345678035978175 -2.166629320609311 L 3.446008145834158 -2.1323263078808963 L 3.457553935761853 -2.0962517739377238 L 3.469200779727096 -2.0584795321637426 L 3.4809442840760814 -2.0190833959428995 L 3.4927800551550012 -1.9781371786591444 L 3.5047036993100504 -1.935714693696424 L 3.516710822887422 -1.8918897544386881 L 3.5287970322333093 -1.8467361742698838 L 3.5409579336939063 -1.8003277665739599 L 3.5531891336154064 -1.7527383447348646 L 3.5654862383440036 -1.704041722136545 L 3.5778448542258903 -1.6543117121629511 L 3.5902605876072604 -1.6036221281980299 L 3.6027290448343083 -1.5520467836257303 L 3.615245832253227 -1.4996594918299997 L 3.6278065562102104 -1.4465340661947874 L 3.6404068230514515 -1.3927443201040413 L 3.6530422391231445 -1.3383640669417085 L 3.665708410771482 -1.283467120091739 L 3.678400944342659 -1.2281272929380793 L 3.6911154461828675 -1.172418398864679 L 3.7038475226383016 -1.116414251255486 L 3.716592780055156 -1.0601886634944477 L 3.7293468247796224 -1.0038154489655133 L 3.742105263157895 -0.9473684210526312" stroke="black" stroke-width="0.03" fill="none" stroke-linecap="round"></path><circle cx="3.1105263157894742" cy="-0.9473684210526312" r="0.03" fill="red"></circle><circle cx="3.1105263157894742" cy="-1.9736842105263155" r="0.03" fill="red"></circle><circle cx="3.347368421052632" cy="-2.3684210526315788" r="0.03" fill="red"></circle><circle cx="3.742105263157895" cy="-0.9473684210526312" r="0.03" fill="red"></circle></svg>