<?xml version="1.0" encoding="UTF-8" standalone="no"?>
                <!DOCTYPE svg PUBLIC "-//W3C//DTD SVG 1.1//EN" "http://www.w3.org/Graphics/SVG/1.1/DTD/svg11.dtd">
                <svg class="d-flex" id="output" viewBox="-2.4000000000000004 -1.910526315789474 7.736842105263159 3.1105263157894742" preserveAspectRatio="xMidYMid meet" transform="scale(1, -1) translate(0, -3.1105263233184814)" xmlns="http://www.w3.org/2000/svg" xmlns:xlink="http://www.w3.org/1999/xlink"><line x1="-1.2000000000000002" x2="4.136842105263158" y1="-0.7105263157894739" y2="-0.7105263157894739" stroke="grey" stroke-dasharray="0.12, 0.12" stroke-width="0.03"></line><path d="M 0 -0.7105263157894739 L 0.0031897926634768775 -0.7057416267942586 L 0.006379585326953755 -0.7009569377990432 L 0.009569377990430632 -0.696172248803828 L 0.01275917065390751 -0.6913875598086127 L 0.015948963317384386 -0.6866028708133973 L 0.019138755980861264 -0.681818181818182 L 0.022328548644338145 -0.6770334928229667 L 0.02551834130781502 -0.6722488038277514 L 0.028708133971291894 -0.6674641148325361 L 0.03189792663476877 -0.6626794258373208 L 0.035087719298245654 -0.6578947368421054 L 0.03827751196172253 -0.6531100478468901 L 0.04146730462519941 -0.6483253588516749 L 0.04465709728867629 -0.6435406698564595 L 0.04784688995215316 -0.6387559808612442 L 0.05103668261563004 -0.6339712918660289 L 0.05422647527910692 -0.6291866028708135 L 0.05741626794258379 -0.6244019138755983 L 0.06060606060606067 -0.619617224880383 L 0.06379585326953754 -0.6148325358851676 L 0.06698564593301443 -0.6100478468899523 L 0.07017543859649131 -0.6052631578947371 L 0.07336523125996819 -0.6004784688995217 L 0.07655502392344506 -0.5956937799043064 L 0.07974481658692194 -0.590909090909091 L 0.08293460925039882 -0.5861244019138757 L 0.0861244019138757 -0.5813397129186604 L 0.08931419457735258 -0.5765550239234452 L 0.09250398724082944 -0.5717703349282298 L 0.09569377990430632 -0.5669856459330145 L 0.0988835725677832 -0.5622009569377993 L 0.10207336523126008 -0.5574162679425839 L 0.10526315789473696 -0.5526315789473686 L 0.10845295055821384 -0.5478468899521532 L 0.11164274322169072 -0.5430622009569379 L 0.11483253588516758 -0.5382775119617227 L 0.11802232854864446 -0.5334928229665074 L 0.12121212121212134 -0.528708133971292 L 0.12440191387559822 -0.5239234449760767 L 0.1275917065390751 -0.5191387559808613 L 0.13078149920255197 -0.5143540669856461 L 0.13397129186602885 -0.5095693779904308 L 0.13716108452950573 -0.5047846889952154 L 0.14035087719298261 -0.5000000000000001 L 0.1435406698564595 -0.4952153110047848 L 0.14673046251993638 -0.4904306220095695 L 0.14992025518341326 -0.4856459330143542 L 0.1531100478468901 -0.4808612440191389 L 0.156299840510367 -0.47607655502392354 L 0.15948963317384388 -0.47129186602870826 L 0.16267942583732076 -0.4665071770334929 L 0.16586921850079764 -0.46172248803827765 L 0.1690590111642745 -0.4569377990430623 L 0.1722488038277514 -0.452153110047847 L 0.17543859649122825 -0.4473684210526317 L 0.17862838915470516 -0.44258373205741636 L 0.18181818181818202 -0.4377990430622011 L 0.18500797448165887 -0.4330143540669858 L 0.18819776714513578 -0.4282296650717704 L 0.19138755980861263 -0.4234449760765551 L 0.19457735247208954 -0.4186602870813398 L 0.1977671451355664 -0.4138755980861245 L 0.2009569377990433 -0.40909090909090917 L 0.20414673046252016 -0.4043062200956939 L 0.207336523125997 -0.39952153110047856 L 0.21052631578947392 -0.3947368421052632 L 0.21371610845295078 -0.38995215311004794 L 0.21690590111642769 -0.3851674641148326 L 0.22009569377990454 -0.3803827751196173 L 0.22328548644338145 -0.375598086124402 L 0.2264752791068583 -0.3708133971291867 L 0.22966507177033516 -0.36602870813397137 L 0.23285486443381206 -0.36124401913875603 L 0.23604465709728892 -0.35645933014354075 L 0.23923444976076583 -0.3516746411483254 L 0.24242424242424268 -0.34688995215311014 L 0.24561403508771953 -0.34210526315789486 L 0.24880382775119644 -0.33732057416267947 L 0.2519936204146733 -0.3325358851674642 L 0.2551834130781502 -0.32775119617224885 L 0.2583732057416271 -0.32296650717703357 L 0.26156299840510394 -0.31818181818181823 L 0.26475279106858085 -0.31339712918660295 L 0.2679425837320577 -0.3086124401913876 L 0.2711323763955346 -0.3038277511961723 L 0.27432216905901147 -0.299043062200957 L 0.2775119617224884 -0.29425837320574166 L 0.28070175438596523 -0.2894736842105264 L 0.2838915470494421 -0.28468899521531105 L 0.287081339712919 -0.2799043062200957 L 0.29027113237639585 -0.27511961722488043 L 0.29346092503987276 -0.2703349282296651 L 0.2966507177033496 -0.2655502392344498 L 0.2998405103668265 -0.2607655502392345 L 0.30303030303030337 -0.2559808612440192 L 0.3062200956937802 -0.25119617224880386 L 0.30940988835725713 -0.24641148325358853 L 0.312599681020734 -0.24162679425837325 L 0.31578947368421084 -0.23684210526315796" stroke="black" stroke-width="0.03" fill="none" stroke-linecap="round"></path><circle cx="0" cy="-0.7105263157894739" r="0.03" fill="red"></circle><circle cx="0.31578947368421084" cy="-0.23684210526315796" r="0.03" fill="red"></circle><path d="M 0.31578947368421084 0" stroke="black" stroke-width="0.03" fill="none" stroke-linecap="round"></path><circle cx="0.31578947368421084" cy="0" r="0.03" fill="red"></circle><path d="M 0.31578947368421084 -0.23684210526315796" stroke="black" stroke-width="0.03" fill="none" stroke-linecap="round"></path><circle cx="0.31578947368421084" cy="-0.23684210526315796" r="0.03" fill="red"></circle><path d="M 1.515789473684211 -0.7105263157894739 L 1.530143540669857 -0.7105263157894739 L 1.5444976076555028 -0.7105263157894739 L 1.5588516746411487 -0.7105263157894739 L 1.5732057416267948 -0.7105263157894739 L 1.5875598086124407 -0.7105263157894739 L 1.6019138755980866 -0.7105263157894739 L 1.6162679425837325 -0.7105263157894739 L 1.6306220095693784 -0.7105263157894739 L 1.6449760765550243 -0.7105263157894739 L 1.6593301435406704 -0.7105263157894739 L 1.6736842105263163 -0.7105263157894739 L 1.6880382775119622 -0.7105263157894739 L 1.7023923444976081 -0.7105263157894739 L 1.716746411483254 -0.7105263157894739 L 1.7311004784689 -0.7105263157894739 L 1.745454545454546 -0.7105263157894739 L 1.759808612440192 -0.7105263157894739 L 1.7741626794258378 -0.7105263157894739 L 1.7885167464114837 -0.7105263157894739 L 1.8028708133971296 -0.7105263157894739 L 1.8172248803827755 -0.7105263157894739 L 1.8315789473684214 -0.7105263157894739 L 1.8459330143540675 -0.7105263157894739 L 1.8602870813397134 -0.7105263157894739 L 1.8746411483253593 -0.7105263157894739 L 1.8889952153110052 -0.7105263157894739 L 1.9033492822966511 -0.7105263157894739 L 1.9177033492822972 -0.7105263157894739 L 1.9320574162679431 -0.7105263157894739 L 1.946411483253589 -0.7105263157894739 L 1.960765550239235 -0.7105263157894739 L 1.9751196172248808 -0.7105263157894739 L 1.9894736842105267 -0.7105263157894739 L 2.0038277511961726 -0.7105263157894739 L 2.0181818181818185 -0.7105263157894739 L 2.0325358851674644 -0.7105263157894739 L 2.0468899521531103 -0.7105263157894739 L 2.0612440191387567 -0.7105263157894739 L 2.075598086124402 -0.7105263157894739 L 2.0899521531100484 -0.7105263157894739 L 2.1043062200956943 -0.7105263157894739 L 2.1186602870813402 -0.7105263157894739 L 2.133014354066986 -0.7105263157894739 L 2.147368421052632 -0.7105263157894739 L 2.161722488038278 -0.7105263157894739 L 2.176076555023924 -0.7105263157894739 L 2.1904306220095697 -0.7105263157894739 L 2.2047846889952156 -0.7105263157894739 L 2.2191387559808615 -0.7105263157894739 L 2.2334928229665074 -0.7105263157894739 L 2.2478468899521538 -0.7105263157894739 L 2.262200956937799 -0.7105263157894739 L 2.2765550239234456 -0.7105263157894739 L 2.2909090909090915 -0.7105263157894739 L 2.3052631578947373 -0.7105263157894739 L 2.3196172248803832 -0.7105263157894739 L 2.333971291866029 -0.7105263157894739 L 2.348325358851675 -0.7105263157894739 L 2.362679425837321 -0.7105263157894739 L 2.377033492822967 -0.7105263157894739 L 2.3913875598086127 -0.7105263157894739 L 2.4057416267942586 -0.7105263157894739 L 2.4200956937799045 -0.7105263157894739 L 2.434449760765551 -0.7105263157894739 L 2.4488038277511963 -0.7105263157894739 L 2.4631578947368427 -0.7105263157894739 L 2.4775119617224886 -0.7105263157894739 L 2.4918660287081345 -0.7105263157894739 L 2.5062200956937803 -0.7105263157894739 L 2.5205741626794262 -0.7105263157894739 L 2.534928229665072 -0.7105263157894739 L 2.549282296650718 -0.7105263157894739 L 2.5636363636363644 -0.7105263157894739 L 2.57799043062201 -0.7105263157894739 L 2.592344497607656 -0.7105263157894739 L 2.6066985645933016 -0.7105263157894739 L 2.621052631578948 -0.7105263157894739 L 2.6354066985645934 -0.7105263157894739 L 2.6497607655502398 -0.7105263157894739 L 2.6641148325358857 -0.7105263157894739 L 2.6784688995215316 -0.7105263157894739 L 2.6928229665071775 -0.7105263157894739 L 2.7071770334928233 -0.7105263157894739 L 2.7215311004784692 -0.7105263157894739 L 2.735885167464115 -0.7105263157894739 L 2.750239234449761 -0.7105263157894739 L 2.764593301435407 -0.7105263157894739 L 2.7789473684210533 -0.7105263157894739 L 2.7933014354066987 -0.7105263157894739 L 2.807655502392345 -0.7105263157894739 L 2.8220095693779905 -0.7105263157894739 L 2.836363636363637 -0.7105263157894739 L 2.8507177033492823 -0.7105263157894739 L 2.8650717703349287 -0.7105263157894739 L 2.8794258373205746 -0.7105263157894739 L 2.8937799043062205 -0.7105263157894739 L 2.9081339712918663 -0.7105263157894739 L 2.9224880382775122 -0.7105263157894739 L 2.936842105263158 -0.7105263157894739" stroke="black" stroke-width="0.03" fill="none" stroke-linecap="round"></path><circle cx="1.515789473684211" cy="-0.7105263157894739" r="0.03" fill="red"></circle><circle cx="2.936842105263158" cy="-0.7105263157894739" r="0.03" fill="red"></circle><path d="M 2.4631578947368427 -0.23684210526315796 L 2.467942583732058 -0.23684210526315796 L 2.472727272727273 -0.23684210526315796 L 2.4775119617224886 -0.23684210526315796 L 2.482296650717704 -0.23684210526315796 L 2.487081339712919 -0.23684210526315796 L 2.4918660287081345 -0.23684210526315796 L 2.49665071770335 -0.23684210526315796 L 2.5014354066985653 -0.23684210526315796 L 2.5062200956937803 -0.23684210526315796 L 2.511004784688996 -0.23684210526315796 L 2.5157894736842112 -0.23684210526315796 L 2.5205741626794262 -0.23684210526315796 L 2.5253588516746417 -0.23684210526315796 L 2.530143540669857 -0.23684210526315796 L 2.534928229665072 -0.23684210526315796 L 2.5397129186602876 -0.23684210526315796 L 2.544497607655503 -0.23684210526315796 L 2.549282296650718 -0.23684210526315796 L 2.5540669856459335 -0.23684210526315796 L 2.558851674641149 -0.23684210526315796 L 2.563636363636364 -0.23684210526315796 L 2.5684210526315794 -0.23684210526315796 L 2.573205741626795 -0.23684210526315796 L 2.57799043062201 -0.23684210526315796 L 2.5827751196172253 -0.23684210526315796 L 2.5875598086124407 -0.23684210526315796 L 2.592344497607656 -0.23684210526315796 L 2.597129186602871 -0.23684210526315796 L 2.6019138755980866 -0.23684210526315796 L 2.606698564593302 -0.23684210526315796 L 2.611483253588517 -0.23684210526315796 L 2.6162679425837325 -0.23684210526315796 L 2.621052631578948 -0.23684210526315796 L 2.625837320574163 -0.23684210526315796 L 2.6306220095693784 -0.23684210526315796 L 2.635406698564594 -0.23684210526315796 L 2.640191387559809 -0.23684210526315796 L 2.6449760765550243 -0.23684210526315796 L 2.6497607655502398 -0.23684210526315796 L 2.654545454545455 -0.23684210526315796 L 2.65933014354067 -0.23684210526315796 L 2.6641148325358857 -0.23684210526315796 L 2.668899521531101 -0.23684210526315796 L 2.673684210526316 -0.23684210526315796 L 2.6784688995215316 -0.23684210526315796 L 2.683253588516747 -0.23684210526315796 L 2.688038277511962 -0.23684210526315796 L 2.6928229665071775 -0.23684210526315796 L 2.697607655502393 -0.23684210526315796 L 2.702392344497608 -0.23684210526315796 L 2.7071770334928233 -0.23684210526315796 L 2.711961722488039 -0.23684210526315796 L 2.716746411483254 -0.23684210526315796 L 2.7215311004784692 -0.23684210526315796 L 2.7263157894736847 -0.23684210526315796 L 2.7311004784688997 -0.23684210526315796 L 2.735885167464115 -0.23684210526315796 L 2.7406698564593306 -0.23684210526315796 L 2.745454545454546 -0.23684210526315796 L 2.750239234449761 -0.23684210526315796 L 2.7550239234449765 -0.23684210526315796 L 2.759808612440192 -0.23684210526315796 L 2.764593301435407 -0.23684210526315796 L 2.7693779904306224 -0.23684210526315796 L 2.774162679425838 -0.23684210526315796 L 2.778947368421053 -0.23684210526315796 L 2.7837320574162683 -0.23684210526315796 L 2.7885167464114837 -0.23684210526315796 L 2.7933014354066987 -0.23684210526315796 L 2.798086124401914 -0.23684210526315796 L 2.8028708133971296 -0.23684210526315796 L 2.807655502392345 -0.23684210526315796 L 2.81244019138756 -0.23684210526315796 L 2.8172248803827755 -0.23684210526315796 L 2.822009569377991 -0.23684210526315796 L 2.826794258373206 -0.23684210526315796 L 2.8315789473684214 -0.23684210526315796 L 2.836363636363637 -0.23684210526315796 L 2.841148325358852 -0.23684210526315796 L 2.8459330143540673 -0.23684210526315796 L 2.8507177033492828 -0.23684210526315796 L 2.8555023923444978 -0.23684210526315796 L 2.860287081339713 -0.23684210526315796 L 2.8650717703349287 -0.23684210526315796 L 2.869856459330144 -0.23684210526315796 L 2.874641148325359 -0.23684210526315796 L 2.8794258373205746 -0.23684210526315796 L 2.8842105263157896 -0.23684210526315796 L 2.888995215311005 -0.23684210526315796 L 2.8937799043062205 -0.23684210526315796 L 2.898564593301436 -0.23684210526315796 L 2.903349282296651 -0.23684210526315796 L 2.9081339712918663 -0.23684210526315796 L 2.912918660287082 -0.23684210526315796 L 2.917703349282297 -0.23684210526315796 L 2.9224880382775122 -0.23684210526315796 L 2.9272727272727277 -0.23684210526315796 L 2.9320574162679427 -0.23684210526315796 L 2.936842105263158 -0.23684210526315796" stroke="black" stroke-width="0.03" fill="none" stroke-linecap="round"></path><circle cx="2.4631578947368427" cy="-0.23684210526315796" r="0.03" fill="red"></circle><circle cx="2.936842105263158" cy="-0.23684210526315796" r="0.03" fill="red"></circle><path d="M 2.936842105263158 -0.7105263157894739" stroke="black" stroke-width="0.03" fill="none" stroke-linecap="round"></path><circle cx="2.936842105263158" cy="-0.7105263157894739" r="0.03" fill="red"></circle></svg>