<!--?xml version="1.0" encoding="utf-8" standalone="no"?-->

<svg xmlns:xlink="http://www.w3.org/1999/xlink" width="460.8pt" height="65.247336pt" viewBox="0 0 460.8 65.247336" xmlns="http://www.w3.org/2000/svg" version="1.1">
 <metadata>
  <rdf:rdf xmlns:dc="http://purl.org/dc/elements/1.1/" xmlns:cc="http://creativecommons.org/ns#" xmlns:rdf="http://www.w3.org/1999/02/22-rdf-syntax-ns#">
   <cc:work>
    <dc:type rdf:resource="http://purl.org/dc/dcmitype/StillImage"></dc:type>
    <dc:date>2024-10-03T15:11:02.663841</dc:date>
    <dc:format>image/svg+xml</dc:format>
    <dc:creator>
     <cc:agent>
      <dc:title>Matplotlib v3.9.1.post1, https://matplotlib.org/</dc:title>
     </cc:agent>
    </dc:creator>
   </cc:work>
  </rdf:rdf>
 </metadata>
 <defs>
  <style type="text/css">*{stroke-linejoin: round; stroke-linecap: butt}</style>
 </defs>
 <g id="figure_1">
  <g id="patch_1">
   <path d="M 0 65.247336 
L 460.8 65.247336 
L 460.8 0 
L 0 0 
z
" style="fill: #ffffff"></path>
  </g>
  <g id="axes_1">
   <g id="line2d_1">
    <path d="M 7.2 55.736094 
L 453.6 55.736094 
" clip-path="url(#p4c417a8c41)" style="fill: none; stroke-dasharray: 5.55,2.4; stroke-dashoffset: 0; stroke: #d3d3d3; stroke-width: 1.5"></path>
   </g>
   <g id="line2d_2">
    <path d="M 107.573964 55.736094 
L 107.840774 55.402581 
L 108.107584 55.069068 
L 108.374394 54.735556 
L 108.641204 54.402043 
L 108.908014 54.06853 
L 109.174825 53.735018 
L 109.441635 53.401505 
L 109.708445 53.067993 
L 109.975255 52.73448 
L 110.242065 52.400967 
L 110.508875 52.067455 
L 110.775685 51.733942 
L 111.042495 51.400429 
L 111.309305 51.066917 
L 111.576116 50.733404 
L 111.842926 50.399891 
L 112.109736 50.066379 
L 112.376546 49.732866 
L 112.643356 49.399353 
L 112.910166 49.065841 
L 113.176976 48.732328 
L 113.443786 48.398815 
L 113.710596 48.065303 
L 113.977407 47.73179 
L 114.244217 47.398277 
L 114.511027 47.064765 
L 114.777837 46.731252 
L 115.044647 46.39774 
L 115.311457 46.064227 
L 115.578267 45.730714 
L 115.845077 45.397202 
L 116.111887 45.063689 
L 116.378698 44.730176 
L 116.645508 44.396664 
L 116.912318 44.063151 
L 117.179128 43.729638 
L 117.445938 43.396126 
L 117.712748 43.062613 
L 117.979558 42.7291 
L 118.246368 42.395588 
L 118.513178 42.062075 
L 118.779989 41.728562 
L 119.046799 41.39505 
L 119.313609 41.061537 
L 119.580419 40.728024 
L 119.847229 40.394512 
L 120.114039 40.060999 
L 120.380849 39.727486 
L 120.647659 39.393974 
L 120.914469 39.060461 
L 121.18128 38.726949 
L 121.44809 38.393436 
L 121.7149 38.059923 
L 121.98171 37.726411 
L 122.24852 37.392898 
L 122.51533 37.059385 
L 122.78214 36.725873 
L 123.04895 36.39236 
L 123.315761 36.058847 
L 123.582571 35.725335 
L 123.849381 35.391822 
L 124.116191 35.058309 
L 124.383001 34.724797 
L 124.649811 34.391284 
L 124.916621 34.057771 
L 125.183431 33.724259 
L 125.450241 33.390746 
L 125.717052 33.057233 
L 125.983862 32.723721 
L 126.250672 32.390208 
L 126.517482 32.056696 
L 126.784292 31.723183 
L 127.051102 31.38967 
L 127.317912 31.056158 
L 127.584722 30.722645 
L 127.851532 30.389132 
L 128.118343 30.05562 
L 128.385153 29.722107 
L 128.651963 29.388594 
L 128.918773 29.055082 
L 129.185583 28.721569 
L 129.452393 28.388056 
L 129.719203 28.054544 
L 129.986013 27.721031 
L 130.252823 27.387518 
L 130.519634 27.054006 
L 130.786444 26.720493 
L 131.053254 26.38698 
L 131.320064 26.053468 
L 131.586874 25.719955 
L 131.853684 25.386442 
L 132.120494 25.05293 
L 132.387304 24.719417 
L 132.654114 24.385905 
L 132.920925 24.052392 
L 133.187735 23.718879 
L 133.454545 23.385367 
L 133.721355 23.051854 
L 133.988165 22.718341 
" clip-path="url(#p4c417a8c41)" style="fill: none; stroke: #000000; stroke-width: 2; stroke-linecap: round"></path>
   </g>
   <g id="line2d_3">
    <defs>
     <path id="mcd1b37c2d0" d="M 0 1.5 
C 0.397805 1.5 0.77937 1.341951 1.06066 1.06066 
C 1.341951 0.77937 1.5 0.397805 1.5 0 
C 1.5 -0.397805 1.341951 -0.77937 1.06066 -1.06066 
C 0.77937 -1.341951 0.397805 -1.5 0 -1.5 
C -0.397805 -1.5 -0.77937 -1.341951 -1.06066 -1.06066 
C -1.341951 -0.77937 -1.5 -0.397805 -1.5 0 
C -1.5 0.397805 -1.341951 0.77937 -1.06066 1.06066 
C -0.77937 1.341951 -0.397805 1.5 0 1.5 
z
" style="stroke: #ff0000"></path>
    </defs>
    <g clip-path="url(#p4c417a8c41)">
     <use xlink:href="#mcd1b37c2d0" x="107.573964" y="55.736094" style="fill: #ff0000; stroke: #ff0000"></use>
     <use xlink:href="#mcd1b37c2d0" x="133.988165" y="22.718341" style="fill: #ff0000; stroke: #ff0000"></use>
    </g>
   </g>
   <g id="line2d_4">
    <defs>
     <path id="me436ff86ed" d="M 0 1.05 
C 0.278463 1.05 0.545559 0.939365 0.742462 0.742462 
C 0.939365 0.545559 1.05 0.278463 1.05 0 
C 1.05 -0.278463 0.939365 -0.545559 0.742462 -0.742462 
C 0.545559 -0.939365 0.278463 -1.05 0 -1.05 
C -0.278463 -1.05 -0.545559 -0.939365 -0.742462 -0.742462 
C -0.939365 -0.545559 -1.05 -0.278463 -1.05 0 
C -1.05 0.278463 -0.939365 0.545559 -0.742462 0.742462 
C -0.545559 0.939365 -0.278463 1.05 0 1.05 
z
" style="stroke: #000000"></path>
    </defs>
    <g clip-path="url(#p4c417a8c41)">
     <use xlink:href="#me436ff86ed" x="133.988165" y="9.511243" style="stroke: #000000"></use>
    </g>
   </g>
   <g id="line2d_5">
    <g clip-path="url(#p4c417a8c41)">
     <use xlink:href="#mcd1b37c2d0" x="133.988165" y="9.511243" style="fill: #ff0000; stroke: #ff0000"></use>
    </g>
   </g>
   <g id="line2d_6">
    <g clip-path="url(#p4c417a8c41)">
     <use xlink:href="#me436ff86ed" x="133.988165" y="22.718341" style="stroke: #000000"></use>
    </g>
   </g>
   <g id="line2d_7">
    <g clip-path="url(#p4c417a8c41)">
     <use xlink:href="#mcd1b37c2d0" x="133.988165" y="22.718341" style="fill: #ff0000; stroke: #ff0000"></use>
    </g>
   </g>
   <g id="line2d_8">
    <path d="M 234.362129 55.736094 
L 235.562774 55.736094 
L 236.76342 55.736094 
L 237.964065 55.736094 
L 239.164711 55.736094 
L 240.365357 55.736094 
L 241.566002 55.736094 
L 242.766648 55.736094 
L 243.967293 55.736094 
L 245.167939 55.736094 
L 246.368584 55.736094 
L 247.56923 55.736094 
L 248.769875 55.736094 
L 249.970521 55.736094 
L 251.171166 55.736094 
L 252.371812 55.736094 
L 253.572457 55.736094 
L 254.773103 55.736094 
L 255.973748 55.736094 
L 257.174394 55.736094 
L 258.375039 55.736094 
L 259.575685 55.736094 
L 260.77633 55.736094 
L 261.976976 55.736094 
L 263.177622 55.736094 
L 264.378267 55.736094 
L 265.578913 55.736094 
L 266.779558 55.736094 
L 267.980204 55.736094 
L 269.180849 55.736094 
L 270.381495 55.736094 
L 271.58214 55.736094 
L 272.782786 55.736094 
L 273.983431 55.736094 
L 275.184077 55.736094 
L 276.384722 55.736094 
L 277.585368 55.736094 
L 278.786013 55.736094 
L 279.986659 55.736094 
L 281.187304 55.736094 
L 282.38795 55.736094 
L 283.588596 55.736094 
L 284.789241 55.736094 
L 285.989887 55.736094 
L 287.190532 55.736094 
L 288.391178 55.736094 
L 289.591823 55.736094 
L 290.792469 55.736094 
L 291.993114 55.736094 
L 293.19376 55.736094 
L 294.394405 55.736094 
L 295.595051 55.736094 
L 296.795696 55.736094 
L 297.996342 55.736094 
L 299.196987 55.736094 
L 300.397633 55.736094 
L 301.598278 55.736094 
L 302.798924 55.736094 
L 303.99957 55.736094 
L 305.200215 55.736094 
L 306.400861 55.736094 
L 307.601506 55.736094 
L 308.802152 55.736094 
L 310.002797 55.736094 
L 311.203443 55.736094 
L 312.404088 55.736094 
L 313.604734 55.736094 
L 314.805379 55.736094 
L 316.006025 55.736094 
L 317.20667 55.736094 
L 318.407316 55.736094 
L 319.607961 55.736094 
L 320.808607 55.736094 
L 322.009252 55.736094 
L 323.209898 55.736094 
L 324.410543 55.736094 
L 325.611189 55.736094 
L 326.811835 55.736094 
L 328.01248 55.736094 
L 329.213126 55.736094 
L 330.413771 55.736094 
L 331.614417 55.736094 
L 332.815062 55.736094 
L 334.015708 55.736094 
L 335.216353 55.736094 
L 336.416999 55.736094 
L 337.617644 55.736094 
L 338.81829 55.736094 
L 340.018935 55.736094 
L 341.219581 55.736094 
L 342.420226 55.736094 
L 343.620872 55.736094 
L 344.821517 55.736094 
L 346.022163 55.736094 
L 347.222809 55.736094 
L 348.423454 55.736094 
L 349.6241 55.736094 
L 350.824745 55.736094 
L 352.025391 55.736094 
L 353.226036 55.736094 
" clip-path="url(#p4c417a8c41)" style="fill: none; stroke: #000000; stroke-width: 2; stroke-linecap: round"></path>
   </g>
   <g id="line2d_9">
    <g clip-path="url(#p4c417a8c41)">
     <use xlink:href="#mcd1b37c2d0" x="234.362129" y="55.736094" style="fill: #ff0000; stroke: #ff0000"></use>
     <use xlink:href="#mcd1b37c2d0" x="353.226036" y="55.736094" style="fill: #ff0000; stroke: #ff0000"></use>
    </g>
   </g>
   <g id="line2d_10">
    <path d="M 313.604729 16.114794 
L 314.004944 16.114794 
L 314.405159 16.114794 
L 314.805374 16.114794 
L 315.20559 16.114794 
L 315.605805 16.114794 
L 316.00602 16.114794 
L 316.406235 16.114794 
L 316.806451 16.114794 
L 317.206666 16.114794 
L 317.606881 16.114794 
L 318.007096 16.114794 
L 318.407311 16.114794 
L 318.807527 16.114794 
L 319.207742 16.114794 
L 319.607957 16.114794 
L 320.008172 16.114794 
L 320.408388 16.114794 
L 320.808603 16.114794 
L 321.208818 16.114794 
L 321.609033 16.114794 
L 322.009249 16.114794 
L 322.409464 16.114794 
L 322.809679 16.114794 
L 323.209894 16.114794 
L 323.610109 16.114794 
L 324.010325 16.114794 
L 324.41054 16.114794 
L 324.810755 16.114794 
L 325.21097 16.114794 
L 325.611186 16.114794 
L 326.011401 16.114794 
L 326.411616 16.114794 
L 326.811831 16.114794 
L 327.212046 16.114794 
L 327.612262 16.114794 
L 328.012477 16.114794 
L 328.412692 16.114794 
L 328.812907 16.114794 
L 329.213123 16.114794 
L 329.613338 16.114794 
L 330.013553 16.114794 
L 330.413768 16.114794 
L 330.813983 16.114794 
L 331.214199 16.114794 
L 331.614414 16.114794 
L 332.014629 16.114794 
L 332.414844 16.114794 
L 332.81506 16.114794 
L 333.215275 16.114794 
L 333.61549 16.114794 
L 334.015705 16.114794 
L 334.415921 16.114794 
L 334.816136 16.114794 
L 335.216351 16.114794 
L 335.616566 16.114794 
L 336.016781 16.114794 
L 336.416997 16.114794 
L 336.817212 16.114794 
L 337.217427 16.114794 
L 337.617642 16.114794 
L 338.017858 16.114794 
L 338.418073 16.114794 
L 338.818288 16.114794 
L 339.218503 16.114794 
L 339.618718 16.114794 
L 340.018934 16.114794 
L 340.419149 16.114794 
L 340.819364 16.114794 
L 341.219579 16.114794 
L 341.619795 16.114794 
L 342.02001 16.114794 
L 342.420225 16.114794 
L 342.82044 16.114794 
L 343.220656 16.114794 
L 343.620871 16.114794 
L 344.021086 16.114794 
L 344.421301 16.114794 
L 344.821516 16.114794 
L 345.221732 16.114794 
L 345.621947 16.114794 
L 346.022162 16.114794 
L 346.422377 16.114794 
L 346.822593 16.114794 
L 347.222808 16.114794 
L 347.623023 16.114794 
L 348.023238 16.114794 
L 348.423453 16.114794 
L 348.823669 16.114794 
L 349.223884 16.114794 
L 349.624099 16.114794 
L 350.024314 16.114794 
L 350.42453 16.114794 
L 350.824745 16.114794 
L 351.22496 16.114794 
L 351.625175 16.114794 
L 352.02539 16.114794 
L 352.425606 16.114794 
L 352.825821 16.114794 
L 353.226036 16.114794 
" clip-path="url(#p4c417a8c41)" style="fill: none; stroke: #000000; stroke-width: 2; stroke-linecap: round"></path>
   </g>
   <g id="line2d_11">
    <g clip-path="url(#p4c417a8c41)">
     <use xlink:href="#mcd1b37c2d0" x="313.604729" y="16.114794" style="fill: #ff0000; stroke: #ff0000"></use>
     <use xlink:href="#mcd1b37c2d0" x="353.226036" y="16.114794" style="fill: #ff0000; stroke: #ff0000"></use>
    </g>
   </g>
   <g id="line2d_12">
    <g clip-path="url(#p4c417a8c41)">
     <use xlink:href="#me436ff86ed" x="353.226036" y="55.736094" style="stroke: #000000"></use>
    </g>
   </g>
   <g id="line2d_13">
    <g clip-path="url(#p4c417a8c41)">
     <use xlink:href="#mcd1b37c2d0" x="353.226036" y="55.736094" style="fill: #ff0000; stroke: #ff0000"></use>
    </g>
   </g>
  </g>
 </g>
 <defs>
  <clipPath id="p4c417a8c41">
   <rect x="7.2" y="7.2" width="446.4" height="50.847336"></rect>
  </clipPath>
 </defs>
</svg>
