<?xml version="1.0" encoding="UTF-8" standalone="no"?>
                <!DOCTYPE svg PUBLIC "-//W3C//DTD SVG 1.1//EN" "http://www.w3.org/Graphics/SVG/1.1/DTD/svg11.dtd">
                <svg class="d-flex" id="output" viewBox="-2.4000000000000004 -2.147368421052632 9 3.347368421052632" preserveAspectRatio="xMidYMid meet" transform="scale(1, -1) translate(0, -3.3473684787750244)" xmlns="http://www.w3.org/2000/svg" xmlns:xlink="http://www.w3.org/1999/xlink"><line x1="-1.2000000000000002" x2="5.4" y1="-0.7105263157894739" y2="-0.7105263157894739" stroke="grey" stroke-dasharray="0.12, 0.12" stroke-width="0.03"></line><path d="M 0 -0.7105263157894739 L 0.0031897926634768775 -0.7057416267942586 L 0.006379585326953755 -0.7009569377990432 L 0.009569377990430632 -0.696172248803828 L 0.01275917065390751 -0.6913875598086127 L 0.015948963317384386 -0.6866028708133973 L 0.019138755980861264 -0.681818181818182 L 0.022328548644338145 -0.6770334928229667 L 0.02551834130781502 -0.6722488038277514 L 0.028708133971291894 -0.6674641148325361 L 0.03189792663476877 -0.6626794258373208 L 0.035087719298245654 -0.6578947368421054 L 0.03827751196172253 -0.6531100478468901 L 0.04146730462519941 -0.6483253588516749 L 0.04465709728867629 -0.6435406698564595 L 0.04784688995215316 -0.6387559808612442 L 0.05103668261563004 -0.6339712918660289 L 0.05422647527910692 -0.6291866028708135 L 0.05741626794258379 -0.6244019138755983 L 0.06060606060606067 -0.619617224880383 L 0.06379585326953754 -0.6148325358851676 L 0.06698564593301443 -0.6100478468899523 L 0.07017543859649131 -0.6052631578947371 L 0.07336523125996819 -0.6004784688995217 L 0.07655502392344506 -0.5956937799043064 L 0.07974481658692194 -0.590909090909091 L 0.08293460925039882 -0.5861244019138757 L 0.0861244019138757 -0.5813397129186604 L 0.08931419457735258 -0.5765550239234452 L 0.09250398724082944 -0.5717703349282298 L 0.09569377990430632 -0.5669856459330145 L 0.0988835725677832 -0.5622009569377993 L 0.10207336523126008 -0.5574162679425839 L 0.10526315789473696 -0.5526315789473686 L 0.10845295055821384 -0.5478468899521532 L 0.11164274322169072 -0.5430622009569379 L 0.11483253588516758 -0.5382775119617227 L 0.11802232854864446 -0.5334928229665074 L 0.12121212121212134 -0.528708133971292 L 0.12440191387559822 -0.5239234449760767 L 0.1275917065390751 -0.5191387559808613 L 0.13078149920255197 -0.5143540669856461 L 0.13397129186602885 -0.5095693779904308 L 0.13716108452950573 -0.5047846889952154 L 0.14035087719298261 -0.5000000000000001 L 0.1435406698564595 -0.4952153110047848 L 0.14673046251993638 -0.4904306220095695 L 0.14992025518341326 -0.4856459330143542 L 0.1531100478468901 -0.4808612440191389 L 0.156299840510367 -0.47607655502392354 L 0.15948963317384388 -0.47129186602870826 L 0.16267942583732076 -0.4665071770334929 L 0.16586921850079764 -0.46172248803827765 L 0.1690590111642745 -0.4569377990430623 L 0.1722488038277514 -0.452153110047847 L 0.17543859649122825 -0.4473684210526317 L 0.17862838915470516 -0.44258373205741636 L 0.18181818181818202 -0.4377990430622011 L 0.18500797448165887 -0.4330143540669858 L 0.18819776714513578 -0.4282296650717704 L 0.19138755980861263 -0.4234449760765551 L 0.19457735247208954 -0.4186602870813398 L 0.1977671451355664 -0.4138755980861245 L 0.2009569377990433 -0.40909090909090917 L 0.20414673046252016 -0.4043062200956939 L 0.207336523125997 -0.39952153110047856 L 0.21052631578947392 -0.3947368421052632 L 0.21371610845295078 -0.38995215311004794 L 0.21690590111642769 -0.3851674641148326 L 0.22009569377990454 -0.3803827751196173 L 0.22328548644338145 -0.375598086124402 L 0.2264752791068583 -0.3708133971291867 L 0.22966507177033516 -0.36602870813397137 L 0.23285486443381206 -0.36124401913875603 L 0.23604465709728892 -0.35645933014354075 L 0.23923444976076583 -0.3516746411483254 L 0.24242424242424268 -0.34688995215311014 L 0.24561403508771953 -0.34210526315789486 L 0.24880382775119644 -0.33732057416267947 L 0.2519936204146733 -0.3325358851674642 L 0.2551834130781502 -0.32775119617224885 L 0.2583732057416271 -0.32296650717703357 L 0.26156299840510394 -0.31818181818181823 L 0.26475279106858085 -0.31339712918660295 L 0.2679425837320577 -0.3086124401913876 L 0.2711323763955346 -0.3038277511961723 L 0.27432216905901147 -0.299043062200957 L 0.2775119617224884 -0.29425837320574166 L 0.28070175438596523 -0.2894736842105264 L 0.2838915470494421 -0.28468899521531105 L 0.287081339712919 -0.2799043062200957 L 0.29027113237639585 -0.27511961722488043 L 0.29346092503987276 -0.2703349282296651 L 0.2966507177033496 -0.2655502392344498 L 0.2998405103668265 -0.2607655502392345 L 0.30303030303030337 -0.2559808612440192 L 0.3062200956937802 -0.25119617224880386 L 0.30940988835725713 -0.24641148325358853 L 0.312599681020734 -0.24162679425837325 L 0.31578947368421084 -0.23684210526315796" stroke="black" stroke-width="0.03" fill="none" stroke-linecap="round"></path><circle cx="0" cy="-0.7105263157894739" r="0.03" fill="red"></circle><circle cx="0.31578947368421084" cy="-0.23684210526315796" r="0.03" fill="red"></circle><path d="M 0.31578947368421084 0" stroke="black" stroke-width="0.03" fill="none" stroke-linecap="round"></path><circle cx="0.31578947368421084" cy="0" r="0.03" fill="red"></circle><path d="M 0.31578947368421084 -0.23684210526315796" stroke="black" stroke-width="0.03" fill="none" stroke-linecap="round"></path><circle cx="0.31578947368421084" cy="-0.23684210526315796" r="0.03" fill="red"></circle><path d="M 0.31578947368421084 -0.23684210526315796 L 0.32137197698311254 -0.2454532273584036 L 0.32695667710891757 -0.25405644087679763 L 0.33254577088852894 -0.2626438372414885 L 0.3381414551488501 -0.2712075078756246 L 0.343745926716784 -0.2797395442023542 L 0.3493613824192341 -0.2882320376448259 L 0.35499001908310346 -0.29667707962618806 L 0.36063403353529544 -0.305066761569589 L 0.3662956226027131 -0.3133931748981772 L 0.37197698311225985 -0.32164841103510106 L 0.3776803118908387 -0.3298245614035089 L 0.38340780576535305 -0.3379137174265492 L 0.38916166156270604 -0.3459079705273704 L 0.39494407610980087 -0.3537994121291208 L 0.4007572462335408 -0.3615801336549489 L 0.40660336876082914 -0.3692422265280031 L 0.4124846405185689 -0.3767777821714317 L 0.41840325833366343 -0.38417889200838323 L 0.424361419033016 -0.391437647462006 L 0.4303613194435297 -0.3985461399554485 L 0.4364051563921078 -0.40549646091185904 L 0.44249512670565366 -0.41228070175438614 L 0.4486334272110703 -0.4188909539061781 L 0.454822254735261 -0.42531930879038327 L 0.46106380610512904 -0.4315578578301503 L 0.46736027814757763 -0.4375986924486273 L 0.47371386768950996 -0.443433904068963 L 0.4801267715578292 -0.44905558411430546 L 0.4866011865794386 -0.45445582400780327 L 0.4931393095812415 -0.4596267151726049 L 0.49974333739014104 -0.4645603490318585 L 0.5064154668330403 -0.4692488170087128 L 0.5131578947368427 -0.47368421052631593 L 0.519971719515 -0.4778599391039584 L 0.5268536459271568 -0.48177468464549816 L 0.5337992803195072 -0.4854284471509353 L 0.5408042290382443 -0.48882122662026983 L 0.5478640984295622 -0.49195302305350164 L 0.5549744948396541 -0.4948238364506309 L 0.5621310246147138 -0.4974336668116574 L 0.5693292941009345 -0.4997825141365813 L 0.57656490964451 -0.5018703784254025 L 0.5838334775916337 -0.5036972596781211 L 0.5911306042884994 -0.505263157894737 L 0.5984518960813006 -0.5065680730752503 L 0.6057929593162307 -0.5076120052196608 L 0.6131494003394834 -0.5083949543279688 L 0.6205168254972522 -0.5089169204001741 L 0.6278908411357306 -0.5091779034362768 L 0.6352670536011121 -0.5091779034362768 L 0.6426410692395907 -0.5089169204001741 L 0.6500084943973594 -0.5083949543279689 L 0.6573649354206121 -0.5076120052196609 L 0.6647059986555423 -0.5065680730752502 L 0.6720272904483432 -0.505263157894737 L 0.6793244171452091 -0.5036972596781211 L 0.6865929850923329 -0.5018703784254024 L 0.6938286006359083 -0.49978251413658126 L 0.701026870122129 -0.49743366681165735 L 0.7081833998971886 -0.49482383645063077 L 0.7152937963072806 -0.4919530230535016 L 0.7223536656985984 -0.48882122662026983 L 0.7293586144173356 -0.4854284471509353 L 0.736304248809686 -0.4817746846454981 L 0.7431861752218429 -0.4778599391039583 L 0.7500000000000001 -0.4736842105263159 L 0.7567424279038024 -0.46924881700871274 L 0.7634145573467018 -0.46456034903185844 L 0.7700185851556013 -0.4596267151726048 L 0.7765567081574042 -0.45445582400780316 L 0.7830311231790137 -0.44905558411430535 L 0.7894440270473329 -0.4434339040689629 L 0.7957976165892652 -0.43759869244862726 L 0.8020940886317137 -0.4315578578301502 L 0.8083356400015818 -0.4253193087903832 L 0.8145244675257725 -0.41889095390617803 L 0.8206627680311891 -0.4122807017543861 L 0.826752738344735 -0.4054964609118589 L 0.832796575293313 -0.3985461399554484 L 0.8387964757038268 -0.3914376474620059 L 0.8447546364031793 -0.3841788920083832 L 0.8506732542182739 -0.3767777821714316 L 0.8565545259760137 -0.369242226528003 L 0.8624006485033019 -0.3615801336549489 L 0.8682138186270419 -0.3537994121291207 L 0.8739962331741367 -0.3459079705273703 L 0.8797500889714898 -0.33791371742654913 L 0.885477582846004 -0.3298245614035088 L 0.891180911624583 -0.3216484110351009 L 0.8968622721341296 -0.31339317489817714 L 0.9025238612015473 -0.3050667615695889 L 0.9081678756537394 -0.29667707962618795 L 0.9137965123176087 -0.2882320376448259 L 0.9194119680200588 -0.2797395442023542 L 0.9250164395879927 -0.2712075078756245 L 0.9306121238483137 -0.26264383724148854 L 0.9362012176279251 -0.25405644087679763 L 0.9417859177537301 -0.24545322735840355 L 0.9473684210526317 -0.23684210526315802" stroke="black" stroke-width="0.03" fill="none" stroke-linecap="round"></path><circle cx="0.31578947368421084" cy="-0.23684210526315796" r="0.03" fill="red"></circle><circle cx="0.5131578947368427" cy="-0.47368421052631593" r="0.03" fill="red"></circle><circle cx="0.75" cy="-0.47368421052631593" r="0.03" fill="red"></circle><circle cx="0.9473684210526319" cy="-0.23684210526315796" r="0.03" fill="red"></circle><path d="M 2.147368421052632 -0.7105263157894739 L 2.161722488038278 -0.7105263157894739 L 2.176076555023924 -0.7105263157894739 L 2.1904306220095697 -0.7105263157894739 L 2.2047846889952156 -0.7105263157894739 L 2.2191387559808615 -0.7105263157894739 L 2.2334928229665074 -0.7105263157894739 L 2.2478468899521538 -0.7105263157894739 L 2.2622009569377997 -0.7105263157894739 L 2.2765550239234456 -0.7105263157894739 L 2.2909090909090915 -0.7105263157894739 L 2.3052631578947373 -0.7105263157894739 L 2.3196172248803832 -0.7105263157894739 L 2.333971291866029 -0.7105263157894739 L 2.348325358851675 -0.7105263157894739 L 2.362679425837321 -0.7105263157894739 L 2.377033492822967 -0.7105263157894739 L 2.3913875598086127 -0.7105263157894739 L 2.4057416267942586 -0.7105263157894739 L 2.4200956937799045 -0.7105263157894739 L 2.434449760765551 -0.7105263157894739 L 2.4488038277511963 -0.7105263157894739 L 2.4631578947368427 -0.7105263157894739 L 2.4775119617224886 -0.7105263157894739 L 2.4918660287081345 -0.7105263157894739 L 2.5062200956937803 -0.7105263157894739 L 2.5205741626794262 -0.7105263157894739 L 2.534928229665072 -0.7105263157894739 L 2.549282296650718 -0.7105263157894739 L 2.563636363636364 -0.7105263157894739 L 2.57799043062201 -0.7105263157894739 L 2.5923444976076557 -0.7105263157894739 L 2.6066985645933016 -0.7105263157894739 L 2.621052631578948 -0.7105263157894739 L 2.6354066985645934 -0.7105263157894739 L 2.6497607655502398 -0.7105263157894739 L 2.664114832535885 -0.7105263157894739 L 2.6784688995215316 -0.7105263157894739 L 2.6928229665071775 -0.7105263157894739 L 2.7071770334928233 -0.7105263157894739 L 2.7215311004784692 -0.7105263157894739 L 2.735885167464115 -0.7105263157894739 L 2.750239234449761 -0.7105263157894739 L 2.764593301435407 -0.7105263157894739 L 2.778947368421053 -0.7105263157894739 L 2.7933014354066987 -0.7105263157894739 L 2.807655502392345 -0.7105263157894739 L 2.8220095693779905 -0.7105263157894739 L 2.836363636363637 -0.7105263157894739 L 2.8507177033492823 -0.7105263157894739 L 2.8650717703349287 -0.7105263157894739 L 2.8794258373205746 -0.7105263157894739 L 2.8937799043062205 -0.7105263157894739 L 2.9081339712918663 -0.7105263157894739 L 2.9224880382775122 -0.7105263157894739 L 2.936842105263158 -0.7105263157894739 L 2.951196172248804 -0.7105263157894739 L 2.96555023923445 -0.7105263157894739 L 2.979904306220096 -0.7105263157894739 L 2.9942583732057417 -0.7105263157894739 L 3.0086124401913876 -0.7105263157894739 L 3.022966507177034 -0.7105263157894739 L 3.0373205741626794 -0.7105263157894739 L 3.0516746411483258 -0.7105263157894739 L 3.0660287081339717 -0.7105263157894739 L 3.0803827751196176 -0.7105263157894739 L 3.0947368421052635 -0.7105263157894739 L 3.1090909090909093 -0.7105263157894739 L 3.1234449760765552 -0.7105263157894739 L 3.137799043062201 -0.7105263157894739 L 3.1521531100478475 -0.7105263157894739 L 3.166507177033493 -0.7105263157894739 L 3.180861244019139 -0.7105263157894739 L 3.1952153110047847 -0.7105263157894739 L 3.209569377990431 -0.7105263157894739 L 3.2239234449760765 -0.7105263157894739 L 3.238277511961723 -0.7105263157894739 L 3.2526315789473683 -0.7105263157894739 L 3.2669856459330147 -0.7105263157894739 L 3.28133971291866 -0.7105263157894739 L 3.2956937799043065 -0.7105263157894739 L 3.3100478468899523 -0.7105263157894739 L 3.3244019138755982 -0.7105263157894739 L 3.338755980861244 -0.7105263157894739 L 3.35311004784689 -0.7105263157894739 L 3.3674641148325364 -0.7105263157894739 L 3.381818181818182 -0.7105263157894739 L 3.396172248803828 -0.7105263157894739 L 3.4105263157894736 -0.7105263157894739 L 3.42488038277512 -0.7105263157894739 L 3.4392344497607654 -0.7105263157894739 L 3.4535885167464118 -0.7105263157894739 L 3.4679425837320577 -0.7105263157894739 L 3.4822966507177036 -0.7105263157894739 L 3.4966507177033495 -0.7105263157894739 L 3.5110047846889954 -0.7105263157894739 L 3.5253588516746412 -0.7105263157894739 L 3.539712918660287 -0.7105263157894739 L 3.554066985645933 -0.7105263157894739 L 3.568421052631579 -0.7105263157894739" stroke="black" stroke-width="0.03" fill="none" stroke-linecap="round"></path><circle cx="2.147368421052632" cy="-0.7105263157894739" r="0.03" fill="red"></circle><circle cx="3.568421052631579" cy="-0.7105263157894739" r="0.03" fill="red"></circle><path d="M 3.094736842105264 -0.23684210526315796 L 3.0995215311004793 -0.23684210526315796 L 3.1043062200956943 -0.23684210526315796 L 3.10909090909091 -0.23684210526315796 L 3.1138755980861252 -0.23684210526315796 L 3.1186602870813402 -0.23684210526315796 L 3.1234449760765557 -0.23684210526315796 L 3.128229665071771 -0.23684210526315796 L 3.133014354066986 -0.23684210526315796 L 3.1377990430622016 -0.23684210526315796 L 3.142583732057417 -0.23684210526315796 L 3.147368421052632 -0.23684210526315796 L 3.1521531100478475 -0.23684210526315796 L 3.156937799043063 -0.23684210526315796 L 3.1617224880382784 -0.23684210526315796 L 3.1665071770334934 -0.23684210526315796 L 3.171291866028709 -0.23684210526315796 L 3.1760765550239243 -0.23684210526315796 L 3.1808612440191393 -0.23684210526315796 L 3.1856459330143547 -0.23684210526315796 L 3.19043062200957 -0.23684210526315796 L 3.195215311004785 -0.23684210526315796 L 3.2000000000000006 -0.23684210526315796 L 3.204784688995216 -0.23684210526315796 L 3.209569377990431 -0.23684210526315796 L 3.2143540669856465 -0.23684210526315796 L 3.219138755980862 -0.23684210526315796 L 3.223923444976077 -0.23684210526315796 L 3.2287081339712924 -0.23684210526315796 L 3.233492822966508 -0.23684210526315796 L 3.238277511961723 -0.23684210526315796 L 3.2430622009569383 -0.23684210526315796 L 3.2478468899521538 -0.23684210526315796 L 3.2526315789473688 -0.23684210526315796 L 3.257416267942584 -0.23684210526315796 L 3.2622009569377997 -0.23684210526315796 L 3.2669856459330147 -0.23684210526315796 L 3.27177033492823 -0.23684210526315796 L 3.2765550239234456 -0.23684210526315796 L 3.2813397129186606 -0.23684210526315796 L 3.286124401913876 -0.23684210526315796 L 3.2909090909090915 -0.23684210526315796 L 3.2956937799043065 -0.23684210526315796 L 3.300478468899522 -0.23684210526315796 L 3.3052631578947373 -0.23684210526315796 L 3.310047846889953 -0.23684210526315796 L 3.314832535885168 -0.23684210526315796 L 3.3196172248803832 -0.23684210526315796 L 3.3244019138755982 -0.23684210526315796 L 3.3291866028708137 -0.23684210526315796 L 3.333971291866029 -0.23684210526315796 L 3.3387559808612446 -0.23684210526315796 L 3.3435406698564596 -0.23684210526315796 L 3.348325358851675 -0.23684210526315796 L 3.3531100478468905 -0.23684210526315796 L 3.3578947368421055 -0.23684210526315796 L 3.362679425837321 -0.23684210526315796 L 3.3674641148325364 -0.23684210526315796 L 3.3722488038277514 -0.23684210526315796 L 3.377033492822967 -0.23684210526315796 L 3.3818181818181823 -0.23684210526315796 L 3.3866028708133973 -0.23684210526315796 L 3.3913875598086127 -0.23684210526315796 L 3.396172248803828 -0.23684210526315796 L 3.400956937799043 -0.23684210526315796 L 3.4057416267942586 -0.23684210526315796 L 3.410526315789474 -0.23684210526315796 L 3.415311004784689 -0.23684210526315796 L 3.4200956937799045 -0.23684210526315796 L 3.42488038277512 -0.23684210526315796 L 3.4296650717703354 -0.23684210526315796 L 3.4344497607655504 -0.23684210526315796 L 3.439234449760766 -0.23684210526315796 L 3.444019138755981 -0.23684210526315796 L 3.4488038277511963 -0.23684210526315796 L 3.4535885167464118 -0.23684210526315796 L 3.458373205741627 -0.23684210526315796 L 3.463157894736842 -0.23684210526315796 L 3.4679425837320577 -0.23684210526315796 L 3.4727272727272727 -0.23684210526315796 L 3.477511961722488 -0.23684210526315796 L 3.4822966507177036 -0.23684210526315796 L 3.487081339712919 -0.23684210526315796 L 3.491866028708134 -0.23684210526315796 L 3.4966507177033495 -0.23684210526315796 L 3.501435406698565 -0.23684210526315796 L 3.50622009569378 -0.23684210526315796 L 3.5110047846889954 -0.23684210526315796 L 3.515789473684211 -0.23684210526315796 L 3.520574162679426 -0.23684210526315796 L 3.5253588516746412 -0.23684210526315796 L 3.5301435406698567 -0.23684210526315796 L 3.5349282296650717 -0.23684210526315796 L 3.539712918660287 -0.23684210526315796 L 3.5444976076555026 -0.23684210526315796 L 3.5492822966507176 -0.23684210526315796 L 3.554066985645933 -0.23684210526315796 L 3.5588516746411485 -0.23684210526315796 L 3.5636363636363635 -0.23684210526315796 L 3.568421052631579 -0.23684210526315796" stroke="black" stroke-width="0.03" fill="none" stroke-linecap="round"></path><circle cx="3.094736842105264" cy="-0.23684210526315796" r="0.03" fill="red"></circle><circle cx="3.568421052631579" cy="-0.23684210526315796" r="0.03" fill="red"></circle><path d="M 3.568421052631579 -0.7105263157894739" stroke="black" stroke-width="0.03" fill="none" stroke-linecap="round"></path><circle cx="3.568421052631579" cy="-0.7105263157894739" r="0.03" fill="red"></circle><path d="M 3.568421052631579 -0.7105263157894739 L 3.574003555930481 -0.7191374378847195 L 3.5795882560562853 -0.7277406514031136 L 3.585177349835897 -0.7363280477678044 L 3.5907730340962183 -0.7448917184019405 L 3.596377505664152 -0.7534237547286701 L 3.601992961366602 -0.7619162481711419 L 3.6076215980304718 -0.770361290152504 L 3.6132656124826634 -0.7787509720959049 L 3.6189272015500813 -0.7870773854244931 L 3.624608562059628 -0.7953326215614169 L 3.6303118908382066 -0.8035087719298248 L 3.636039384712721 -0.8115979279528651 L 3.6417932405100744 -0.8195921810536864 L 3.647575655057169 -0.8274836226554367 L 3.653388825180909 -0.8352643441812649 L 3.6592349477081973 -0.842926437054319 L 3.6651162194659372 -0.8504619926977476 L 3.6710348372810313 -0.8578631025346992 L 3.676992997980384 -0.865121857988322 L 3.682992898390898 -0.8722303504817644 L 3.6890367353394757 -0.879180671438175 L 3.695126705653022 -0.8859649122807021 L 3.7012650061584385 -0.892575164432494 L 3.707453833682629 -0.8990035193166992 L 3.713695385052497 -0.9052420683564663 L 3.719991857094946 -0.9112829029749433 L 3.726345446636878 -0.9171181145952789 L 3.7327583505051973 -0.9227397946406214 L 3.7392327655268067 -0.9281400345341192 L 3.7457708885286096 -0.9333109256989208 L 3.752374916337509 -0.9382445595581744 L 3.7590470457804086 -0.9429330275350287 L 3.765789473684211 -0.9473684210526319 L 3.7726032984623683 -0.9515441496302743 L 3.779485224874525 -0.9554588951718141 L 3.7864308592668756 -0.9591126576772513 L 3.7934358079856123 -0.9625054371465858 L 3.8004956773769307 -0.9656372335798177 L 3.807606073787022 -0.9685080469769467 L 3.814762603562082 -0.9711178773379733 L 3.8219608730483032 -0.9734667246628972 L 3.829196488591878 -0.9755545889517184 L 3.836465056539002 -0.977381470204437 L 3.8437621832358677 -0.9789473684210529 L 3.851083475028669 -0.9802522836015662 L 3.858424538263599 -0.9812962157459767 L 3.8657809792868516 -0.9820791648542847 L 3.87314840444462 -0.98260113092649 L 3.880522420083099 -0.9828621139625928 L 3.8878986325484806 -0.9828621139625928 L 3.8952726481869586 -0.9826011309264902 L 3.9026400733447275 -0.9820791648542847 L 3.9099965143679802 -0.9812962157459768 L 3.9173375776029107 -0.9802522836015661 L 3.9246588693957114 -0.9789473684210529 L 3.9319559960925776 -0.977381470204437 L 3.9392245640397006 -0.9755545889517185 L 3.9464601795832763 -0.9734667246628971 L 3.9536584490694975 -0.9711178773379732 L 3.9608149788445566 -0.9685080469769467 L 3.967925375254649 -0.9656372335798176 L 3.9749852446459664 -0.9625054371465858 L 3.981990193364704 -0.9591126576772512 L 3.9889358277570546 -0.9554588951718141 L 3.9958177541692113 -0.9515441496302742 L 4.002631578947368 -0.9473684210526319 L 4.0093740068511705 -0.9429330275350286 L 4.0160461362940705 -0.9382445595581743 L 4.02265016410297 -0.9333109256989208 L 4.029188287104772 -0.9281400345341192 L 4.035662702126382 -0.9227397946406214 L 4.042075605994702 -0.9171181145952788 L 4.048429195536634 -0.9112829029749432 L 4.054725667579082 -0.9052420683564661 L 4.06096721894895 -0.8990035193166991 L 4.067156046473141 -0.892575164432494 L 4.073294346978558 -0.885964912280702 L 4.079384317292103 -0.8791806714381749 L 4.085428154240681 -0.8722303504817644 L 4.091428054651195 -0.8651218579883219 L 4.097386215350547 -0.857863102534699 L 4.103304833165643 -0.8504619926977475 L 4.109186104923381 -0.842926437054319 L 4.11503222745067 -0.8352643441812647 L 4.12084539757441 -0.8274836226554367 L 4.126627812121505 -0.8195921810536864 L 4.132381667918858 -0.8115979279528651 L 4.1381091617933725 -0.8035087719298247 L 4.143812490571952 -0.7953326215614168 L 4.149493851081498 -0.7870773854244931 L 4.155155440148916 -0.7787509720959048 L 4.160799454601107 -0.7703612901525038 L 4.166428091264977 -0.7619162481711418 L 4.172043546967427 -0.7534237547286701 L 4.177648018535361 -0.7448917184019404 L 4.183243702795681 -0.7363280477678044 L 4.1888327965752925 -0.7277406514031135 L 4.1944174967010985 -0.7191374378847195 L 4.2 -0.710526315789474" stroke="black" stroke-width="0.03" fill="none" stroke-linecap="round"></path><circle cx="3.568421052631579" cy="-0.7105263157894739" r="0.03" fill="red"></circle><circle cx="3.765789473684211" cy="-0.9473684210526319" r="0.03" fill="red"></circle><circle cx="4.002631578947368" cy="-0.9473684210526319" r="0.03" fill="red"></circle><circle cx="4.2" cy="-0.7105263157894739" r="0.03" fill="red"></circle></svg>