<!--?xml version="1.0" encoding="utf-8" standalone="no"?-->

<svg xmlns:xlink="http://www.w3.org/1999/xlink" width="460.8pt" height="71.768551pt" viewBox="0 0 460.8 71.768551" xmlns="http://www.w3.org/2000/svg" version="1.1">
 <metadata>
  <rdf:rdf xmlns:dc="http://purl.org/dc/elements/1.1/" xmlns:cc="http://creativecommons.org/ns#" xmlns:rdf="http://www.w3.org/1999/02/22-rdf-syntax-ns#">
   <cc:work>
    <dc:type rdf:resource="http://purl.org/dc/dcmitype/StillImage"></dc:type>
    <dc:date>2024-10-03T17:22:54.845030</dc:date>
    <dc:format>image/svg+xml</dc:format>
    <dc:creator>
     <cc:agent>
      <dc:title>Matplotlib v3.9.1.post1, https://matplotlib.org/</dc:title>
     </cc:agent>
    </dc:creator>
   </cc:work>
  </rdf:rdf>
 </metadata>
 <defs>
  <style type="text/css">*{stroke-linejoin: round; stroke-linecap: butt}</style>
 </defs>
 <g id="figure_1">
  <g id="patch_1">
   <path d="M 0 71.768551 
L 460.8 71.768551 
L 460.8 0 
L 0 0 
z
" style="fill: #ffffff"></path>
  </g>
  <g id="axes_1">
   <g id="line2d_1">
    <path d="M 7.2 49.063942 
L 453.6 49.063942 
" clip-path="url(#paee2b4c404)" style="fill: none; stroke-dasharray: 5.55,2.4; stroke-dashoffset: 0; stroke: #d3d3d3; stroke-width: 1.5"></path>
   </g>
   <g id="line2d_2">
    <path d="M 92.442211 49.063942 
L 92.668799 48.780708 
L 92.895386 48.497474 
L 93.121974 48.214239 
L 93.348561 47.931005 
L 93.575149 47.647771 
L 93.801736 47.364536 
L 94.028323 47.081302 
L 94.254911 46.798067 
L 94.481498 46.514833 
L 94.708086 46.231599 
L 94.934673 45.948364 
L 95.161261 45.66513 
L 95.387848 45.381896 
L 95.614436 45.098661 
L 95.841023 44.815427 
L 96.067611 44.532193 
L 96.294198 44.248958 
L 96.520786 43.965724 
L 96.747373 43.682489 
L 96.973961 43.399255 
L 97.200548 43.116021 
L 97.427136 42.832786 
L 97.653723 42.549552 
L 97.880311 42.266318 
L 98.106898 41.983083 
L 98.333486 41.699849 
L 98.560073 41.416615 
L 98.786661 41.13338 
L 99.013248 40.850146 
L 99.239836 40.566911 
L 99.466423 40.283677 
L 99.693011 40.000443 
L 99.919598 39.717208 
L 100.146186 39.433974 
L 100.372773 39.15074 
L 100.599361 38.867505 
L 100.825948 38.584271 
L 101.052536 38.301037 
L 101.279123 38.017802 
L 101.50571 37.734568 
L 101.732298 37.451333 
L 101.958885 37.168099 
L 102.185473 36.884865 
L 102.41206 36.60163 
L 102.638648 36.318396 
L 102.865235 36.035162 
L 103.091823 35.751927 
L 103.31841 35.468693 
L 103.544998 35.185459 
L 103.771585 34.902224 
L 103.998173 34.61899 
L 104.22476 34.335755 
L 104.451348 34.052521 
L 104.677935 33.769287 
L 104.904523 33.486052 
L 105.13111 33.202818 
L 105.357698 32.919584 
L 105.584285 32.636349 
L 105.810873 32.353115 
L 106.03746 32.069881 
L 106.264048 31.786646 
L 106.490635 31.503412 
L 106.717223 31.220177 
L 106.94381 30.936943 
L 107.170398 30.653709 
L 107.396985 30.370474 
L 107.623573 30.08724 
L 107.85016 29.804006 
L 108.076748 29.520771 
L 108.303335 29.237537 
L 108.529922 28.954303 
L 108.75651 28.671068 
L 108.983097 28.387834 
L 109.209685 28.104599 
L 109.436272 27.821365 
L 109.66286 27.538131 
L 109.889447 27.254896 
L 110.116035 26.971662 
L 110.342622 26.688428 
L 110.56921 26.405193 
L 110.795797 26.121959 
L 111.022385 25.838725 
L 111.248972 25.55549 
L 111.47556 25.272256 
L 111.702147 24.989021 
L 111.928735 24.705787 
L 112.155322 24.422553 
L 112.38191 24.139318 
L 112.608497 23.856084 
L 112.835085 23.57285 
L 113.061672 23.289615 
L 113.28826 23.006381 
L 113.514847 22.723147 
L 113.741435 22.439912 
L 113.968022 22.156678 
L 114.19461 21.873443 
L 114.421197 21.590209 
L 114.647785 21.306975 
L 114.874372 21.02374 
" clip-path="url(#paee2b4c404)" style="fill: none; stroke: #000000; stroke-width: 2; stroke-linecap: round"></path>
   </g>
   <g id="line2d_3">
    <defs>
     <path id="mb177ca2e77" d="M 0 1.5 
C 0.397805 1.5 0.77937 1.341951 1.06066 1.06066 
C 1.341951 0.77937 1.5 0.397805 1.5 0 
C 1.5 -0.397805 1.341951 -0.77937 1.06066 -1.06066 
C 0.77937 -1.341951 0.397805 -1.5 0 -1.5 
C -0.397805 -1.5 -0.77937 -1.341951 -1.06066 -1.06066 
C -1.341951 -0.77937 -1.5 -0.397805 -1.5 0 
C -1.5 0.397805 -1.341951 0.77937 -1.06066 1.06066 
C -0.77937 1.341951 -0.397805 1.5 0 1.5 
z
" style="stroke: #ff0000"></path>
    </defs>
    <g clip-path="url(#paee2b4c404)">
     <use xlink:href="#mb177ca2e77" x="92.442211" y="49.063942" style="fill: #ff0000; stroke: #ff0000"></use>
     <use xlink:href="#mb177ca2e77" x="114.874372" y="21.02374" style="fill: #ff0000; stroke: #ff0000"></use>
    </g>
   </g>
   <g id="line2d_4">
    <path d="M 114.874372 9.807661 
" clip-path="url(#paee2b4c404)" style="fill: none; stroke: #000000; stroke-width: 2; stroke-linecap: round"></path>
   </g>
   <g id="line2d_5">
    <g clip-path="url(#paee2b4c404)">
     <use xlink:href="#mb177ca2e77" x="114.874372" y="9.807661" style="fill: #ff0000; stroke: #ff0000"></use>
    </g>
   </g>
   <g id="line2d_6">
    <path d="M 114.874372 21.02374 
" clip-path="url(#paee2b4c404)" style="fill: none; stroke: #000000; stroke-width: 2; stroke-linecap: round"></path>
   </g>
   <g id="line2d_7">
    <g clip-path="url(#paee2b4c404)">
     <use xlink:href="#mb177ca2e77" x="114.874372" y="21.02374" style="fill: #ff0000; stroke: #ff0000"></use>
    </g>
   </g>
   <g id="line2d_8">
    <path d="M 114.874372 21.02374 
L 115.214253 21.431535 
L 115.554135 21.838956 
L 115.894016 22.245627 
L 116.233897 22.651175 
L 116.573778 23.055225 
L 116.913659 23.457402 
L 117.253541 23.857332 
L 117.593422 24.254641 
L 117.933303 24.648953 
L 118.273184 25.039894 
L 118.613066 25.42709 
L 118.952947 25.810167 
L 119.292828 26.188749 
L 119.632709 26.562462 
L 119.97259 26.930932 
L 120.312472 27.293784 
L 120.652353 27.650644 
L 120.992234 28.001137 
L 121.332115 28.344888 
L 121.671997 28.681523 
L 122.011878 29.010668 
L 122.351759 29.331948 
L 122.69164 29.644988 
L 123.031521 29.949415 
L 123.371403 30.244852 
L 123.711284 30.530927 
L 124.051165 30.807264 
L 124.391046 31.073488 
L 124.730928 31.329226 
L 125.070809 31.574103 
L 125.41069 31.807744 
L 125.750571 32.029775 
L 126.090453 32.239821 
L 126.430334 32.43757 
L 126.770215 32.62296 
L 127.110096 32.79599 
L 127.449977 32.956661 
L 127.789859 33.104973 
L 128.12974 33.240926 
L 128.469621 33.364519 
L 128.809502 33.475753 
L 129.149384 33.574627 
L 129.489265 33.661142 
L 129.829146 33.735298 
L 130.169027 33.797095 
L 130.508909 33.846532 
L 130.84879 33.88361 
L 131.188671 33.908329 
L 131.528552 33.920688 
L 131.868434 33.920688 
L 132.208315 33.908329 
L 132.548196 33.88361 
L 132.888077 33.846532 
L 133.227958 33.797095 
L 133.56784 33.735298 
L 133.907721 33.661142 
L 134.247602 33.574627 
L 134.587483 33.475753 
L 134.927365 33.364519 
L 135.267246 33.240926 
L 135.607127 33.104973 
L 135.947008 32.956661 
L 136.286889 32.79599 
L 136.626771 32.62296 
L 136.966652 32.43757 
L 137.306533 32.239821 
L 137.646414 32.029775 
L 137.986295 31.807744 
L 138.326177 31.574103 
L 138.666058 31.329226 
L 139.005939 31.073488 
L 139.34582 30.807264 
L 139.685701 30.530927 
L 140.025583 30.244852 
L 140.365464 29.949415 
L 140.705345 29.644988 
L 141.045226 29.331948 
L 141.385107 29.010668 
L 141.724989 28.681523 
L 142.06487 28.344888 
L 142.404751 28.001137 
L 142.744632 27.650644 
L 143.084513 27.293784 
L 143.424394 26.930932 
L 143.764276 26.562462 
L 144.104157 26.188749 
L 144.444038 25.810167 
L 144.783919 25.42709 
L 145.1238 25.039894 
L 145.463681 24.648953 
L 145.803563 24.254641 
L 146.143444 23.857332 
L 146.483325 23.457402 
L 146.823206 23.055225 
L 147.163087 22.651175 
L 147.502968 22.245627 
L 147.84285 21.838956 
L 148.182731 21.431535 
L 148.522612 21.02374 
" clip-path="url(#paee2b4c404)" style="fill: none; stroke: #000000; stroke-width: 2; stroke-linecap: round"></path>
   </g>
   <g id="line2d_9">
    <g clip-path="url(#paee2b4c404)">
     <use xlink:href="#mb177ca2e77" x="114.874372" y="21.02374" style="fill: #ff0000; stroke: #ff0000"></use>
     <use xlink:href="#mb177ca2e77" x="126.090453" y="32.239821" style="fill: #ff0000; stroke: #ff0000"></use>
     <use xlink:href="#mb177ca2e77" x="137.306533" y="32.239821" style="fill: #ff0000; stroke: #ff0000"></use>
     <use xlink:href="#mb177ca2e77" x="148.522612" y="21.02374" style="fill: #ff0000; stroke: #ff0000"></use>
    </g>
   </g>
   <g id="line2d_10">
    <path d="M 233.764823 49.063942 
L 234.784467 49.063942 
L 235.80411 49.063942 
L 236.823754 49.063942 
L 237.843398 49.063942 
L 238.863042 49.063942 
L 239.882685 49.063942 
L 240.902329 49.063942 
L 241.921973 49.063942 
L 242.941616 49.063942 
L 243.96126 49.063942 
L 244.980904 49.063942 
L 246.000547 49.063942 
L 247.020191 49.063942 
L 248.039835 49.063942 
L 249.059478 49.063942 
L 250.079122 49.063942 
L 251.098766 49.063942 
L 252.11841 49.063942 
L 253.138053 49.063942 
L 254.157697 49.063942 
L 255.177341 49.063942 
L 256.196984 49.063942 
L 257.216628 49.063942 
L 258.236272 49.063942 
L 259.255915 49.063942 
L 260.275559 49.063942 
L 261.295203 49.063942 
L 262.314847 49.063942 
L 263.33449 49.063942 
L 264.354134 49.063942 
L 265.373778 49.063942 
L 266.393421 49.063942 
L 267.413065 49.063942 
L 268.432709 49.063942 
L 269.452352 49.063942 
L 270.471996 49.063942 
L 271.49164 49.063942 
L 272.511284 49.063942 
L 273.530927 49.063942 
L 274.550571 49.063942 
L 275.570215 49.063942 
L 276.589858 49.063942 
L 277.609502 49.063942 
L 278.629146 49.063942 
L 279.648789 49.063942 
L 280.668433 49.063942 
L 281.688077 49.063942 
L 282.70772 49.063942 
L 283.727364 49.063942 
L 284.747008 49.063942 
L 285.766652 49.063942 
L 286.786295 49.063942 
L 287.805939 49.063942 
L 288.825583 49.063942 
L 289.845226 49.063942 
L 290.86487 49.063942 
L 291.884514 49.063942 
L 292.904157 49.063942 
L 293.923801 49.063942 
L 294.943445 49.063942 
L 295.963089 49.063942 
L 296.982732 49.063942 
L 298.002376 49.063942 
L 299.02202 49.063942 
L 300.041663 49.063942 
L 301.061307 49.063942 
L 302.080951 49.063942 
L 303.100594 49.063942 
L 304.120238 49.063942 
L 305.139882 49.063942 
L 306.159526 49.063942 
L 307.179169 49.063942 
L 308.198813 49.063942 
L 309.218457 49.063942 
L 310.2381 49.063942 
L 311.257744 49.063942 
L 312.277388 49.063942 
L 313.297031 49.063942 
L 314.316675 49.063942 
L 315.336319 49.063942 
L 316.355962 49.063942 
L 317.375606 49.063942 
L 318.39525 49.063942 
L 319.414894 49.063942 
L 320.434537 49.063942 
L 321.454181 49.063942 
L 322.473825 49.063942 
L 323.493468 49.063942 
L 324.513112 49.063942 
L 325.532756 49.063942 
L 326.552399 49.063942 
L 327.572043 49.063942 
L 328.591687 49.063942 
L 329.611331 49.063942 
L 330.630974 49.063942 
L 331.650618 49.063942 
L 332.670262 49.063942 
L 333.689905 49.063942 
L 334.709549 49.063942 
" clip-path="url(#paee2b4c404)" style="fill: none; stroke: #000000; stroke-width: 2; stroke-linecap: round"></path>
   </g>
   <g id="line2d_11">
    <g clip-path="url(#paee2b4c404)">
     <use xlink:href="#mb177ca2e77" x="233.764823" y="49.063942" style="fill: #ff0000; stroke: #ff0000"></use>
     <use xlink:href="#mb177ca2e77" x="334.709549" y="49.063942" style="fill: #ff0000; stroke: #ff0000"></use>
    </g>
   </g>
   <g id="line2d_12">
    <path d="M 301.061303 15.415702 
L 301.401184 15.415702 
L 301.741065 15.415702 
L 302.080947 15.415702 
L 302.420828 15.415702 
L 302.760709 15.415702 
L 303.10059 15.415702 
L 303.440472 15.415702 
L 303.780353 15.415702 
L 304.120234 15.415702 
L 304.460116 15.415702 
L 304.799997 15.415702 
L 305.139878 15.415702 
L 305.479759 15.415702 
L 305.819641 15.415702 
L 306.159522 15.415702 
L 306.499403 15.415702 
L 306.839284 15.415702 
L 307.179166 15.415702 
L 307.519047 15.415702 
L 307.858928 15.415702 
L 308.19881 15.415702 
L 308.538691 15.415702 
L 308.878572 15.415702 
L 309.218453 15.415702 
L 309.558335 15.415702 
L 309.898216 15.415702 
L 310.238097 15.415702 
L 310.577979 15.415702 
L 310.91786 15.415702 
L 311.257741 15.415702 
L 311.597622 15.415702 
L 311.937504 15.415702 
L 312.277385 15.415702 
L 312.617266 15.415702 
L 312.957147 15.415702 
L 313.297029 15.415702 
L 313.63691 15.415702 
L 313.976791 15.415702 
L 314.316673 15.415702 
L 314.656554 15.415702 
L 314.996435 15.415702 
L 315.336316 15.415702 
L 315.676198 15.415702 
L 316.016079 15.415702 
L 316.35596 15.415702 
L 316.695841 15.415702 
L 317.035723 15.415702 
L 317.375604 15.415702 
L 317.715485 15.415702 
L 318.055367 15.415702 
L 318.395248 15.415702 
L 318.735129 15.415702 
L 319.07501 15.415702 
L 319.414892 15.415702 
L 319.754773 15.415702 
L 320.094654 15.415702 
L 320.434535 15.415702 
L 320.774417 15.415702 
L 321.114298 15.415702 
L 321.454179 15.415702 
L 321.794061 15.415702 
L 322.133942 15.415702 
L 322.473823 15.415702 
L 322.813704 15.415702 
L 323.153586 15.415702 
L 323.493467 15.415702 
L 323.833348 15.415702 
L 324.17323 15.415702 
L 324.513111 15.415702 
L 324.852992 15.415702 
L 325.192873 15.415702 
L 325.532755 15.415702 
L 325.872636 15.415702 
L 326.212517 15.415702 
L 326.552398 15.415702 
L 326.89228 15.415702 
L 327.232161 15.415702 
L 327.572042 15.415702 
L 327.911924 15.415702 
L 328.251805 15.415702 
L 328.591686 15.415702 
L 328.931567 15.415702 
L 329.271449 15.415702 
L 329.61133 15.415702 
L 329.951211 15.415702 
L 330.291092 15.415702 
L 330.630974 15.415702 
L 330.970855 15.415702 
L 331.310736 15.415702 
L 331.650618 15.415702 
L 331.990499 15.415702 
L 332.33038 15.415702 
L 332.670261 15.415702 
L 333.010143 15.415702 
L 333.350024 15.415702 
L 333.689905 15.415702 
L 334.029786 15.415702 
L 334.369668 15.415702 
L 334.709549 15.415702 
" clip-path="url(#paee2b4c404)" style="fill: none; stroke: #000000; stroke-width: 2; stroke-linecap: round"></path>
   </g>
   <g id="line2d_13">
    <g clip-path="url(#paee2b4c404)">
     <use xlink:href="#mb177ca2e77" x="301.061303" y="15.415702" style="fill: #ff0000; stroke: #ff0000"></use>
     <use xlink:href="#mb177ca2e77" x="334.709549" y="15.415702" style="fill: #ff0000; stroke: #ff0000"></use>
    </g>
   </g>
   <g id="line2d_14">
    <path d="M 334.709549 49.063942 
" clip-path="url(#paee2b4c404)" style="fill: none; stroke: #000000; stroke-width: 2; stroke-linecap: round"></path>
   </g>
   <g id="line2d_15">
    <g clip-path="url(#paee2b4c404)">
     <use xlink:href="#mb177ca2e77" x="334.709549" y="49.063942" style="fill: #ff0000; stroke: #ff0000"></use>
    </g>
   </g>
   <g id="line2d_16">
    <path d="M 334.709549 49.063942 
L 335.04943 49.471737 
L 335.389311 49.879158 
L 335.729193 50.285829 
L 336.069074 50.691377 
L 336.408955 51.095427 
L 336.748836 51.497604 
L 337.088718 51.897534 
L 337.428599 52.294843 
L 337.76848 52.689155 
L 338.108361 53.080096 
L 338.448242 53.467292 
L 338.788124 53.850369 
L 339.128005 54.228951 
L 339.467886 54.602664 
L 339.807767 54.971134 
L 340.147649 55.333986 
L 340.48753 55.690846 
L 340.827411 56.041339 
L 341.167292 56.38509 
L 341.507174 56.721725 
L 341.847055 57.05087 
L 342.186936 57.37215 
L 342.526817 57.68519 
L 342.866698 57.989617 
L 343.20658 58.285054 
L 343.546461 58.571129 
L 343.886342 58.847466 
L 344.226223 59.11369 
L 344.566105 59.369428 
L 344.905986 59.614305 
L 345.245867 59.847946 
L 345.585748 60.069977 
L 345.92563 60.280023 
L 346.265511 60.477772 
L 346.605392 60.663162 
L 346.945273 60.836192 
L 347.285154 60.996863 
L 347.625036 61.145175 
L 347.964917 61.281128 
L 348.304798 61.404721 
L 348.644679 61.515955 
L 348.984561 61.614829 
L 349.324442 61.701344 
L 349.664323 61.7755 
L 350.004204 61.837297 
L 350.344086 61.886734 
L 350.683967 61.923812 
L 351.023848 61.948531 
L 351.363729 61.96089 
L 351.703611 61.96089 
L 352.043492 61.948531 
L 352.383373 61.923812 
L 352.723254 61.886734 
L 353.063135 61.837297 
L 353.403017 61.7755 
L 353.742898 61.701344 
L 354.082779 61.614829 
L 354.42266 61.515955 
L 354.762542 61.404721 
L 355.102423 61.281128 
L 355.442304 61.145175 
L 355.782185 60.996863 
L 356.122066 60.836192 
L 356.461948 60.663162 
L 356.801829 60.477772 
L 357.14171 60.280023 
L 357.481591 60.069977 
L 357.821472 59.847946 
L 358.161354 59.614305 
L 358.501235 59.369428 
L 358.841116 59.11369 
L 359.180997 58.847466 
L 359.520878 58.571129 
L 359.86076 58.285054 
L 360.200641 57.989617 
L 360.540522 57.68519 
L 360.880403 57.37215 
L 361.220284 57.05087 
L 361.560165 56.721725 
L 361.900047 56.38509 
L 362.239928 56.041339 
L 362.579809 55.690846 
L 362.91969 55.333986 
L 363.259571 54.971134 
L 363.599453 54.602664 
L 363.939334 54.228951 
L 364.279215 53.850369 
L 364.619096 53.467292 
L 364.958977 53.080096 
L 365.298858 52.689155 
L 365.63874 52.294843 
L 365.978621 51.897534 
L 366.318502 51.497604 
L 366.658383 51.095427 
L 366.998264 50.691377 
L 367.338145 50.285829 
L 367.678027 49.879158 
L 368.017908 49.471737 
L 368.357789 49.063942 
" clip-path="url(#paee2b4c404)" style="fill: none; stroke: #000000; stroke-width: 2; stroke-linecap: round"></path>
   </g>
   <g id="line2d_17">
    <g clip-path="url(#paee2b4c404)">
     <use xlink:href="#mb177ca2e77" x="334.709549" y="49.063942" style="fill: #ff0000; stroke: #ff0000"></use>
     <use xlink:href="#mb177ca2e77" x="345.92563" y="60.280023" style="fill: #ff0000; stroke: #ff0000"></use>
     <use xlink:href="#mb177ca2e77" x="357.14171" y="60.280023" style="fill: #ff0000; stroke: #ff0000"></use>
     <use xlink:href="#mb177ca2e77" x="368.357789" y="49.063942" style="fill: #ff0000; stroke: #ff0000"></use>
    </g>
   </g>
  </g>
 </g>
 <defs>
  <clipPath id="paee2b4c404">
   <rect x="7.2" y="7.2" width="446.4" height="57.368551"></rect>
  </clipPath>
 </defs>
</svg>
