<!--?xml version="1.0" encoding="utf-8" standalone="no"?-->

<svg xmlns:xlink="http://www.w3.org/1999/xlink" width="460.8pt" height="135.247851pt" viewBox="0 0 460.8 135.247851" xmlns="http://www.w3.org/2000/svg" version="1.1">
 <metadata>
  <rdf:rdf xmlns:dc="http://purl.org/dc/elements/1.1/" xmlns:cc="http://creativecommons.org/ns#" xmlns:rdf="http://www.w3.org/1999/02/22-rdf-syntax-ns#">
   <cc:work>
    <dc:type rdf:resource="http://purl.org/dc/dcmitype/StillImage"></dc:type>
    <dc:date>2024-10-04T07:47:09.888149</dc:date>
    <dc:format>image/svg+xml</dc:format>
    <dc:creator>
     <cc:agent>
      <dc:title>Matplotlib v3.9.1.post1, https://matplotlib.org/</dc:title>
     </cc:agent>
    </dc:creator>
   </cc:work>
  </rdf:rdf>
 </metadata>
 <defs>
  <style type="text/css">*{stroke-linejoin: round; stroke-linecap: butt}</style>
 </defs>
 <g id="figure_1">
  <g id="patch_1">
   <path d="M 0 135.247851 
L 460.8 135.247851 
L 460.8 0 
L 0 0 
z
" style="fill: #ffffff"></path>
  </g>
  <g id="axes_1">
   <g id="line2d_1">
    <path d="M 7.2 40.506168 
L 453.6 40.506168 
" clip-path="url(#p72e9fc38d4)" style="fill: none; stroke-dasharray: 5.55,2.4; stroke-dashoffset: 0; stroke: #d3d3d3; stroke-width: 1.5"></path>
   </g>
   <g id="line2d_2">
    <path d="M 7.2 108.648225 
L 453.6 108.648225 
" clip-path="url(#p72e9fc38d4)" style="fill: none; stroke-dasharray: 5.55,2.4; stroke-dashoffset: 0; stroke: #d3d3d3; stroke-width: 1.5"></path>
   </g>
   <g id="line2d_3">
    <path d="M 33.62243 40.506168 
L 33.692665 40.418375 
L 33.7629 40.330581 
L 33.833135 40.242787 
L 33.90337 40.154993 
L 33.973605 40.067199 
L 34.04384 39.979405 
L 34.114075 39.891612 
L 34.18431 39.803818 
L 34.254545 39.716024 
L 34.32478 39.62823 
L 34.395016 39.540436 
L 34.465251 39.452642 
L 34.535486 39.364849 
L 34.605721 39.277055 
L 34.675956 39.189261 
L 34.746191 39.101467 
L 34.816426 39.013673 
L 34.886661 38.925879 
L 34.956896 38.838086 
L 35.027131 38.750292 
L 35.097366 38.662498 
L 35.167601 38.574704 
L 35.237836 38.48691 
L 35.308071 38.399117 
L 35.378306 38.311323 
L 35.448541 38.223529 
L 35.518777 38.135735 
L 35.589012 38.047941 
L 35.659247 37.960147 
L 35.729482 37.872354 
L 35.799717 37.78456 
L 35.869952 37.696766 
L 35.940187 37.608972 
L 36.010422 37.521178 
L 36.080657 37.433384 
L 36.150892 37.345591 
L 36.221127 37.257797 
L 36.291362 37.170003 
L 36.361597 37.082209 
L 36.431832 36.994415 
L 36.502067 36.906621 
L 36.572302 36.818828 
L 36.642537 36.731034 
L 36.712773 36.64324 
L 36.783008 36.555446 
L 36.853243 36.467652 
L 36.923478 36.379858 
L 36.993713 36.292065 
L 37.063948 36.204271 
L 37.134183 36.116477 
L 37.204418 36.028683 
L 37.274653 35.940889 
L 37.344888 35.853095 
L 37.415123 35.765302 
L 37.485358 35.677508 
L 37.555593 35.589714 
L 37.625828 35.50192 
L 37.696063 35.414126 
L 37.766298 35.326332 
L 37.836534 35.238539 
L 37.906769 35.150745 
L 37.977004 35.062951 
L 38.047239 34.975157 
L 38.117474 34.887363 
L 38.187709 34.79957 
L 38.257944 34.711776 
L 38.328179 34.623982 
L 38.398414 34.536188 
L 38.468649 34.448394 
L 38.538884 34.3606 
L 38.609119 34.272807 
L 38.679354 34.185013 
L 38.749589 34.097219 
L 38.819824 34.009425 
L 38.890059 33.921631 
L 38.960295 33.833837 
L 39.03053 33.746044 
L 39.100765 33.65825 
L 39.171 33.570456 
L 39.241235 33.482662 
L 39.31147 33.394868 
L 39.381705 33.307074 
L 39.45194 33.219281 
L 39.522175 33.131487 
L 39.59241 33.043693 
L 39.662645 32.955899 
L 39.73288 32.868105 
L 39.803115 32.780311 
L 39.87335 32.692518 
L 39.943585 32.604724 
L 40.01382 32.51693 
L 40.084055 32.429136 
L 40.154291 32.341342 
L 40.224526 32.253548 
L 40.294761 32.165755 
L 40.364996 32.077961 
L 40.435231 31.990167 
L 40.505466 31.902373 
L 40.575701 31.814579 
" clip-path="url(#p72e9fc38d4)" style="fill: none; stroke: #000000; stroke-width: 2; stroke-linecap: round"></path>
   </g>
   <g id="line2d_4">
    <path d="M 40.575701 28.337944 
" clip-path="url(#p72e9fc38d4)" style="fill: none; stroke: #000000; stroke-width: 2; stroke-linecap: round"></path>
   </g>
   <g id="line2d_5">
    <path d="M 40.575701 31.814579 
" clip-path="url(#p72e9fc38d4)" style="fill: none; stroke: #000000; stroke-width: 2; stroke-linecap: round"></path>
   </g>
   <g id="line2d_6">
    <path d="M 40.575701 31.814579 
L 40.742071 31.665612 
L 40.908582 31.517584 
L 41.075376 31.371433 
L 41.242594 31.228098 
L 41.410379 31.088517 
L 41.57887 30.953629 
L 41.74821 30.824373 
L 41.91854 30.701688 
L 42.090001 30.586511 
L 42.262736 30.479782 
L 42.436884 30.38244 
L 42.612589 30.295422 
L 42.789991 30.219667 
L 42.969231 30.156115 
L 43.150452 30.105703 
L 43.333794 30.069371 
L 43.519399 30.048057 
L 43.707409 30.042699 
L 43.897964 30.054237 
L 44.091206 30.083606 
L 44.287034 30.131291 
L 44.484814 30.196766 
L 44.683838 30.279369 
L 44.8834 30.378438 
L 45.082793 30.493311 
L 45.281308 30.623324 
L 45.47824 30.767817 
L 45.67288 30.926128 
L 45.864521 31.097592 
L 46.052457 31.28155 
L 46.23598 31.477338 
L 46.414384 31.684295 
L 46.58696 31.901757 
L 46.753001 32.129064 
L 46.911801 32.365553 
L 47.062653 32.610561 
L 47.204848 32.863426 
L 47.337681 33.123487 
L 47.460443 33.390081 
L 47.572435 33.662542 
L 47.673251 33.940075 
L 47.762865 34.221713 
L 47.841277 34.50648 
L 47.908488 34.793397 
L 47.964497 35.081489 
L 48.009304 35.369777 
L 48.042909 35.657285 
L 48.065312 35.943035 
L 48.076514 36.226051 
L 48.076514 36.505354 
L 48.065312 36.779968 
L 48.042909 37.048915 
L 48.009304 37.311219 
L 47.964497 37.565902 
L 47.908488 37.811987 
L 47.841277 38.048497 
L 47.762865 38.274455 
L 47.673251 38.488882 
L 47.572435 38.690803 
L 47.460443 38.879295 
L 47.337681 39.054251 
L 47.204848 39.216197 
L 47.062653 39.365672 
L 46.911801 39.503216 
L 46.753001 39.62937 
L 46.58696 39.744672 
L 46.414384 39.849664 
L 46.23598 39.944886 
L 46.052457 40.030876 
L 45.864521 40.108176 
L 45.67288 40.177326 
L 45.47824 40.238865 
L 45.281308 40.293333 
L 45.082793 40.341271 
L 44.8834 40.383218 
L 44.683838 40.419715 
L 44.484814 40.451302 
L 44.287034 40.478518 
L 44.091206 40.501903 
L 43.897964 40.521966 
L 43.707409 40.538975 
L 43.519399 40.553091 
L 43.333794 40.564474 
L 43.150452 40.573286 
L 42.969231 40.579687 
L 42.789991 40.583838 
L 42.612589 40.5859 
L 42.436884 40.586033 
L 42.262736 40.584398 
L 42.090001 40.581155 
L 41.91854 40.576467 
L 41.74821 40.570492 
L 41.57887 40.563392 
L 41.410379 40.555328 
L 41.242594 40.546461 
L 41.075376 40.53695 
L 40.908582 40.526957 
L 40.742071 40.516643 
L 40.575701 40.506168 
" clip-path="url(#p72e9fc38d4)" style="fill: none; stroke: #000000; stroke-width: 2; stroke-linecap: round"></path>
   </g>
   <g id="line2d_7">
    <path d="M 73.951402 21.384673 
L 74.004078 21.472467 
L 74.056754 21.560261 
L 74.109431 21.648055 
L 74.162107 21.735849 
L 74.214783 21.823642 
L 74.26746 21.911436 
L 74.320136 21.99923 
L 74.372812 22.087024 
L 74.425488 22.174818 
L 74.478165 22.262612 
L 74.530841 22.350405 
L 74.583517 22.438199 
L 74.636194 22.525993 
L 74.68887 22.613787 
L 74.741546 22.701581 
L 74.794223 22.789374 
L 74.846899 22.877168 
L 74.899575 22.964962 
L 74.952251 23.052756 
L 75.004928 23.14055 
L 75.057604 23.228344 
L 75.11028 23.316137 
L 75.162957 23.403931 
L 75.215633 23.491725 
L 75.268309 23.579519 
L 75.320985 23.667313 
L 75.373662 23.755107 
L 75.426338 23.8429 
L 75.479014 23.930694 
L 75.531691 24.018488 
L 75.584367 24.106282 
L 75.637043 24.194076 
L 75.68972 24.28187 
L 75.742396 24.369663 
L 75.795072 24.457457 
L 75.847748 24.545251 
L 75.900425 24.633045 
L 75.953101 24.720839 
L 76.005777 24.808633 
L 76.058454 24.896426 
L 76.11113 24.98422 
L 76.163806 25.072014 
L 76.216482 25.159808 
L 76.269159 25.247602 
L 76.321835 25.335396 
L 76.374511 25.423189 
L 76.427188 25.510983 
L 76.479864 25.598777 
L 76.53254 25.686571 
L 76.585217 25.774365 
L 76.637893 25.862158 
L 76.690569 25.949952 
L 76.743245 26.037746 
L 76.795922 26.12554 
L 76.848598 26.213334 
L 76.901274 26.301128 
L 76.953951 26.388921 
L 77.006627 26.476715 
L 77.059303 26.564509 
L 77.111979 26.652303 
L 77.164656 26.740097 
L 77.217332 26.827891 
L 77.270008 26.915684 
L 77.322685 27.003478 
L 77.375361 27.091272 
L 77.428037 27.179066 
L 77.480714 27.26686 
L 77.53339 27.354654 
L 77.586066 27.442447 
L 77.638742 27.530241 
L 77.691419 27.618035 
L 77.744095 27.705829 
L 77.796771 27.793623 
L 77.849448 27.881417 
L 77.902124 27.96921 
L 77.9548 28.057004 
L 78.007476 28.144798 
L 78.060153 28.232592 
L 78.112829 28.320386 
L 78.165505 28.40818 
L 78.218182 28.495973 
L 78.270858 28.583767 
L 78.323534 28.671561 
L 78.376211 28.759355 
L 78.428887 28.847149 
L 78.481563 28.934943 
L 78.534239 29.022736 
L 78.586916 29.11053 
L 78.639592 29.198324 
L 78.692268 29.286118 
L 78.744945 29.373912 
L 78.797621 29.461705 
L 78.850297 29.549499 
L 78.902973 29.637293 
L 78.95565 29.725087 
L 79.008326 29.812881 
L 79.061002 29.900675 
L 79.113679 29.988468 
L 79.166355 30.076262 
" clip-path="url(#p72e9fc38d4)" style="fill: none; stroke: #000000; stroke-width: 2; stroke-linecap: round"></path>
   </g>
   <g id="line2d_8">
    <path d="M 112.542056 31.814579 
L 112.375686 31.665612 
L 112.209175 31.517584 
L 112.042381 31.371433 
L 111.875162 31.228098 
L 111.707378 31.088517 
L 111.538887 30.953629 
L 111.369547 30.824373 
L 111.199217 30.701688 
L 111.027756 30.586511 
L 110.855021 30.479782 
L 110.680872 30.38244 
L 110.505168 30.295422 
L 110.327766 30.219667 
L 110.148525 30.156115 
L 109.967305 30.105703 
L 109.783963 30.069371 
L 109.598358 30.048057 
L 109.410348 30.042699 
L 109.219793 30.054237 
L 109.026551 30.083606 
L 108.830723 30.131291 
L 108.632943 30.196766 
L 108.433918 30.279369 
L 108.234356 30.378438 
L 108.034964 30.493311 
L 107.836449 30.623324 
L 107.639517 30.767817 
L 107.444877 30.926128 
L 107.253235 31.097592 
L 107.065299 31.28155 
L 106.881776 31.477338 
L 106.703373 31.684295 
L 106.530797 31.901757 
L 106.364755 32.129064 
L 106.205955 32.365553 
L 106.055104 32.610561 
L 105.912909 32.863426 
L 105.780076 33.123487 
L 105.657314 33.390081 
L 105.545322 33.662542 
L 105.444506 33.940075 
L 105.354892 34.221713 
L 105.27648 34.50648 
L 105.209269 34.793397 
L 105.15326 35.081489 
L 105.108453 35.369777 
L 105.074848 35.657285 
L 105.052444 35.943035 
L 105.041243 36.226051 
L 105.041243 36.505354 
L 105.052444 36.779968 
L 105.074848 37.048915 
L 105.108453 37.311219 
L 105.15326 37.565902 
L 105.209269 37.811987 
L 105.27648 38.048497 
L 105.354892 38.274455 
L 105.444506 38.488882 
L 105.545322 38.690803 
L 105.657314 38.879295 
L 105.780076 39.054251 
L 105.912909 39.216197 
L 106.055104 39.365672 
L 106.205955 39.503216 
L 106.364755 39.62937 
L 106.530797 39.744672 
L 106.703373 39.849664 
L 106.881776 39.944886 
L 107.065299 40.030876 
L 107.253235 40.108176 
L 107.444877 40.177326 
L 107.639517 40.238865 
L 107.836449 40.293333 
L 108.034964 40.341271 
L 108.234356 40.383218 
L 108.433918 40.419715 
L 108.632943 40.451302 
L 108.830723 40.478518 
L 109.026551 40.501903 
L 109.219793 40.521966 
L 109.410348 40.538975 
L 109.598358 40.553091 
L 109.783963 40.564474 
L 109.967305 40.573286 
L 110.148525 40.579687 
L 110.327766 40.583838 
L 110.505168 40.5859 
L 110.680872 40.586033 
L 110.855021 40.584398 
L 111.027756 40.581155 
L 111.199217 40.576467 
L 111.369547 40.570492 
L 111.538887 40.563392 
L 111.707378 40.555328 
L 111.875162 40.546461 
L 112.042381 40.53695 
L 112.209175 40.526957 
L 112.375686 40.516643 
L 112.542056 40.506168 
" clip-path="url(#p72e9fc38d4)" style="fill: none; stroke: #000000; stroke-width: 2; stroke-linecap: round"></path>
   </g>
   <g id="line2d_9">
    <path d="M 112.542056 40.506168 
L 112.647408 40.379765 
L 112.752761 40.253477 
L 112.858114 40.127421 
L 112.963466 40.001714 
L 113.068819 39.876471 
L 113.174171 39.751809 
L 113.279524 39.627843 
L 113.384877 39.50469 
L 113.490229 39.382465 
L 113.595582 39.261286 
L 113.700934 39.141267 
L 113.806287 39.022525 
L 113.91164 38.905177 
L 114.016992 38.789337 
L 114.122345 38.675123 
L 114.227697 38.56265 
L 114.33305 38.452035 
L 114.438402 38.343393 
L 114.543755 38.236841 
L 114.649108 38.132494 
L 114.75446 38.03047 
L 114.859813 37.930883 
L 114.965165 37.83385 
L 115.070518 37.739487 
L 115.175871 37.647911 
L 115.281223 37.559237 
L 115.386576 37.473581 
L 115.491928 37.39106 
L 115.597281 37.311789 
L 115.702634 37.235885 
L 115.807986 37.163463 
L 115.913339 37.094641 
L 116.018691 37.029533 
L 116.124044 36.968237 
L 116.229397 36.910772 
L 116.334749 36.857138 
L 116.440102 36.807335 
L 116.545454 36.761363 
L 116.650807 36.719222 
L 116.75616 36.680912 
L 116.861512 36.646433 
L 116.966865 36.615785 
L 117.072217 36.588967 
L 117.17757 36.565981 
L 117.282922 36.546826 
L 117.388275 36.531502 
L 117.493628 36.520009 
L 117.59898 36.512347 
L 117.704333 36.508516 
L 117.809685 36.508516 
L 117.915038 36.512347 
L 118.020391 36.520009 
L 118.125743 36.531502 
L 118.231096 36.546826 
L 118.336448 36.565981 
L 118.441801 36.588967 
L 118.547154 36.615785 
L 118.652506 36.646433 
L 118.757859 36.680912 
L 118.863211 36.719222 
L 118.968564 36.761363 
L 119.073917 36.807335 
L 119.179269 36.857138 
L 119.284622 36.910772 
L 119.389974 36.968237 
L 119.495327 37.029533 
L 119.600679 37.094641 
L 119.706032 37.163463 
L 119.811385 37.235885 
L 119.916737 37.311789 
L 120.02209 37.39106 
L 120.127442 37.473581 
L 120.232795 37.559237 
L 120.338148 37.647911 
L 120.4435 37.739487 
L 120.548853 37.83385 
L 120.654205 37.930883 
L 120.759558 38.03047 
L 120.86491 38.132494 
L 120.970263 38.236841 
L 121.075616 38.343393 
L 121.180968 38.452035 
L 121.286321 38.56265 
L 121.391673 38.675123 
L 121.497026 38.789337 
L 121.602378 38.905177 
L 121.707731 39.022525 
L 121.813084 39.141267 
L 121.918436 39.261286 
L 122.023789 39.382465 
L 122.129141 39.50469 
L 122.234494 39.627843 
L 122.339846 39.751809 
L 122.445199 39.876471 
L 122.550552 40.001714 
L 122.655904 40.127421 
L 122.761257 40.253477 
L 122.866609 40.379765 
L 122.971962 40.506168 
" clip-path="url(#p72e9fc38d4)" style="fill: none; stroke: #000000; stroke-width: 2; stroke-linecap: round"></path>
   </g>
   <g id="line2d_10">
    <path d="M 122.971962 40.506168 
L 123.077315 40.632572 
L 123.182667 40.75886 
L 123.28802 40.884915 
L 123.393372 41.010623 
L 123.498725 41.135865 
L 123.604078 41.260528 
L 123.70943 41.384494 
L 123.814783 41.507647 
L 123.920135 41.629871 
L 124.025488 41.751051 
L 124.130841 41.87107 
L 124.236193 41.989812 
L 124.341546 42.10716 
L 124.446898 42.223 
L 124.552251 42.337214 
L 124.657604 42.449687 
L 124.762956 42.560302 
L 124.868309 42.668944 
L 124.973661 42.775496 
L 125.079014 42.879843 
L 125.184367 42.981867 
L 125.289719 43.081454 
L 125.395072 43.178487 
L 125.500424 43.272849 
L 125.605777 43.364426 
L 125.71113 43.4531 
L 125.816482 43.538756 
L 125.921835 43.621277 
L 126.027188 43.700548 
L 126.13254 43.776452 
L 126.237893 43.848874 
L 126.343245 43.917696 
L 126.448598 43.982804 
L 126.553951 44.0441 
L 126.659303 44.101565 
L 126.764656 44.155199 
L 126.870008 44.205002 
L 126.975361 44.250974 
L 127.080714 44.293115 
L 127.186066 44.331425 
L 127.291419 44.365904 
L 127.396772 44.396552 
L 127.502124 44.423369 
L 127.607477 44.446355 
L 127.712829 44.46551 
L 127.818182 44.480834 
L 127.923535 44.492327 
L 128.028887 44.499989 
L 128.13424 44.50382 
L 128.239592 44.50382 
L 128.344945 44.499989 
L 128.450298 44.492327 
L 128.55565 44.480834 
L 128.661003 44.46551 
L 128.766355 44.446355 
L 128.871708 44.423369 
L 128.977061 44.396552 
L 129.082413 44.365904 
L 129.187766 44.331425 
L 129.293118 44.293115 
L 129.398471 44.250974 
L 129.503824 44.205002 
L 129.609176 44.155199 
L 129.714529 44.101565 
L 129.819881 44.0441 
L 129.925234 43.982804 
L 130.030587 43.917696 
L 130.135939 43.848874 
L 130.241292 43.776452 
L 130.346644 43.700548 
L 130.451997 43.621277 
L 130.557349 43.538756 
L 130.662702 43.4531 
L 130.768055 43.364426 
L 130.873407 43.272849 
L 130.97876 43.178487 
L 131.084112 43.081454 
L 131.189465 42.981867 
L 131.294817 42.879843 
L 131.40017 42.775496 
L 131.505522 42.668944 
L 131.610875 42.560302 
L 131.716227 42.449687 
L 131.82158 42.337214 
L 131.926933 42.223 
L 132.032285 42.10716 
L 132.137638 41.989812 
L 132.24299 41.87107 
L 132.348343 41.751051 
L 132.453695 41.629871 
L 132.559048 41.507647 
L 132.6644 41.384494 
L 132.769753 41.260528 
L 132.875105 41.135865 
L 132.980458 41.010623 
L 133.08581 40.884915 
L 133.191163 40.75886 
L 133.296516 40.632572 
L 133.401868 40.506168 
" clip-path="url(#p72e9fc38d4)" style="fill: none; stroke: #000000; stroke-width: 2; stroke-linecap: round"></path>
   </g>
   <g id="line2d_11">
    <path d="M 159.824298 31.814579 
L 159.999943 32.025285 
L 160.175932 32.23599 
L 160.352609 32.446695 
L 160.530318 32.6574 
L 160.709402 32.868105 
L 160.890207 33.078811 
L 161.073075 33.289516 
L 161.258351 33.500221 
L 161.446379 33.710926 
L 161.637503 33.921631 
L 161.832067 34.132336 
L 162.030414 34.343042 
L 162.232889 34.553747 
L 162.439835 34.764452 
L 162.651598 34.975157 
L 162.868519 35.185862 
L 163.090945 35.396568 
L 163.319218 35.607273 
L 163.553682 35.817978 
L 163.794682 36.028683 
L 164.042561 36.239388 
L 164.297664 36.450094 
L 164.560334 36.660799 
L 164.830916 36.871504 
L 165.109751 37.082207 
L 165.396965 37.29269 
L 165.692263 37.502314 
L 165.9953 37.710389 
L 166.305732 37.916228 
L 166.623216 38.119144 
L 166.947407 38.318448 
L 167.277962 38.513452 
L 167.614537 38.703469 
L 167.956786 38.88781 
L 168.304368 39.065787 
L 168.656937 39.236713 
L 169.01415 39.3999 
L 169.375662 39.554659 
L 169.74113 39.700303 
L 170.11021 39.836144 
L 170.482558 39.961494 
L 170.857829 40.075664 
L 171.23568 40.177968 
L 171.615767 40.267716 
L 171.997746 40.344221 
L 172.381273 40.406796 
L 172.766004 40.454752 
L 173.151594 40.4874 
L 173.537701 40.504054 
L 173.923979 40.504054 
L 174.310086 40.4874 
L 174.695676 40.454752 
L 175.080407 40.406796 
L 175.463934 40.344221 
L 175.845913 40.267716 
L 176.226 40.177968 
L 176.603851 40.075664 
L 176.979122 39.961494 
L 177.35147 39.836144 
L 177.72055 39.700303 
L 178.086018 39.554659 
L 178.44753 39.3999 
L 178.804743 39.236713 
L 179.157312 39.065787 
L 179.504894 38.88781 
L 179.847144 38.703469 
L 180.183718 38.513452 
L 180.514273 38.318448 
L 180.838464 38.119144 
L 181.155948 37.916228 
L 181.46638 37.710389 
L 181.769417 37.502314 
L 182.064715 37.29269 
L 182.351929 37.082207 
L 182.630764 36.871504 
L 182.901346 36.660799 
L 183.164016 36.450094 
L 183.419119 36.239388 
L 183.666998 36.028683 
L 183.907998 35.817978 
L 184.142463 35.607273 
L 184.370735 35.396568 
L 184.593161 35.185862 
L 184.810083 34.975157 
L 185.021845 34.764452 
L 185.228791 34.553747 
L 185.431266 34.343042 
L 185.629613 34.132336 
L 185.824177 33.921631 
L 186.015301 33.710926 
L 186.203329 33.500221 
L 186.388605 33.289516 
L 186.571473 33.078811 
L 186.752278 32.868105 
L 186.931363 32.6574 
L 187.109071 32.446695 
L 187.285748 32.23599 
L 187.461737 32.025285 
L 187.637382 31.814579 
" clip-path="url(#p72e9fc38d4)" style="fill: none; stroke: #000000; stroke-width: 2; stroke-linecap: round"></path>
   </g>
   <g id="line2d_12">
    <path d="M 187.637382 31.814579 
L 187.95344 31.814579 
L 188.269498 31.814579 
L 188.585556 31.814579 
L 188.901613 31.814579 
L 189.217671 31.814579 
L 189.533729 31.814579 
L 189.849787 31.814579 
L 190.165844 31.814579 
L 190.481902 31.814579 
L 190.79796 31.814579 
L 191.114018 31.814579 
L 191.430076 31.814579 
L 191.746133 31.814579 
L 192.062191 31.814579 
L 192.378249 31.814579 
L 192.694307 31.814579 
L 193.010364 31.814579 
L 193.326422 31.814579 
L 193.64248 31.814579 
L 193.958538 31.814579 
L 194.274596 31.814579 
L 194.590653 31.814579 
L 194.906711 31.814579 
L 195.222769 31.814579 
L 195.538827 31.814579 
L 195.854884 31.814579 
L 196.170942 31.814579 
L 196.487 31.814579 
L 196.803058 31.814579 
L 197.119116 31.814579 
L 197.435173 31.814579 
L 197.751231 31.814579 
L 198.067289 31.814579 
L 198.383347 31.814579 
L 198.699405 31.814579 
L 199.015462 31.814579 
L 199.33152 31.814579 
L 199.647578 31.814579 
L 199.963636 31.814579 
L 200.279693 31.814579 
L 200.595751 31.814579 
L 200.911809 31.814579 
L 201.227867 31.814579 
L 201.543925 31.814579 
L 201.859982 31.814579 
L 202.17604 31.814579 
L 202.492098 31.814579 
L 202.808156 31.814579 
L 203.124213 31.814579 
L 203.440271 31.814579 
L 203.756329 31.814579 
L 204.072387 31.814579 
L 204.388445 31.814579 
L 204.704502 31.814579 
L 205.02056 31.814579 
L 205.336618 31.814579 
L 205.652676 31.814579 
L 205.968733 31.814579 
L 206.284791 31.814579 
L 206.600849 31.814579 
L 206.916907 31.814579 
L 207.232965 31.814579 
L 207.549022 31.814579 
L 207.86508 31.814579 
L 208.181138 31.814579 
L 208.497196 31.814579 
L 208.813253 31.814579 
L 209.129311 31.814579 
L 209.445369 31.814579 
L 209.761427 31.814579 
L 210.077485 31.814579 
L 210.393542 31.814579 
L 210.7096 31.814579 
L 211.025658 31.814579 
L 211.341716 31.814579 
L 211.657774 31.814579 
L 211.973831 31.814579 
L 212.289889 31.814579 
L 212.605947 31.814579 
L 212.922005 31.814579 
L 213.238062 31.814579 
L 213.55412 31.814579 
L 213.870178 31.814579 
L 214.186236 31.814579 
L 214.502294 31.814579 
L 214.818351 31.814579 
L 215.134409 31.814579 
L 215.450467 31.814579 
L 215.766525 31.814579 
L 216.082582 31.814579 
L 216.39864 31.814579 
L 216.714698 31.814579 
L 217.030756 31.814579 
L 217.346814 31.814579 
L 217.662871 31.814579 
L 217.978929 31.814579 
L 218.294987 31.814579 
L 218.611045 31.814579 
L 218.927102 31.814579 
" clip-path="url(#p72e9fc38d4)" style="fill: none; stroke: #000000; stroke-width: 2; stroke-linecap: round"></path>
   </g>
   <g id="line2d_13">
    <path d="M 254.041121 12.693084 
L 253.829164 12.868729 
L 253.617219 13.044718 
L 253.405299 13.221395 
L 253.193415 13.399104 
L 252.98158 13.578188 
L 252.769807 13.758993 
L 252.558108 13.941861 
L 252.346495 14.127138 
L 252.134979 14.315166 
L 251.923575 14.506289 
L 251.712293 14.700853 
L 251.501147 14.8992 
L 251.290148 15.101675 
L 251.079308 15.308622 
L 250.868641 15.520384 
L 250.658158 15.737306 
L 250.447871 15.959731 
L 250.237793 16.188004 
L 250.027936 16.422468 
L 249.818313 16.663468 
L 249.608936 16.911348 
L 249.399816 17.16645 
L 249.190967 17.429121 
L 248.9824 17.699702 
L 248.77413 17.978537 
L 248.566363 18.265752 
L 248.359684 18.561049 
L 248.154719 18.864086 
L 247.952093 19.174518 
L 247.752435 19.492002 
L 247.55637 19.816194 
L 247.364524 20.146748 
L 247.177525 20.483323 
L 246.995999 20.825573 
L 246.820572 21.173154 
L 246.651871 21.525723 
L 246.490523 21.882936 
L 246.337153 22.244449 
L 246.192389 22.609917 
L 246.056857 22.978997 
L 245.931184 23.351344 
L 245.815995 23.726616 
L 245.711918 24.104467 
L 245.61958 24.484554 
L 245.539605 24.866533 
L 245.472622 25.250059 
L 245.419257 25.63479 
L 245.380136 26.02038 
L 245.355885 26.406487 
L 245.347109 26.792766 
L 245.353894 27.178872 
L 245.375808 27.564463 
L 245.412396 27.949193 
L 245.463203 28.33272 
L 245.527775 28.714699 
L 245.605658 29.094786 
L 245.696397 29.472637 
L 245.799538 29.847908 
L 245.914625 30.220256 
L 246.041205 30.589336 
L 246.178823 30.954804 
L 246.327024 31.316316 
L 246.485353 31.673529 
L 246.653357 32.026098 
L 246.830581 32.37368 
L 247.01657 32.71593 
L 247.210869 33.052504 
L 247.413025 33.383059 
L 247.622582 33.70725 
L 247.839086 34.024734 
L 248.062083 34.335166 
L 248.291118 34.638203 
L 248.525736 34.933501 
L 248.765483 35.220715 
L 249.009923 35.49955 
L 249.258787 35.770132 
L 249.511889 36.032802 
L 249.769044 36.287905 
L 250.03007 36.535784 
L 250.294781 36.776784 
L 250.562993 37.011249 
L 250.834522 37.239522 
L 251.109183 37.461947 
L 251.386793 37.678869 
L 251.667167 37.890631 
L 251.950121 38.097578 
L 252.23547 38.300052 
L 252.523031 38.4984 
L 252.812619 38.692963 
L 253.104049 38.884087 
L 253.397137 39.072115 
L 253.6917 39.257391 
L 253.987553 39.44026 
L 254.284512 39.621064 
L 254.582391 39.800149 
L 254.881008 39.977858 
L 255.180178 40.154534 
L 255.479716 40.330523 
L 255.779438 40.506168 
" clip-path="url(#p72e9fc38d4)" style="fill: none; stroke: #000000; stroke-width: 2; stroke-linecap: round"></path>
   </g>
   <g id="line2d_14">
    <path d="M 255.779438 40.506168 
L 255.990029 40.272925 
L 256.199932 40.039902 
L 256.408458 39.807321 
L 256.614921 39.575404 
L 256.818632 39.344372 
L 257.018904 39.114445 
L 257.215047 38.885844 
L 257.406375 38.658792 
L 257.5922 38.433509 
L 257.771833 38.210215 
L 257.944586 37.989133 
L 258.109772 37.770484 
L 258.266703 37.554488 
L 258.41469 37.341366 
L 258.553047 37.131341 
L 258.681084 36.924632 
L 258.798113 36.721461 
L 258.903448 36.52205 
L 258.9964 36.326618 
L 259.07628 36.135388 
L 259.142402 35.948581 
L 259.194077 35.766417 
L 259.230617 35.589118 
L 259.251334 35.416905 
L 259.255544 35.249999 
L 259.242996 35.088636 
L 259.214282 34.933085 
L 259.170088 34.783614 
L 259.111104 34.640495 
L 259.038017 34.503997 
L 258.951515 34.374391 
L 258.852285 34.251947 
L 258.741017 34.136936 
L 258.618398 34.029626 
L 258.485115 33.93029 
L 258.341858 33.839197 
L 258.189312 33.756617 
L 258.028168 33.68282 
L 257.859112 33.618078 
L 257.682833 33.562659 
L 257.500018 33.516835 
L 257.311356 33.480876 
L 257.117534 33.455052 
L 256.919241 33.439633 
L 256.717164 33.434889 
L 256.511991 33.441091 
L 256.30441 33.458509 
L 256.095109 33.487413 
L 255.884777 33.528074 
L 255.6741 33.580743 
L 255.463768 33.645248 
L 255.254467 33.720994 
L 255.046886 33.807367 
L 254.841713 33.903751 
L 254.639636 34.009534 
L 254.441343 34.124099 
L 254.247521 34.246835 
L 254.058859 34.377125 
L 253.876044 34.514356 
L 253.699765 34.657914 
L 253.530709 34.807185 
L 253.369565 34.961553 
L 253.21702 35.120406 
L 253.073762 35.283128 
L 252.94048 35.449106 
L 252.81786 35.617725 
L 252.706592 35.78837 
L 252.607363 35.960429 
L 252.520861 36.133286 
L 252.447774 36.306327 
L 252.38879 36.478939 
L 252.344596 36.650506 
L 252.315882 36.820415 
L 252.303334 36.988051 
L 252.307544 37.152852 
L 252.328261 37.314706 
L 252.364801 37.473736 
L 252.416476 37.630062 
L 252.482598 37.783809 
L 252.562478 37.935098 
L 252.65543 38.084054 
L 252.760764 38.230798 
L 252.877794 38.375454 
L 253.005831 38.518144 
L 253.144187 38.658992 
L 253.292175 38.79812 
L 253.449105 38.935651 
L 253.614291 39.071707 
L 253.787045 39.206412 
L 253.966678 39.339889 
L 254.152502 39.47226 
L 254.34383 39.603649 
L 254.539974 39.734177 
L 254.740245 39.863968 
L 254.943956 39.993145 
L 255.150419 40.121831 
L 255.358945 40.250148 
L 255.568848 40.37822 
L 255.779438 40.506168 
" clip-path="url(#p72e9fc38d4)" style="fill: none; stroke: #000000; stroke-width: 2; stroke-linecap: round"></path>
   </g>
   <g id="line2d_15">
    <path d="M 255.779438 40.506168 
L 256.007695 40.497378 
L 256.235909 40.488524 
L 256.464037 40.47954 
L 256.692036 40.470363 
L 256.919862 40.460928 
L 257.147474 40.45117 
L 257.374828 40.441026 
L 257.601881 40.43043 
L 257.82859 40.419318 
L 258.054912 40.407625 
L 258.280804 40.395288 
L 258.506223 40.382241 
L 258.731126 40.368421 
L 258.95547 40.353761 
L 259.179212 40.338199 
L 259.402309 40.32167 
L 259.624718 40.304108 
L 259.846396 40.28545 
L 260.067301 40.265632 
L 260.287388 40.244587 
L 260.506616 40.222253 
L 260.72494 40.198565 
L 260.942319 40.173458 
L 261.158709 40.146867 
L 261.374066 40.118728 
L 261.588349 40.088977 
L 261.801514 40.057549 
L 262.013518 40.02438 
L 262.224318 39.989405 
L 262.433871 39.952559 
L 262.642135 39.913779 
L 262.849065 39.872999 
L 263.05462 39.830156 
L 263.258755 39.785184 
L 263.461429 39.738019 
L 263.662598 39.688597 
L 263.862219 39.636854 
L 264.060249 39.582724 
L 264.256645 39.526143 
L 264.451365 39.467046 
L 264.644364 39.40537 
L 264.835601 39.34105 
L 265.025032 39.274021 
L 265.212614 39.204218 
L 265.398304 39.131578 
L 265.582059 39.056036 
L 265.763836 38.977527 
L 265.943593 38.895986 
L 266.121286 38.81135 
L 266.296873 38.723556 
L 266.470356 38.632605 
L 266.641775 38.538557 
L 266.811173 38.441479 
L 266.978593 38.341434 
L 267.144078 38.238486 
L 267.307671 38.132701 
L 267.469416 38.024143 
L 267.629354 37.912875 
L 267.78753 37.798964 
L 267.943986 37.682472 
L 268.098765 37.563465 
L 268.25191 37.442008 
L 268.403465 37.318164 
L 268.553471 37.191998 
L 268.701973 37.063575 
L 268.849012 36.93296 
L 268.994633 36.800215 
L 269.138878 36.665407 
L 269.28179 36.5286 
L 269.423412 36.389858 
L 269.563787 36.249245 
L 269.702959 36.106827 
L 269.840969 35.962667 
L 269.977862 35.81683 
L 270.113679 35.669381 
L 270.248465 35.520385 
L 270.382261 35.369904 
L 270.515112 35.218005 
L 270.64706 35.064752 
L 270.778148 34.910208 
L 270.908419 34.754439 
L 271.037916 34.597509 
L 271.166682 34.439483 
L 271.29476 34.280425 
L 271.422193 34.120399 
L 271.549025 33.959471 
L 271.675297 33.797704 
L 271.801053 33.635163 
L 271.926337 33.471913 
L 272.05119 33.308018 
L 272.175656 33.143542 
L 272.299779 32.97855 
L 272.4236 32.813107 
L 272.547164 32.647277 
L 272.670512 32.481124 
L 272.793689 32.314714 
L 272.916736 32.14811 
L 273.039698 31.981377 
L 273.162617 31.814579 
" clip-path="url(#p72e9fc38d4)" style="fill: none; stroke: #000000; stroke-width: 2; stroke-linecap: round"></path>
   </g>
   <g id="line2d_16">
    <path d="M 273.162617 31.814579 
L 273.267969 31.940983 
L 273.373322 32.067271 
L 273.478674 32.193326 
L 273.584027 32.319033 
L 273.68938 32.444276 
L 273.794732 32.568939 
L 273.900085 32.692905 
L 274.005437 32.816058 
L 274.11079 32.938282 
L 274.216143 33.059462 
L 274.321495 33.179481 
L 274.426848 33.298222 
L 274.5322 33.415571 
L 274.637553 33.531411 
L 274.742905 33.645625 
L 274.848258 33.758098 
L 274.953611 33.868713 
L 275.058963 33.977355 
L 275.164316 34.083907 
L 275.269668 34.188254 
L 275.375021 34.290278 
L 275.480374 34.389865 
L 275.585726 34.486898 
L 275.691079 34.58126 
L 275.796431 34.672837 
L 275.901784 34.761511 
L 276.007137 34.847167 
L 276.112489 34.929688 
L 276.217842 35.008959 
L 276.323194 35.084863 
L 276.428547 35.157285 
L 276.5339 35.226107 
L 276.639252 35.291215 
L 276.744605 35.352511 
L 276.849957 35.409976 
L 276.95531 35.46361 
L 277.060663 35.513413 
L 277.166015 35.559385 
L 277.271368 35.601526 
L 277.37672 35.639836 
L 277.482073 35.674315 
L 277.587425 35.704963 
L 277.692778 35.73178 
L 277.798131 35.754766 
L 277.903483 35.773921 
L 278.008836 35.789245 
L 278.114188 35.800738 
L 278.219541 35.8084 
L 278.324894 35.812231 
L 278.430246 35.812231 
L 278.535599 35.8084 
L 278.640951 35.800738 
L 278.746304 35.789245 
L 278.851657 35.773921 
L 278.957009 35.754766 
L 279.062362 35.73178 
L 279.167714 35.704963 
L 279.273067 35.674315 
L 279.37842 35.639836 
L 279.483772 35.601526 
L 279.589125 35.559385 
L 279.694477 35.513413 
L 279.79983 35.46361 
L 279.905182 35.409976 
L 280.010535 35.352511 
L 280.115888 35.291215 
L 280.22124 35.226107 
L 280.326593 35.157285 
L 280.431945 35.084863 
L 280.537298 35.008959 
L 280.642651 34.929688 
L 280.748003 34.847167 
L 280.853356 34.761511 
L 280.958708 34.672837 
L 281.064061 34.58126 
L 281.169413 34.486898 
L 281.274766 34.389865 
L 281.380119 34.290278 
L 281.485471 34.188254 
L 281.590824 34.083907 
L 281.696176 33.977355 
L 281.801529 33.868713 
L 281.906882 33.758098 
L 282.012234 33.645625 
L 282.117587 33.531411 
L 282.222939 33.415571 
L 282.328292 33.298222 
L 282.433644 33.179481 
L 282.538997 33.059462 
L 282.64435 32.938282 
L 282.749702 32.816058 
L 282.855055 32.692905 
L 282.960407 32.568939 
L 283.06576 32.444276 
L 283.171112 32.319033 
L 283.276465 32.193326 
L 283.381818 32.067271 
L 283.48717 31.940983 
L 283.592523 31.814579 
" clip-path="url(#p72e9fc38d4)" style="fill: none; stroke: #000000; stroke-width: 2; stroke-linecap: round"></path>
   </g>
   <g id="line2d_17">
    <path d="M 310.014953 30.076262 
" clip-path="url(#p72e9fc38d4)" style="fill: none; stroke: #000000; stroke-width: 2; stroke-linecap: round"></path>
   </g>
   <g id="line2d_18">
    <path d="M 310.014953 30.076262 
L 310.137871 30.313295 
L 310.260833 30.550263 
L 310.38388 30.787102 
L 310.507057 31.023748 
L 310.630405 31.260135 
L 310.753969 31.4962 
L 310.87779 31.731879 
L 311.001912 31.967105 
L 311.126379 32.201816 
L 311.251232 32.435946 
L 311.376516 32.669432 
L 311.502272 32.902208 
L 311.628544 33.134209 
L 311.755375 33.365373 
L 311.882809 33.595634 
L 312.010887 33.824927 
L 312.139653 34.053188 
L 312.26915 34.280353 
L 312.399421 34.506357 
L 312.530509 34.731135 
L 312.662456 34.954624 
L 312.795307 35.176758 
L 312.929104 35.397473 
L 313.063889 35.616705 
L 313.199707 35.834389 
L 313.336599 36.050461 
L 313.47461 36.264856 
L 313.613781 36.477509 
L 313.754156 36.688357 
L 313.895778 36.897334 
L 314.03869 37.104377 
L 314.182935 37.30942 
L 314.328556 37.512399 
L 314.475596 37.71325 
L 314.624097 37.911908 
L 314.774103 38.108309 
L 314.925658 38.302388 
L 315.078803 38.49408 
L 315.233582 38.683322 
L 315.390038 38.870048 
L 315.548214 39.054195 
L 315.708152 39.235697 
L 315.869897 39.414491 
L 316.03349 39.590511 
L 316.198976 39.763694 
L 316.366396 39.933974 
L 316.535794 40.101288 
L 316.707212 40.26557 
L 316.880695 40.426756 
L 317.056283 40.584785 
L 317.233975 40.739656 
L 317.413732 40.891432 
L 317.595509 41.040176 
L 317.779264 41.185954 
L 317.964955 41.328829 
L 318.152537 41.468867 
L 318.341967 41.606131 
L 318.533204 41.740686 
L 318.726203 41.872597 
L 318.920923 42.001929 
L 319.117319 42.128745 
L 319.315349 42.25311 
L 319.51497 42.375089 
L 319.716139 42.494746 
L 319.918813 42.612145 
L 320.122949 42.727352 
L 320.328503 42.840431 
L 320.535434 42.951446 
L 320.743697 43.060461 
L 320.95325 43.167542 
L 321.16405 43.272752 
L 321.376054 43.376156 
L 321.589219 43.477819 
L 321.803502 43.577805 
L 322.01886 43.676179 
L 322.23525 43.773005 
L 322.452628 43.868347 
L 322.670953 43.962271 
L 322.89018 44.05484 
L 323.110268 44.146119 
L 323.331172 44.236173 
L 323.55285 44.325066 
L 323.77526 44.412862 
L 323.998357 44.499627 
L 324.222099 44.585424 
L 324.446443 44.670318 
L 324.671346 44.754374 
L 324.896765 44.837656 
L 325.122657 44.920229 
L 325.348979 45.002156 
L 325.575688 45.083503 
L 325.802741 45.164334 
L 326.030095 45.244714 
L 326.257707 45.324706 
L 326.485534 45.404377 
L 326.713532 45.483789 
L 326.94166 45.563008 
L 327.169874 45.642097 
L 327.398131 45.721122 
" clip-path="url(#p72e9fc38d4)" style="fill: none; stroke: #000000; stroke-width: 2; stroke-linecap: round"></path>
   </g>
   <g id="line2d_19">
    <path d="M 327.398131 45.721122 
L 327.380572 45.808916 
L 327.363013 45.89671 
L 327.345454 45.984504 
L 327.327896 46.072298 
L 327.310337 46.160092 
L 327.292778 46.247885 
L 327.275219 46.335679 
L 327.257661 46.423473 
L 327.240102 46.511267 
L 327.222543 46.599061 
L 327.204984 46.686854 
L 327.187426 46.774648 
L 327.169867 46.862442 
L 327.152308 46.950236 
L 327.134749 47.03803 
L 327.11719 47.125824 
L 327.099632 47.213617 
L 327.082073 47.301411 
L 327.064514 47.389205 
L 327.046955 47.476999 
L 327.029397 47.564793 
L 327.011838 47.652586 
L 326.994279 47.74038 
L 326.97672 47.828174 
L 326.959162 47.915968 
L 326.941603 48.003762 
L 326.924044 48.091556 
L 326.906485 48.179349 
L 326.888926 48.267143 
L 326.871368 48.354937 
L 326.853809 48.442731 
L 326.83625 48.530525 
L 326.818691 48.618318 
L 326.801133 48.706112 
L 326.783574 48.793906 
L 326.766015 48.8817 
L 326.748456 48.969494 
L 326.730898 49.057288 
L 326.713339 49.145081 
L 326.69578 49.232875 
L 326.678221 49.320669 
L 326.660662 49.408463 
L 326.643104 49.496257 
L 326.625545 49.58405 
L 326.607986 49.671844 
L 326.590427 49.759638 
L 326.572869 49.847432 
L 326.55531 49.935226 
L 326.537751 50.02302 
L 326.520192 50.110813 
L 326.502634 50.198607 
L 326.485075 50.286401 
L 326.467516 50.374195 
L 326.449957 50.461989 
L 326.432398 50.549782 
L 326.41484 50.637576 
L 326.397281 50.72537 
L 326.379722 50.813164 
L 326.362163 50.900958 
L 326.344605 50.988752 
L 326.327046 51.076545 
L 326.309487 51.164339 
L 326.291928 51.252133 
L 326.27437 51.339927 
L 326.256811 51.427721 
L 326.239252 51.515515 
L 326.221693 51.603308 
L 326.204135 51.691102 
L 326.186576 51.778896 
L 326.169017 51.86669 
L 326.151458 51.954484 
L 326.133899 52.042277 
L 326.116341 52.130071 
L 326.098782 52.217865 
L 326.081223 52.305659 
L 326.063664 52.393453 
L 326.046106 52.481247 
L 326.028547 52.56904 
L 326.010988 52.656834 
L 325.993429 52.744628 
L 325.975871 52.832422 
L 325.958312 52.920216 
L 325.940753 53.008009 
L 325.923194 53.095803 
L 325.905635 53.183597 
L 325.888077 53.271391 
L 325.870518 53.359185 
L 325.852959 53.446979 
L 325.8354 53.534772 
L 325.817842 53.622566 
L 325.800283 53.71036 
L 325.782724 53.798154 
L 325.765165 53.885948 
L 325.747607 53.973741 
L 325.730048 54.061535 
L 325.712489 54.149329 
L 325.69493 54.237123 
L 325.677371 54.324917 
L 325.659813 54.412711 
" clip-path="url(#p72e9fc38d4)" style="fill: none; stroke: #000000; stroke-width: 2; stroke-linecap: round"></path>
   </g>
   <g id="line2d_20">
    <path d="M 355.558878 40.506168 
L 355.567654 40.541286 
L 355.576408 40.576403 
L 355.58512 40.611521 
L 355.593767 40.646639 
L 355.602327 40.681756 
L 355.610781 40.716874 
L 355.619105 40.751991 
L 355.627279 40.787109 
L 355.635281 40.822226 
L 355.643089 40.857344 
L 355.650683 40.892461 
L 355.658039 40.927579 
L 355.665138 40.962696 
L 355.671958 40.997814 
L 355.678476 41.032931 
L 355.684672 41.068049 
L 355.690524 41.103166 
L 355.696011 41.138284 
L 355.70111 41.173401 
L 355.705802 41.208519 
L 355.710063 41.243637 
L 355.713872 41.278754 
L 355.717209 41.313872 
L 355.720051 41.348989 
L 355.722378 41.384107 
L 355.724167 41.419224 
L 355.725396 41.454342 
L 355.726046 41.489459 
L 355.726093 41.524577 
L 355.725517 41.559694 
L 355.724296 41.594812 
L 355.722409 41.629929 
L 355.719834 41.665047 
L 355.716549 41.700164 
L 355.712533 41.735282 
L 355.707765 41.7704 
L 355.702223 41.805517 
L 355.695885 41.840635 
L 355.688731 41.875752 
L 355.680738 41.91087 
L 355.671885 41.945987 
L 355.662151 41.981105 
L 355.651514 42.016222 
L 355.639952 42.05134 
L 355.627445 42.086457 
L 355.61397 42.121575 
L 355.599506 42.156692 
L 355.584031 42.19181 
L 355.567525 42.226927 
L 355.549966 42.262045 
L 355.531355 42.297162 
L 355.511712 42.33228 
L 355.491058 42.367398 
L 355.469416 42.402515 
L 355.446806 42.437633 
L 355.42325 42.47275 
L 355.398769 42.507868 
L 355.373386 42.542985 
L 355.347122 42.578103 
L 355.319997 42.61322 
L 355.292034 42.648338 
L 355.263254 42.683455 
L 355.233678 42.718573 
L 355.203329 42.75369 
L 355.172227 42.788808 
L 355.140394 42.823925 
L 355.107852 42.859043 
L 355.074622 42.89416 
L 355.040725 42.929278 
L 355.006184 42.964396 
L 354.971019 42.999513 
L 354.935252 43.034631 
L 354.898905 43.069748 
L 354.861998 43.104866 
L 354.824554 43.139983 
L 354.786595 43.175101 
L 354.74814 43.210218 
L 354.709213 43.245336 
L 354.669834 43.280453 
L 354.630026 43.315571 
L 354.589809 43.350688 
L 354.549205 43.385806 
L 354.508235 43.420923 
L 354.466921 43.456041 
L 354.425285 43.491159 
L 354.383348 43.526276 
L 354.341132 43.561394 
L 354.298658 43.596511 
L 354.255947 43.631629 
L 354.213021 43.666746 
L 354.169901 43.701864 
L 354.12661 43.736981 
L 354.083168 43.772099 
L 354.039597 43.807216 
L 353.995919 43.842334 
L 353.952155 43.877451 
L 353.908326 43.912569 
L 353.864454 43.947686 
L 353.820561 43.982804 
" clip-path="url(#p72e9fc38d4)" style="fill: none; stroke: #000000; stroke-width: 2; stroke-linecap: round"></path>
   </g>
   <g id="line2d_21">
    <path d="M 33.62243 99.956636 
L 33.798075 100.167341 
L 33.974064 100.378046 
L 34.150741 100.588751 
L 34.328449 100.799456 
L 34.507534 101.010162 
L 34.688339 101.220867 
L 34.871207 101.431572 
L 35.056483 101.642277 
L 35.244511 101.852982 
L 35.435635 102.063688 
L 35.630199 102.274393 
L 35.828546 102.485098 
L 36.031021 102.695803 
L 36.237967 102.906508 
L 36.449729 103.117214 
L 36.666651 103.327919 
L 36.889077 103.538624 
L 37.11735 103.749329 
L 37.351814 103.960034 
L 37.592814 104.170739 
L 37.840693 104.381445 
L 38.095796 104.59215 
L 38.358466 104.802855 
L 38.629048 105.01356 
L 38.907883 105.224264 
L 39.195097 105.434747 
L 39.490395 105.64437 
L 39.793432 105.852445 
L 40.103864 106.058284 
L 40.421348 106.2612 
L 40.745539 106.460504 
L 41.076094 106.655508 
L 41.412669 106.845525 
L 41.754918 107.029866 
L 42.1025 107.207843 
L 42.455069 107.378769 
L 42.812282 107.541956 
L 43.173794 107.696716 
L 43.539262 107.84236 
L 43.908342 107.9782 
L 44.28069 108.10355 
L 44.655961 108.217721 
L 45.033812 108.320024 
L 45.413899 108.409772 
L 45.795878 108.486278 
L 46.179405 108.548852 
L 46.564136 108.596808 
L 46.949726 108.629457 
L 47.335833 108.646111 
L 47.722111 108.646111 
L 48.108218 108.629457 
L 48.493808 108.596808 
L 48.878539 108.548852 
L 49.262066 108.486278 
L 49.644045 108.409772 
L 50.024132 108.320024 
L 50.401983 108.217721 
L 50.777254 108.10355 
L 51.149602 107.9782 
L 51.518682 107.84236 
L 51.88415 107.696716 
L 52.245662 107.541956 
L 52.602875 107.378769 
L 52.955444 107.207843 
L 53.303026 107.029866 
L 53.645275 106.845525 
L 53.98185 106.655508 
L 54.312405 106.460504 
L 54.636596 106.2612 
L 54.95408 106.058284 
L 55.264512 105.852445 
L 55.567549 105.64437 
L 55.862847 105.434747 
L 56.150061 105.224264 
L 56.428896 105.01356 
L 56.699478 104.802855 
L 56.962148 104.59215 
L 57.217251 104.381445 
L 57.46513 104.170739 
L 57.70613 103.960034 
L 57.940594 103.749329 
L 58.168867 103.538624 
L 58.391293 103.327919 
L 58.608215 103.117214 
L 58.819977 102.906508 
L 59.026923 102.695803 
L 59.229398 102.485098 
L 59.427745 102.274393 
L 59.622309 102.063688 
L 59.813433 101.852982 
L 60.001461 101.642277 
L 60.186737 101.431572 
L 60.369605 101.220867 
L 60.55041 101.010162 
L 60.729495 100.799456 
L 60.907203 100.588751 
L 61.08388 100.378046 
L 61.259869 100.167341 
L 61.435514 99.956636 
" clip-path="url(#p72e9fc38d4)" style="fill: none; stroke: #000000; stroke-width: 2; stroke-linecap: round"></path>
   </g>
   <g id="line2d_22">
    <path d="M 61.435514 99.956636 
L 61.751572 99.956636 
L 62.06763 99.956636 
L 62.383687 99.956636 
L 62.699745 99.956636 
L 63.015803 99.956636 
L 63.331861 99.956636 
L 63.647919 99.956636 
L 63.963976 99.956636 
L 64.280034 99.956636 
L 64.596092 99.956636 
L 64.91215 99.956636 
L 65.228207 99.956636 
L 65.544265 99.956636 
L 65.860323 99.956636 
L 66.176381 99.956636 
L 66.492439 99.956636 
L 66.808496 99.956636 
L 67.124554 99.956636 
L 67.440612 99.956636 
L 67.75667 99.956636 
L 68.072728 99.956636 
L 68.388785 99.956636 
L 68.704843 99.956636 
L 69.020901 99.956636 
L 69.336959 99.956636 
L 69.653016 99.956636 
L 69.969074 99.956636 
L 70.285132 99.956636 
L 70.60119 99.956636 
L 70.917248 99.956636 
L 71.233305 99.956636 
L 71.549363 99.956636 
L 71.865421 99.956636 
L 72.181479 99.956636 
L 72.497536 99.956636 
L 72.813594 99.956636 
L 73.129652 99.956636 
L 73.44571 99.956636 
L 73.761768 99.956636 
L 74.077825 99.956636 
L 74.393883 99.956636 
L 74.709941 99.956636 
L 75.025999 99.956636 
L 75.342056 99.956636 
L 75.658114 99.956636 
L 75.974172 99.956636 
L 76.29023 99.956636 
L 76.606288 99.956636 
L 76.922345 99.956636 
L 77.238403 99.956636 
L 77.554461 99.956636 
L 77.870519 99.956636 
L 78.186577 99.956636 
L 78.502634 99.956636 
L 78.818692 99.956636 
L 79.13475 99.956636 
L 79.450808 99.956636 
L 79.766865 99.956636 
L 80.082923 99.956636 
L 80.398981 99.956636 
L 80.715039 99.956636 
L 81.031097 99.956636 
L 81.347154 99.956636 
L 81.663212 99.956636 
L 81.97927 99.956636 
L 82.295328 99.956636 
L 82.611385 99.956636 
L 82.927443 99.956636 
L 83.243501 99.956636 
L 83.559559 99.956636 
L 83.875617 99.956636 
L 84.191674 99.956636 
L 84.507732 99.956636 
L 84.82379 99.956636 
L 85.139848 99.956636 
L 85.455905 99.956636 
L 85.771963 99.956636 
L 86.088021 99.956636 
L 86.404079 99.956636 
L 86.720137 99.956636 
L 87.036194 99.956636 
L 87.352252 99.956636 
L 87.66831 99.956636 
L 87.984368 99.956636 
L 88.300425 99.956636 
L 88.616483 99.956636 
L 88.932541 99.956636 
L 89.248599 99.956636 
L 89.564657 99.956636 
L 89.880714 99.956636 
L 90.196772 99.956636 
L 90.51283 99.956636 
L 90.828888 99.956636 
L 91.144946 99.956636 
L 91.461003 99.956636 
L 91.777061 99.956636 
L 92.093119 99.956636 
L 92.409177 99.956636 
L 92.725234 99.956636 
" clip-path="url(#p72e9fc38d4)" style="fill: none; stroke: #000000; stroke-width: 2; stroke-linecap: round"></path>
   </g>
   <g id="line2d_23">
    <path d="M 120.885982 99.956636 
L 120.868423 100.044429 
L 120.850865 100.132223 
L 120.833306 100.220017 
L 120.815747 100.307811 
L 120.798188 100.395605 
L 120.780629 100.483399 
L 120.763071 100.571192 
L 120.745512 100.658986 
L 120.727953 100.74678 
L 120.710394 100.834574 
L 120.692836 100.922368 
L 120.675277 101.010162 
L 120.657718 101.097955 
L 120.640159 101.185749 
L 120.622601 101.273543 
L 120.605042 101.361337 
L 120.587483 101.449131 
L 120.569924 101.536925 
L 120.552366 101.624718 
L 120.534807 101.712512 
L 120.517248 101.800306 
L 120.499689 101.8881 
L 120.48213 101.975894 
L 120.464572 102.063687 
L 120.447013 102.151481 
L 120.429454 102.239275 
L 120.411895 102.327069 
L 120.394337 102.414863 
L 120.376778 102.502657 
L 120.359219 102.59045 
L 120.34166 102.678244 
L 120.324102 102.766038 
L 120.306543 102.853832 
L 120.288984 102.941626 
L 120.271425 103.02942 
L 120.253866 103.117213 
L 120.236308 103.205007 
L 120.218749 103.292801 
L 120.20119 103.380595 
L 120.183631 103.468389 
L 120.166073 103.556183 
L 120.148514 103.643976 
L 120.130955 103.73177 
L 120.113396 103.819564 
L 120.095838 103.907358 
L 120.078279 103.995152 
L 120.06072 104.082946 
L 120.043161 104.170739 
L 120.025603 104.258533 
L 120.008044 104.346327 
L 119.990485 104.434121 
L 119.972926 104.521915 
L 119.955367 104.609709 
L 119.937809 104.697502 
L 119.92025 104.785296 
L 119.902691 104.87309 
L 119.885132 104.960884 
L 119.867574 105.048678 
L 119.850015 105.136471 
L 119.832456 105.224265 
L 119.814897 105.312059 
L 119.797339 105.399853 
L 119.77978 105.487647 
L 119.762221 105.575441 
L 119.744662 105.663234 
L 119.727104 105.751028 
L 119.709545 105.838822 
L 119.691986 105.926616 
L 119.674427 106.01441 
L 119.656868 106.102204 
L 119.63931 106.189997 
L 119.621751 106.277791 
L 119.604192 106.365585 
L 119.586633 106.453379 
L 119.569075 106.541173 
L 119.551516 106.628967 
L 119.533957 106.71676 
L 119.516398 106.804554 
L 119.49884 106.892348 
L 119.481281 106.980142 
L 119.463722 107.067936 
L 119.446163 107.15573 
L 119.428605 107.243523 
L 119.411046 107.331317 
L 119.393487 107.419111 
L 119.375928 107.506905 
L 119.358369 107.594699 
L 119.340811 107.682493 
L 119.323252 107.770286 
L 119.305693 107.85808 
L 119.288134 107.945874 
L 119.270576 108.033668 
L 119.253017 108.121462 
L 119.235458 108.209256 
L 119.217899 108.297049 
L 119.200341 108.384843 
L 119.182782 108.472637 
L 119.165223 108.560431 
L 119.147664 108.648225 
" clip-path="url(#p72e9fc38d4)" style="fill: none; stroke: #000000; stroke-width: 2; stroke-linecap: round"></path>
   </g>
   <g id="line2d_24">
    <path d="M 119.147664 108.648225 
L 119.323309 108.43752 
L 119.499298 108.226814 
L 119.675975 108.016109 
L 119.853684 107.805404 
L 120.032769 107.594699 
L 120.213573 107.383994 
L 120.396442 107.173289 
L 120.581718 106.962583 
L 120.769746 106.751878 
L 120.96087 106.541173 
L 121.155433 106.330468 
L 121.35378 106.119763 
L 121.556255 105.909058 
L 121.763202 105.698352 
L 121.974964 105.487647 
L 122.191886 105.276942 
L 122.414311 105.066237 
L 122.642584 104.855532 
L 122.877048 104.644826 
L 123.118048 104.434121 
L 123.365928 104.223416 
L 123.62103 104.012711 
L 123.883701 103.802006 
L 124.154282 103.591301 
L 124.433118 103.380597 
L 124.720332 103.170114 
L 125.015629 102.960491 
L 125.318666 102.752416 
L 125.629099 102.546576 
L 125.946582 102.343661 
L 126.270774 102.144357 
L 126.601329 101.949352 
L 126.937903 101.759336 
L 127.280153 101.574995 
L 127.627734 101.397017 
L 127.980304 101.226091 
L 128.337516 101.062904 
L 128.699029 100.908145 
L 129.064497 100.762501 
L 129.433577 100.62666 
L 129.805924 100.50131 
L 130.181196 100.38714 
L 130.559047 100.284836 
L 130.939134 100.195088 
L 131.321113 100.118583 
L 131.704639 100.056008 
L 132.08937 100.008052 
L 132.474961 99.975404 
L 132.861067 99.95875 
L 133.247346 99.95875 
L 133.633452 99.975404 
L 134.019043 100.008052 
L 134.403773 100.056008 
L 134.7873 100.118583 
L 135.169279 100.195088 
L 135.549366 100.284836 
L 135.927217 100.38714 
L 136.302489 100.50131 
L 136.674836 100.62666 
L 137.043916 100.762501 
L 137.409384 100.908145 
L 137.770897 101.062904 
L 138.128109 101.226091 
L 138.480678 101.397017 
L 138.82826 101.574995 
L 139.17051 101.759336 
L 139.507084 101.949352 
L 139.837639 102.144357 
L 140.16183 102.343661 
L 140.479314 102.546576 
L 140.789747 102.752416 
L 141.092784 102.960491 
L 141.388081 103.170114 
L 141.675295 103.380597 
L 141.95413 103.591301 
L 142.224712 103.802006 
L 142.487382 104.012711 
L 142.742485 104.223416 
L 142.990365 104.434121 
L 143.231364 104.644826 
L 143.465829 104.855532 
L 143.694102 105.066237 
L 143.916527 105.276942 
L 144.133449 105.487647 
L 144.345211 105.698352 
L 144.552158 105.909058 
L 144.754633 106.119763 
L 144.95298 106.330468 
L 145.147543 106.541173 
L 145.338667 106.751878 
L 145.526695 106.962583 
L 145.711971 107.173289 
L 145.89484 107.383994 
L 146.075644 107.594699 
L 146.254729 107.805404 
L 146.432438 108.016109 
L 146.609115 108.226814 
L 146.785104 108.43752 
L 146.960749 108.648225 
" clip-path="url(#p72e9fc38d4)" style="fill: none; stroke: #000000; stroke-width: 2; stroke-linecap: round"></path>
   </g>
   <g id="line2d_25">
    <path d="M 146.960749 108.648225 
L 147.066101 108.648225 
L 147.171454 108.648225 
L 147.276806 108.648225 
L 147.382159 108.648225 
L 147.487511 108.648225 
L 147.592864 108.648225 
L 147.698217 108.648225 
L 147.803569 108.648225 
L 147.908922 108.648225 
L 148.014274 108.648225 
L 148.119627 108.648225 
L 148.22498 108.648225 
L 148.330332 108.648225 
L 148.435685 108.648225 
L 148.541037 108.648225 
L 148.64639 108.648225 
L 148.751743 108.648225 
L 148.857095 108.648225 
L 148.962448 108.648225 
L 149.0678 108.648225 
L 149.173153 108.648225 
L 149.278505 108.648225 
L 149.383858 108.648225 
L 149.489211 108.648225 
L 149.594563 108.648225 
L 149.699916 108.648225 
L 149.805268 108.648225 
L 149.910621 108.648225 
L 150.015974 108.648225 
L 150.121326 108.648225 
L 150.226679 108.648225 
L 150.332031 108.648225 
L 150.437384 108.648225 
L 150.542737 108.648225 
L 150.648089 108.648225 
L 150.753442 108.648225 
L 150.858794 108.648225 
L 150.964147 108.648225 
L 151.069499 108.648225 
L 151.174852 108.648225 
L 151.280205 108.648225 
L 151.385557 108.648225 
L 151.49091 108.648225 
L 151.596262 108.648225 
L 151.701615 108.648225 
L 151.806968 108.648225 
L 151.91232 108.648225 
L 152.017673 108.648225 
L 152.123025 108.648225 
L 152.228378 108.648225 
L 152.33373 108.648225 
L 152.439083 108.648225 
L 152.544436 108.648225 
L 152.649788 108.648225 
L 152.755141 108.648225 
L 152.860493 108.648225 
L 152.965846 108.648225 
L 153.071199 108.648225 
L 153.176551 108.648225 
L 153.281904 108.648225 
L 153.387256 108.648225 
L 153.492609 108.648225 
L 153.597962 108.648225 
L 153.703314 108.648225 
L 153.808667 108.648225 
L 153.914019 108.648225 
L 154.019372 108.648225 
L 154.124724 108.648225 
L 154.230077 108.648225 
L 154.33543 108.648225 
L 154.440782 108.648225 
L 154.546135 108.648225 
L 154.651487 108.648225 
L 154.75684 108.648225 
L 154.862193 108.648225 
L 154.967545 108.648225 
L 155.072898 108.648225 
L 155.17825 108.648225 
L 155.283603 108.648225 
L 155.388956 108.648225 
L 155.494308 108.648225 
L 155.599661 108.648225 
L 155.705013 108.648225 
L 155.810366 108.648225 
L 155.915718 108.648225 
L 156.021071 108.648225 
L 156.126424 108.648225 
L 156.231776 108.648225 
L 156.337129 108.648225 
L 156.442481 108.648225 
L 156.547834 108.648225 
L 156.653187 108.648225 
L 156.758539 108.648225 
L 156.863892 108.648225 
L 156.969244 108.648225 
L 157.074597 108.648225 
L 157.179949 108.648225 
L 157.285302 108.648225 
L 157.390655 108.648225 
" clip-path="url(#p72e9fc38d4)" style="fill: none; stroke: #000000; stroke-width: 2; stroke-linecap: round"></path>
   </g>
   <g id="line2d_26">
    <path d="M 157.390655 108.648225 
L 157.601245 108.776173 
L 157.811148 108.904245 
L 158.019674 109.032562 
L 158.226137 109.161248 
L 158.429848 109.290425 
L 158.63012 109.420216 
L 158.826263 109.550744 
L 159.017591 109.682133 
L 159.203416 109.814504 
L 159.383049 109.947981 
L 159.555802 110.082686 
L 159.720988 110.218743 
L 159.877919 110.356273 
L 160.025906 110.495401 
L 160.164262 110.636249 
L 160.292299 110.778939 
L 160.409329 110.923595 
L 160.514664 111.070339 
L 160.607615 111.219295 
L 160.687496 111.370584 
L 160.753618 111.524331 
L 160.805293 111.680657 
L 160.841833 111.839687 
L 160.86255 112.001541 
L 160.86676 112.166342 
L 160.854212 112.333978 
L 160.825497 112.503887 
L 160.781304 112.675454 
L 160.72232 112.848066 
L 160.649233 113.021107 
L 160.56273 113.193964 
L 160.463501 113.366023 
L 160.352233 113.536669 
L 160.229614 113.705287 
L 160.096331 113.871265 
L 159.953073 114.033987 
L 159.800528 114.19284 
L 159.639384 114.347208 
L 159.470328 114.496479 
L 159.294049 114.640037 
L 159.111235 114.777268 
L 158.922572 114.907558 
L 158.72875 115.030294 
L 158.530457 115.144859 
L 158.32838 115.250642 
L 158.123207 115.347026 
L 157.915626 115.433399 
L 157.706325 115.509145 
L 157.495993 115.57365 
L 157.285316 115.626319 
L 157.074984 115.66698 
L 156.865683 115.695884 
L 156.658102 115.713302 
L 156.45293 115.719504 
L 156.250852 115.714761 
L 156.052559 115.699341 
L 155.858737 115.673517 
L 155.670075 115.637558 
L 155.48726 115.591734 
L 155.310981 115.536315 
L 155.141925 115.471573 
L 154.980781 115.397776 
L 154.828236 115.315196 
L 154.684978 115.224103 
L 154.551696 115.124767 
L 154.429076 115.017458 
L 154.317808 114.902446 
L 154.218579 114.780002 
L 154.132077 114.650396 
L 154.05899 114.513898 
L 154.000005 114.370779 
L 153.955812 114.221308 
L 153.927097 114.065757 
L 153.914549 113.904395 
L 153.91876 113.737488 
L 153.939477 113.565275 
L 153.976017 113.387976 
L 154.027692 113.205812 
L 154.093813 113.019005 
L 154.173694 112.827775 
L 154.266646 112.632344 
L 154.37198 112.432932 
L 154.48901 112.229761 
L 154.617047 112.023052 
L 154.755403 111.813027 
L 154.90339 111.599905 
L 155.060321 111.383909 
L 155.225507 111.16526 
L 155.398261 110.944178 
L 155.577894 110.720884 
L 155.763718 110.495601 
L 155.955046 110.268549 
L 156.15119 110.039948 
L 156.351461 109.810021 
L 156.555172 109.578989 
L 156.761635 109.347072 
L 156.970162 109.114491 
L 157.180064 108.881469 
L 157.390655 108.648225 
" clip-path="url(#p72e9fc38d4)" style="fill: none; stroke: #000000; stroke-width: 2; stroke-linecap: round"></path>
   </g>
   <g id="line2d_27">
    <path d="M 187.28972 98.218319 
" clip-path="url(#p72e9fc38d4)" style="fill: none; stroke: #000000; stroke-width: 2; stroke-linecap: round"></path>
   </g>
   <g id="line2d_28">
    <path d="M 187.28972 98.218319 
L 187.412639 98.455351 
L 187.5356 98.692319 
L 187.658648 98.929158 
L 187.781824 99.165804 
L 187.905173 99.402191 
L 188.028736 99.638257 
L 188.152558 99.873935 
L 188.27668 100.109162 
L 188.401146 100.343872 
L 188.526 100.578003 
L 188.651283 100.811488 
L 188.777039 101.044264 
L 188.903312 101.276266 
L 189.030143 101.507429 
L 189.157576 101.73769 
L 189.285654 101.966983 
L 189.41442 102.195244 
L 189.543917 102.422409 
L 189.674188 102.648413 
L 189.805276 102.873192 
L 189.937224 103.09668 
L 190.070075 103.318814 
L 190.203871 103.53953 
L 190.338657 103.758762 
L 190.474474 103.976446 
L 190.611367 104.192517 
L 190.749377 104.406912 
L 190.888548 104.619566 
L 191.028924 104.830413 
L 191.170546 105.039391 
L 191.313458 105.246433 
L 191.457703 105.451476 
L 191.603323 105.654455 
L 191.750363 105.855306 
L 191.898865 106.053964 
L 192.048871 106.250365 
L 192.200425 106.444444 
L 192.35357 106.636136 
L 192.50835 106.825378 
L 192.664805 107.012105 
L 192.822981 107.196251 
L 192.98292 107.377754 
L 193.144664 107.556547 
L 193.308258 107.732568 
L 193.473743 107.90575 
L 193.641163 108.07603 
L 193.810561 108.243344 
L 193.98198 108.407626 
L 194.155462 108.568812 
L 194.33105 108.726841 
L 194.508743 108.881713 
L 194.688499 109.033488 
L 194.870277 109.182233 
L 195.054032 109.32801 
L 195.239722 109.470885 
L 195.427304 109.610923 
L 195.616735 109.748187 
L 195.807971 109.882742 
L 196.000971 110.014654 
L 196.19569 110.143985 
L 196.392087 110.270801 
L 196.590117 110.395166 
L 196.789738 110.517145 
L 196.990907 110.636802 
L 197.19358 110.754202 
L 197.397716 110.869409 
L 197.603271 110.982487 
L 197.810201 111.093502 
L 198.018464 111.202517 
L 198.228018 111.309598 
L 198.438818 111.414808 
L 198.650822 111.518212 
L 198.863987 111.619875 
L 199.07827 111.719861 
L 199.293627 111.818235 
L 199.510017 111.915061 
L 199.727396 112.010403 
L 199.94572 112.104327 
L 200.164948 112.196896 
L 200.385035 112.288175 
L 200.60594 112.378229 
L 200.827618 112.467122 
L 201.050027 112.554919 
L 201.273124 112.641683 
L 201.496867 112.72748 
L 201.721211 112.812375 
L 201.946114 112.896431 
L 202.171533 112.979712 
L 202.397425 113.062285 
L 202.623747 113.144212 
L 202.850456 113.225559 
L 203.077508 113.30639 
L 203.304862 113.38677 
L 203.532474 113.466763 
L 203.760301 113.546433 
L 203.9883 113.625845 
L 204.216428 113.705064 
L 204.444641 113.784153 
L 204.672898 113.863179 
" clip-path="url(#p72e9fc38d4)" style="fill: none; stroke: #000000; stroke-width: 2; stroke-linecap: round"></path>
   </g>
   <g id="line2d_29">
    <path d="M 204.672898 113.863179 
L 204.655339 113.950973 
L 204.637781 114.038766 
L 204.620222 114.12656 
L 204.602663 114.214354 
L 204.585104 114.302148 
L 204.567546 114.389942 
L 204.549987 114.477735 
L 204.532428 114.565529 
L 204.514869 114.653323 
L 204.497311 114.741117 
L 204.479752 114.828911 
L 204.462193 114.916705 
L 204.444634 115.004498 
L 204.427075 115.092292 
L 204.409517 115.180086 
L 204.391958 115.26788 
L 204.374399 115.355674 
L 204.35684 115.443467 
L 204.339282 115.531261 
L 204.321723 115.619055 
L 204.304164 115.706849 
L 204.286605 115.794643 
L 204.269047 115.882437 
L 204.251488 115.97023 
L 204.233929 116.058024 
L 204.21637 116.145818 
L 204.198811 116.233612 
L 204.181253 116.321406 
L 204.163694 116.409199 
L 204.146135 116.496993 
L 204.128576 116.584787 
L 204.111018 116.672581 
L 204.093459 116.760375 
L 204.0759 116.848169 
L 204.058341 116.935962 
L 204.040783 117.023756 
L 204.023224 117.11155 
L 204.005665 117.199344 
L 203.988106 117.287138 
L 203.970547 117.374931 
L 203.952989 117.462725 
L 203.93543 117.550519 
L 203.917871 117.638313 
L 203.900312 117.726107 
L 203.882754 117.813901 
L 203.865195 117.901694 
L 203.847636 117.989488 
L 203.830077 118.077282 
L 203.812519 118.165076 
L 203.79496 118.25287 
L 203.777401 118.340663 
L 203.759842 118.428457 
L 203.742284 118.516251 
L 203.724725 118.604045 
L 203.707166 118.691839 
L 203.689607 118.779633 
L 203.672048 118.867426 
L 203.65449 118.95522 
L 203.636931 119.043014 
L 203.619372 119.130808 
L 203.601813 119.218602 
L 203.584255 119.306395 
L 203.566696 119.394189 
L 203.549137 119.481983 
L 203.531578 119.569777 
L 203.51402 119.657571 
L 203.496461 119.745365 
L 203.478902 119.833158 
L 203.461343 119.920952 
L 203.443784 120.008746 
L 203.426226 120.09654 
L 203.408667 120.184334 
L 203.391108 120.272127 
L 203.373549 120.359921 
L 203.355991 120.447715 
L 203.338432 120.535509 
L 203.320873 120.623303 
L 203.303314 120.711097 
L 203.285756 120.79889 
L 203.268197 120.886684 
L 203.250638 120.974478 
L 203.233079 121.062272 
L 203.21552 121.150066 
L 203.197962 121.23786 
L 203.180403 121.325653 
L 203.162844 121.413447 
L 203.145285 121.501241 
L 203.127727 121.589035 
L 203.110168 121.676829 
L 203.092609 121.764622 
L 203.07505 121.852416 
L 203.057492 121.94021 
L 203.039933 122.028004 
L 203.022374 122.115798 
L 203.004815 122.203592 
L 202.987256 122.291385 
L 202.969698 122.379179 
L 202.952139 122.466973 
L 202.93458 122.554767 
" clip-path="url(#p72e9fc38d4)" style="fill: none; stroke: #000000; stroke-width: 2; stroke-linecap: round"></path>
   </g>
   <g id="line2d_30">
    <path d="M 231.095328 108.648225 
L 231.165563 108.560431 
L 231.235798 108.472637 
L 231.306033 108.384843 
L 231.376268 108.297049 
L 231.446503 108.209256 
L 231.516738 108.121462 
L 231.586973 108.033668 
L 231.657209 107.945874 
L 231.727444 107.85808 
L 231.797679 107.770286 
L 231.867914 107.682493 
L 231.938149 107.594699 
L 232.008384 107.506905 
L 232.078619 107.419111 
L 232.148854 107.331317 
L 232.219089 107.243523 
L 232.289324 107.15573 
L 232.359559 107.067936 
L 232.429794 106.980142 
L 232.500029 106.892348 
L 232.570264 106.804554 
L 232.640499 106.71676 
L 232.710734 106.628967 
L 232.78097 106.541173 
L 232.851205 106.453379 
L 232.92144 106.365585 
L 232.991675 106.277791 
L 233.06191 106.189997 
L 233.132145 106.102204 
L 233.20238 106.01441 
L 233.272615 105.926616 
L 233.34285 105.838822 
L 233.413085 105.751028 
L 233.48332 105.663234 
L 233.553555 105.575441 
L 233.62379 105.487647 
L 233.694025 105.399853 
L 233.76426 105.312059 
L 233.834495 105.224265 
L 233.904731 105.136471 
L 233.974966 105.048678 
L 234.045201 104.960884 
L 234.115436 104.87309 
L 234.185671 104.785296 
L 234.255906 104.697502 
L 234.326141 104.609709 
L 234.396376 104.521915 
L 234.466611 104.434121 
L 234.536846 104.346327 
L 234.607081 104.258533 
L 234.677316 104.170739 
L 234.747551 104.082946 
L 234.817786 103.995152 
L 234.888021 103.907358 
L 234.958256 103.819564 
L 235.028491 103.73177 
L 235.098727 103.643976 
L 235.168962 103.556183 
L 235.239197 103.468389 
L 235.309432 103.380595 
L 235.379667 103.292801 
L 235.449902 103.205007 
L 235.520137 103.117213 
L 235.590372 103.02942 
L 235.660607 102.941626 
L 235.730842 102.853832 
L 235.801077 102.766038 
L 235.871312 102.678244 
L 235.941547 102.59045 
L 236.011782 102.502657 
L 236.082017 102.414863 
L 236.152252 102.327069 
L 236.222488 102.239275 
L 236.292723 102.151481 
L 236.362958 102.063687 
L 236.433193 101.975894 
L 236.503428 101.8881 
L 236.573663 101.800306 
L 236.643898 101.712512 
L 236.714133 101.624718 
L 236.784368 101.536925 
L 236.854603 101.449131 
L 236.924838 101.361337 
L 236.995073 101.273543 
L 237.065308 101.185749 
L 237.135543 101.097955 
L 237.205778 101.010162 
L 237.276013 100.922368 
L 237.346249 100.834574 
L 237.416484 100.74678 
L 237.486719 100.658986 
L 237.556954 100.571192 
L 237.627189 100.483399 
L 237.697424 100.395605 
L 237.767659 100.307811 
L 237.837894 100.220017 
L 237.908129 100.132223 
L 237.978364 100.044429 
L 238.048599 99.956636 
" clip-path="url(#p72e9fc38d4)" style="fill: none; stroke: #000000; stroke-width: 2; stroke-linecap: round"></path>
   </g>
   <g id="line2d_31">
    <path d="M 238.048599 96.480001 
" clip-path="url(#p72e9fc38d4)" style="fill: none; stroke: #000000; stroke-width: 2; stroke-linecap: round"></path>
   </g>
   <g id="line2d_32">
    <path d="M 238.048599 99.956636 
" clip-path="url(#p72e9fc38d4)" style="fill: none; stroke: #000000; stroke-width: 2; stroke-linecap: round"></path>
   </g>
   <g id="line2d_33">
    <path d="M 238.048599 99.956636 
L 238.153952 99.830232 
L 238.259304 99.703944 
L 238.364657 99.577889 
L 238.470009 99.452181 
L 238.575362 99.326939 
L 238.680715 99.202276 
L 238.786067 99.07831 
L 238.89142 98.955157 
L 238.996772 98.832933 
L 239.102125 98.711753 
L 239.207478 98.591734 
L 239.31283 98.472992 
L 239.418183 98.355644 
L 239.523535 98.239804 
L 239.628888 98.12559 
L 239.734241 98.013117 
L 239.839593 97.902502 
L 239.944946 97.79386 
L 240.050298 97.687308 
L 240.155651 97.582961 
L 240.261004 97.480937 
L 240.366356 97.38135 
L 240.471709 97.284317 
L 240.577061 97.189955 
L 240.682414 97.098378 
L 240.787767 97.009704 
L 240.893119 96.924048 
L 240.998472 96.841527 
L 241.103824 96.762256 
L 241.209177 96.686352 
L 241.314529 96.61393 
L 241.419882 96.545108 
L 241.525235 96.48 
L 241.630587 96.418704 
L 241.73594 96.361239 
L 241.841292 96.307605 
L 241.946645 96.257802 
L 242.051998 96.21183 
L 242.15735 96.169689 
L 242.262703 96.131379 
L 242.368055 96.0969 
L 242.473408 96.066252 
L 242.578761 96.039435 
L 242.684113 96.016449 
L 242.789466 95.997294 
L 242.894818 95.98197 
L 243.000171 95.970477 
L 243.105524 95.962815 
L 243.210876 95.958984 
L 243.316229 95.958984 
L 243.421581 95.962815 
L 243.526934 95.970477 
L 243.632287 95.98197 
L 243.737639 95.997294 
L 243.842992 96.016449 
L 243.948344 96.039435 
L 244.053697 96.066252 
L 244.15905 96.0969 
L 244.264402 96.131379 
L 244.369755 96.169689 
L 244.475107 96.21183 
L 244.58046 96.257802 
L 244.685812 96.307605 
L 244.791165 96.361239 
L 244.896518 96.418704 
L 245.00187 96.48 
L 245.107223 96.545108 
L 245.212575 96.61393 
L 245.317928 96.686352 
L 245.423281 96.762256 
L 245.528633 96.841527 
L 245.633986 96.924048 
L 245.739338 97.009704 
L 245.844691 97.098378 
L 245.950043 97.189955 
L 246.055396 97.284317 
L 246.160749 97.38135 
L 246.266101 97.480937 
L 246.371454 97.582961 
L 246.476806 97.687308 
L 246.582159 97.79386 
L 246.687511 97.902502 
L 246.792864 98.013117 
L 246.898217 98.12559 
L 247.003569 98.239804 
L 247.108922 98.355644 
L 247.214274 98.472992 
L 247.319627 98.591734 
L 247.42498 98.711753 
L 247.530332 98.832933 
L 247.635685 98.955157 
L 247.741037 99.07831 
L 247.84639 99.202276 
L 247.951742 99.326939 
L 248.057095 99.452181 
L 248.162448 99.577889 
L 248.2678 99.703944 
L 248.373153 99.830232 
L 248.478505 99.956636 
" clip-path="url(#p72e9fc38d4)" style="fill: none; stroke: #000000; stroke-width: 2; stroke-linecap: round"></path>
   </g>
   <g id="line2d_34">
    <path d="M 274.900935 108.648225 
L 275.006288 108.648225 
L 275.11164 108.648225 
L 275.216993 108.648225 
L 275.322345 108.648225 
L 275.427698 108.648225 
L 275.533051 108.648225 
L 275.638403 108.648225 
L 275.743756 108.648225 
L 275.849108 108.648225 
L 275.954461 108.648225 
L 276.059814 108.648225 
L 276.165166 108.648225 
L 276.270519 108.648225 
L 276.375871 108.648225 
L 276.481224 108.648225 
L 276.586576 108.648225 
L 276.691929 108.648225 
L 276.797282 108.648225 
L 276.902634 108.648225 
L 277.007987 108.648225 
L 277.113339 108.648225 
L 277.218692 108.648225 
L 277.324045 108.648225 
L 277.429397 108.648225 
L 277.53475 108.648225 
L 277.640102 108.648225 
L 277.745455 108.648225 
L 277.850808 108.648225 
L 277.95616 108.648225 
L 278.061513 108.648225 
L 278.166865 108.648225 
L 278.272218 108.648225 
L 278.37757 108.648225 
L 278.482923 108.648225 
L 278.588276 108.648225 
L 278.693628 108.648225 
L 278.798981 108.648225 
L 278.904333 108.648225 
L 279.009686 108.648225 
L 279.115039 108.648225 
L 279.220391 108.648225 
L 279.325744 108.648225 
L 279.431096 108.648225 
L 279.536449 108.648225 
L 279.641802 108.648225 
L 279.747154 108.648225 
L 279.852507 108.648225 
L 279.957859 108.648225 
L 280.063212 108.648225 
L 280.168564 108.648225 
L 280.273917 108.648225 
L 280.37927 108.648225 
L 280.484622 108.648225 
L 280.589975 108.648225 
L 280.695327 108.648225 
L 280.80068 108.648225 
L 280.906033 108.648225 
L 281.011385 108.648225 
L 281.116738 108.648225 
L 281.22209 108.648225 
L 281.327443 108.648225 
L 281.432795 108.648225 
L 281.538148 108.648225 
L 281.643501 108.648225 
L 281.748853 108.648225 
L 281.854206 108.648225 
L 281.959558 108.648225 
L 282.064911 108.648225 
L 282.170264 108.648225 
L 282.275616 108.648225 
L 282.380969 108.648225 
L 282.486321 108.648225 
L 282.591674 108.648225 
L 282.697027 108.648225 
L 282.802379 108.648225 
L 282.907732 108.648225 
L 283.013084 108.648225 
L 283.118437 108.648225 
L 283.223789 108.648225 
L 283.329142 108.648225 
L 283.434495 108.648225 
L 283.539847 108.648225 
L 283.6452 108.648225 
L 283.750552 108.648225 
L 283.855905 108.648225 
L 283.961258 108.648225 
L 284.06661 108.648225 
L 284.171963 108.648225 
L 284.277315 108.648225 
L 284.382668 108.648225 
L 284.488021 108.648225 
L 284.593373 108.648225 
L 284.698726 108.648225 
L 284.804078 108.648225 
L 284.909431 108.648225 
L 285.014783 108.648225 
L 285.120136 108.648225 
L 285.225489 108.648225 
L 285.330841 108.648225 
" clip-path="url(#p72e9fc38d4)" style="fill: none; stroke: #000000; stroke-width: 2; stroke-linecap: round"></path>
   </g>
   <g id="line2d_35">
    <path d="M 320.44486 80.83514 
L 320.232903 81.010785 
L 320.020958 81.186774 
L 319.809037 81.363451 
L 319.597154 81.54116 
L 319.385319 81.720245 
L 319.173546 81.901049 
L 318.961847 82.083918 
L 318.750233 82.269194 
L 318.538718 82.457222 
L 318.327314 82.648346 
L 318.116032 82.842909 
L 317.904885 83.041256 
L 317.693886 83.243731 
L 317.483047 83.450678 
L 317.272379 83.66244 
L 317.061896 83.879362 
L 316.85161 84.101787 
L 316.641532 84.33006 
L 316.431675 84.564524 
L 316.222052 84.805524 
L 316.012674 85.053404 
L 315.803555 85.308507 
L 315.594706 85.571177 
L 315.386139 85.841758 
L 315.177869 86.120594 
L 314.970102 86.407808 
L 314.763423 86.703105 
L 314.558457 87.006142 
L 314.355832 87.316575 
L 314.156174 87.634059 
L 313.960108 87.95825 
L 313.768263 88.288805 
L 313.581264 88.625379 
L 313.399738 88.967629 
L 313.224311 89.31521 
L 313.05561 89.66778 
L 312.894262 90.024992 
L 312.740892 90.386505 
L 312.596128 90.751973 
L 312.460596 91.121053 
L 312.334923 91.4934 
L 312.219734 91.868672 
L 312.115657 92.246523 
L 312.023318 92.62661 
L 311.943344 93.008589 
L 311.876361 93.392116 
L 311.822996 93.776846 
L 311.783875 94.162437 
L 311.759624 94.548543 
L 311.750848 94.934822 
L 311.757633 95.320928 
L 311.779547 95.706519 
L 311.816134 96.09125 
L 311.866942 96.474776 
L 311.931514 96.856755 
L 312.009397 97.236842 
L 312.100136 97.614693 
L 312.203277 97.989965 
L 312.318364 98.362312 
L 312.444944 98.731392 
L 312.582561 99.09686 
L 312.730762 99.458373 
L 312.889092 99.815585 
L 313.057096 100.168155 
L 313.23432 100.515736 
L 313.420309 100.857986 
L 313.614608 101.19456 
L 313.816764 101.525115 
L 314.026321 101.849306 
L 314.242825 102.16679 
L 314.465822 102.477223 
L 314.694857 102.78026 
L 314.929475 103.075557 
L 315.169222 103.362771 
L 315.413662 103.641607 
L 315.662526 103.912188 
L 315.915627 104.174858 
L 316.172783 104.429961 
L 316.433809 104.677841 
L 316.69852 104.918841 
L 316.966732 105.153305 
L 317.238261 105.381578 
L 317.512922 105.604003 
L 317.790532 105.820925 
L 318.070906 106.032687 
L 318.35386 106.239634 
L 318.639209 106.442109 
L 318.92677 106.640456 
L 319.216357 106.835019 
L 319.507788 107.026143 
L 319.800876 107.214171 
L 320.095439 107.399447 
L 320.391292 107.582316 
L 320.68825 107.76312 
L 320.98613 107.942205 
L 321.284747 108.119914 
L 321.583917 108.296591 
L 321.883455 108.47258 
L 322.183177 108.648225 
" clip-path="url(#p72e9fc38d4)" style="fill: none; stroke: #000000; stroke-width: 2; stroke-linecap: round"></path>
   </g>
   <g id="line2d_36">
    <path d="M 322.183177 108.648225 
L 322.393768 108.414981 
L 322.60367 108.181958 
L 322.812197 107.949378 
L 323.01866 107.71746 
L 323.222371 107.486428 
L 323.422642 107.256501 
L 323.618786 107.027901 
L 323.810114 106.800848 
L 323.995939 106.575565 
L 324.175572 106.352272 
L 324.348325 106.13119 
L 324.513511 105.91254 
L 324.670442 105.696544 
L 324.818429 105.483423 
L 324.956785 105.273397 
L 325.084822 105.066688 
L 325.201852 104.863517 
L 325.307187 104.664106 
L 325.400138 104.468674 
L 325.480019 104.277444 
L 325.546141 104.090637 
L 325.597816 103.908473 
L 325.634356 103.731174 
L 325.655073 103.558961 
L 325.659283 103.392055 
L 325.646735 103.230693 
L 325.61802 103.075141 
L 325.573827 102.925671 
L 325.514843 102.782551 
L 325.441756 102.646054 
L 325.355253 102.516448 
L 325.256024 102.394004 
L 325.144756 102.278992 
L 325.022137 102.171683 
L 324.888854 102.072346 
L 324.745596 101.981253 
L 324.593051 101.898673 
L 324.431907 101.824876 
L 324.262851 101.760134 
L 324.086572 101.704716 
L 323.903757 101.658892 
L 323.715095 101.622932 
L 323.521273 101.597108 
L 323.32298 101.581689 
L 323.120902 101.576945 
L 322.915729 101.583147 
L 322.708149 101.600565 
L 322.498848 101.629469 
L 322.288515 101.67013 
L 322.077839 101.722799 
L 321.867506 101.787305 
L 321.658206 101.863051 
L 321.450625 101.949423 
L 321.245452 102.045808 
L 321.043375 102.15159 
L 320.845081 102.266156 
L 320.65126 102.388891 
L 320.462597 102.519181 
L 320.279783 102.656413 
L 320.103504 102.799971 
L 319.934448 102.949241 
L 319.773304 103.10361 
L 319.620759 103.262462 
L 319.477501 103.425184 
L 319.344218 103.591162 
L 319.221599 103.759781 
L 319.110331 103.930427 
L 319.011102 104.102485 
L 318.9246 104.275342 
L 318.851513 104.448384 
L 318.792528 104.620995 
L 318.748335 104.792562 
L 318.71962 104.962471 
L 318.707072 105.130107 
L 318.711283 105.294908 
L 318.732 105.456763 
L 318.76854 105.615792 
L 318.820215 105.772118 
L 318.886336 105.925865 
L 318.966217 106.077155 
L 319.059169 106.22611 
L 319.164503 106.372854 
L 319.281533 106.51751 
L 319.40957 106.660201 
L 319.547926 106.801048 
L 319.695913 106.940176 
L 319.852844 107.077707 
L 320.01803 107.213763 
L 320.190783 107.348469 
L 320.370416 107.481945 
L 320.556241 107.614316 
L 320.747569 107.745705 
L 320.943712 107.876233 
L 321.143984 108.006025 
L 321.347695 108.135202 
L 321.554157 108.263887 
L 321.762684 108.392205 
L 321.972587 108.520276 
L 322.183177 108.648225 
" clip-path="url(#p72e9fc38d4)" style="fill: none; stroke: #000000; stroke-width: 2; stroke-linecap: round"></path>
   </g>
   <g id="line2d_37">
    <path d="M 322.183177 108.648225 
L 322.411434 108.639435 
L 322.639648 108.63058 
L 322.867775 108.621596 
L 323.095774 108.612419 
L 323.323601 108.602984 
L 323.551213 108.593227 
L 323.778567 108.583082 
L 324.00562 108.572486 
L 324.232328 108.561374 
L 324.45865 108.549682 
L 324.684542 108.537344 
L 324.909961 108.524298 
L 325.134864 108.510477 
L 325.359208 108.495818 
L 325.582951 108.480255 
L 325.806048 108.463726 
L 326.028457 108.446165 
L 326.250135 108.427507 
L 326.47104 108.407688 
L 326.691127 108.386644 
L 326.910354 108.36431 
L 327.128679 108.340621 
L 327.346058 108.315514 
L 327.562447 108.288923 
L 327.777805 108.260784 
L 327.992088 108.231033 
L 328.205253 108.199605 
L 328.417257 108.166436 
L 328.628057 108.131461 
L 328.83761 108.094616 
L 329.045874 108.055835 
L 329.252804 108.015056 
L 329.458358 107.972212 
L 329.662494 107.92724 
L 329.865168 107.880076 
L 330.066337 107.830654 
L 330.265958 107.77891 
L 330.463988 107.72478 
L 330.660384 107.668199 
L 330.855103 107.609103 
L 331.048103 107.547427 
L 331.23934 107.483106 
L 331.42877 107.416077 
L 331.616352 107.346275 
L 331.802042 107.273635 
L 331.985798 107.198092 
L 332.167575 107.119583 
L 332.347332 107.038042 
L 332.525024 106.953406 
L 332.700612 106.865612 
L 332.874095 106.774661 
L 333.045513 106.680614 
L 333.214911 106.583535 
L 333.382331 106.48349 
L 333.547817 106.380543 
L 333.71141 106.274757 
L 333.873155 106.166199 
L 334.033093 106.054932 
L 334.191269 105.94102 
L 334.347725 105.824528 
L 334.502504 105.705522 
L 334.655649 105.584064 
L 334.807204 105.46022 
L 334.95721 105.334055 
L 335.105712 105.205632 
L 335.252751 105.075016 
L 335.398372 104.942272 
L 335.542617 104.807464 
L 335.685529 104.670656 
L 335.827151 104.531914 
L 335.967526 104.391302 
L 336.106697 104.248883 
L 336.244708 104.104723 
L 336.3816 103.958887 
L 336.517418 103.811438 
L 336.652203 103.662441 
L 336.786 103.511961 
L 336.918851 103.360061 
L 337.050799 103.206808 
L 337.181887 103.052264 
L 337.312158 102.896495 
L 337.441655 102.739566 
L 337.570421 102.581539 
L 337.698499 102.422481 
L 337.825932 102.262456 
L 337.952763 102.101527 
L 338.079036 101.93976 
L 338.204792 101.777219 
L 338.330075 101.613969 
L 338.454929 101.450074 
L 338.579395 101.285598 
L 338.703518 101.120607 
L 338.827339 100.955163 
L 338.950903 100.789333 
L 339.074251 100.623181 
L 339.197428 100.45677 
L 339.320475 100.290166 
L 339.443437 100.123433 
L 339.566355 99.956636 
" clip-path="url(#p72e9fc38d4)" style="fill: none; stroke: #000000; stroke-width: 2; stroke-linecap: round"></path>
   </g>
   <g id="line2d_38">
    <path d="M 339.566355 99.956636 
L 339.671708 100.083039 
L 339.777061 100.209327 
L 339.882413 100.335383 
L 339.987766 100.46109 
L 340.093118 100.586333 
L 340.198471 100.710995 
L 340.303823 100.834961 
L 340.409176 100.958114 
L 340.514529 101.080339 
L 340.619881 101.201518 
L 340.725234 101.321537 
L 340.830586 101.440279 
L 340.935939 101.557627 
L 341.041292 101.673467 
L 341.146644 101.787681 
L 341.251997 101.900154 
L 341.357349 102.010769 
L 341.462702 102.119411 
L 341.568055 102.225963 
L 341.673407 102.33031 
L 341.77876 102.432334 
L 341.884112 102.531921 
L 341.989465 102.628954 
L 342.094818 102.723317 
L 342.20017 102.814893 
L 342.305523 102.903567 
L 342.410875 102.989223 
L 342.516228 103.071744 
L 342.62158 103.151015 
L 342.726933 103.226919 
L 342.832286 103.299341 
L 342.937638 103.368163 
L 343.042991 103.433271 
L 343.148343 103.494567 
L 343.253696 103.552032 
L 343.359049 103.605666 
L 343.464401 103.655469 
L 343.569754 103.701441 
L 343.675106 103.743582 
L 343.780459 103.781892 
L 343.885812 103.816371 
L 343.991164 103.847019 
L 344.096517 103.873837 
L 344.201869 103.896823 
L 344.307222 103.915978 
L 344.412575 103.931302 
L 344.517927 103.942795 
L 344.62328 103.950457 
L 344.728632 103.954288 
L 344.833985 103.954288 
L 344.939338 103.950457 
L 345.04469 103.942795 
L 345.150043 103.931302 
L 345.255395 103.915978 
L 345.360748 103.896823 
L 345.466101 103.873837 
L 345.571453 103.847019 
L 345.676806 103.816371 
L 345.782158 103.781892 
L 345.887511 103.743582 
L 345.992863 103.701441 
L 346.098216 103.655469 
L 346.203569 103.605666 
L 346.308921 103.552032 
L 346.414274 103.494567 
L 346.519626 103.433271 
L 346.624979 103.368163 
L 346.730332 103.299341 
L 346.835684 103.226919 
L 346.941037 103.151015 
L 347.046389 103.071744 
L 347.151742 102.989223 
L 347.257094 102.903567 
L 347.362447 102.814893 
L 347.4678 102.723317 
L 347.573152 102.628954 
L 347.678505 102.531921 
L 347.783857 102.432334 
L 347.88921 102.33031 
L 347.994563 102.225963 
L 348.099915 102.119411 
L 348.205268 102.010769 
L 348.31062 101.900154 
L 348.415973 101.787681 
L 348.521325 101.673467 
L 348.626678 101.557627 
L 348.732031 101.440279 
L 348.837383 101.321537 
L 348.942736 101.201518 
L 349.048088 101.080339 
L 349.153441 100.958114 
L 349.258793 100.834961 
L 349.364146 100.710995 
L 349.469499 100.586333 
L 349.574851 100.46109 
L 349.680204 100.335383 
L 349.785556 100.209327 
L 349.890909 100.083039 
L 349.996261 99.956636 
" clip-path="url(#p72e9fc38d4)" style="fill: none; stroke: #000000; stroke-width: 2; stroke-linecap: round"></path>
   </g>
   <g id="line2d_39">
    <path d="M 383.371962 117.339814 
L 383.205593 117.488781 
L 383.039081 117.636809 
L 382.872287 117.78296 
L 382.705069 117.926295 
L 382.537285 118.065876 
L 382.368793 118.200764 
L 382.199454 118.33002 
L 382.029124 118.452705 
L 381.857662 118.567882 
L 381.684928 118.674611 
L 381.510779 118.771954 
L 381.335074 118.858971 
L 381.157672 118.934726 
L 380.978432 118.998278 
L 380.797211 119.04869 
L 380.613869 119.085022 
L 380.428264 119.106336 
L 380.240255 119.111694 
L 380.049699 119.100156 
L 379.856458 119.070787 
L 379.66063 119.023102 
L 379.46285 118.957627 
L 379.263825 118.875024 
L 379.064263 118.775955 
L 378.864871 118.661082 
L 378.666355 118.531069 
L 378.469424 118.386576 
L 378.274784 118.228266 
L 378.083142 118.056801 
L 377.895206 117.872843 
L 377.711683 117.677055 
L 377.53328 117.470098 
L 377.360704 117.252636 
L 377.194662 117.025329 
L 377.035862 116.788841 
L 376.885011 116.543832 
L 376.742815 116.290967 
L 376.609983 116.030906 
L 376.487221 115.764312 
L 376.375228 115.491851 
L 376.274413 115.214318 
L 376.184798 114.93268 
L 376.106386 114.647914 
L 376.039176 114.360996 
L 375.983167 114.072904 
L 375.93836 113.784616 
L 375.904754 113.497108 
L 375.882351 113.211358 
L 375.871149 112.928342 
L 375.871149 112.649039 
L 375.882351 112.374425 
L 375.904754 112.105478 
L 375.93836 111.843174 
L 375.983167 111.588491 
L 376.039176 111.342406 
L 376.106386 111.105896 
L 376.184798 110.879938 
L 376.274413 110.665511 
L 376.375228 110.46359 
L 376.487221 110.275099 
L 376.609983 110.100142 
L 376.742815 109.938196 
L 376.885011 109.788721 
L 377.035862 109.651177 
L 377.194662 109.525023 
L 377.360704 109.409721 
L 377.53328 109.304729 
L 377.711683 109.209507 
L 377.895206 109.123517 
L 378.083142 109.046217 
L 378.274784 108.977067 
L 378.469424 108.915528 
L 378.666355 108.86106 
L 378.864871 108.813122 
L 379.064263 108.771175 
L 379.263825 108.734678 
L 379.46285 108.703092 
L 379.66063 108.675875 
L 379.856458 108.65249 
L 380.049699 108.632427 
L 380.240255 108.615418 
L 380.428264 108.601302 
L 380.613869 108.589919 
L 380.797211 108.581107 
L 380.978432 108.574706 
L 381.157672 108.570555 
L 381.335074 108.568493 
L 381.510779 108.56836 
L 381.684928 108.569995 
L 381.857662 108.573238 
L 382.029124 108.577926 
L 382.199454 108.583901 
L 382.368793 108.591001 
L 382.537285 108.599065 
L 382.705069 108.607932 
L 382.872287 108.617443 
L 383.039081 108.627436 
L 383.205593 108.63775 
L 383.371962 108.648225 
" clip-path="url(#p72e9fc38d4)" style="fill: none; stroke: #000000; stroke-width: 2; stroke-linecap: round"></path>
   </g>
   <g id="line2d_40">
    <path d="M 383.371962 108.648225 
L 383.608995 108.657015 
L 383.845963 108.665869 
L 384.082802 108.674853 
L 384.319448 108.68403 
L 384.555835 108.693465 
L 384.7919 108.703223 
L 385.027579 108.713367 
L 385.262805 108.723963 
L 385.497516 108.735075 
L 385.731646 108.746768 
L 385.965132 108.759105 
L 386.197908 108.772152 
L 386.42991 108.785973 
L 386.661073 108.800632 
L 386.891334 108.816194 
L 387.120627 108.832723 
L 387.348888 108.850285 
L 387.576053 108.868943 
L 387.802057 108.888761 
L 388.026835 108.909806 
L 388.250324 108.93214 
L 388.472458 108.955828 
L 388.693174 108.980936 
L 388.912405 109.007526 
L 389.13009 109.035665 
L 389.346161 109.065416 
L 389.560556 109.096844 
L 389.77321 109.130013 
L 389.984057 109.164988 
L 390.193034 109.201834 
L 390.400077 109.240614 
L 390.60512 109.281394 
L 390.808099 109.324237 
L 391.00895 109.369209 
L 391.207608 109.416374 
L 391.404009 109.465796 
L 391.598088 109.517539 
L 391.78978 109.57167 
L 391.979022 109.62825 
L 392.165748 109.687347 
L 392.349895 109.749023 
L 392.531397 109.813343 
L 392.710191 109.880372 
L 392.886211 109.950175 
L 393.059394 110.022815 
L 393.229674 110.098357 
L 393.396988 110.176866 
L 393.56127 110.258407 
L 393.722456 110.343043 
L 393.880485 110.430837 
L 394.035357 110.521788 
L 394.187132 110.615836 
L 394.335876 110.712914 
L 394.481654 110.812959 
L 394.624529 110.915907 
L 394.764567 111.021692 
L 394.901831 111.13025 
L 395.036386 111.241518 
L 395.168297 111.355429 
L 395.297629 111.471921 
L 395.424445 111.590928 
L 395.54881 111.712385 
L 395.670789 111.836229 
L 395.790446 111.962395 
L 395.907846 112.090818 
L 396.023052 112.221433 
L 396.136131 112.354178 
L 396.247146 112.488986 
L 396.356161 112.625793 
L 396.463242 112.764535 
L 396.568452 112.905148 
L 396.671856 113.047566 
L 396.773519 113.191726 
L 396.873505 113.337563 
L 396.971879 113.485012 
L 397.068705 113.634009 
L 397.164047 113.784489 
L 397.257971 113.936388 
L 397.35054 114.089642 
L 397.441819 114.244185 
L 397.531873 114.399954 
L 397.620766 114.556884 
L 397.708562 114.71491 
L 397.795327 114.873968 
L 397.881124 115.033994 
L 397.966019 115.194922 
L 398.050074 115.356689 
L 398.133356 115.51923 
L 398.215929 115.68248 
L 398.297856 115.846375 
L 398.379203 116.010851 
L 398.460034 116.175843 
L 398.540414 116.341286 
L 398.620407 116.507116 
L 398.700077 116.673269 
L 398.779489 116.839679 
L 398.858708 117.006283 
L 398.937797 117.173016 
L 399.016823 117.339814 
" clip-path="url(#p72e9fc38d4)" style="fill: none; stroke: #000000; stroke-width: 2; stroke-linecap: round"></path>
   </g>
   <g id="line2d_41">
    <path d="M 425.439252 108.648225 
L 425.523505 108.627173 
L 425.607584 108.606238 
L 425.691315 108.585536 
L 425.774523 108.565181 
L 425.857035 108.545291 
L 425.938676 108.525981 
L 426.019272 108.507368 
L 426.098649 108.489567 
L 426.176633 108.472695 
L 426.25305 108.456868 
L 426.327726 108.442202 
L 426.400486 108.428813 
L 426.471156 108.416817 
L 426.539563 108.40633 
L 426.605532 108.397468 
L 426.668888 108.390348 
L 426.729459 108.385085 
L 426.787069 108.381796 
L 426.841545 108.380596 
L 426.892712 108.381602 
L 426.940396 108.38493 
L 426.984424 108.390696 
L 427.02462 108.399016 
L 427.060812 108.410006 
L 427.092824 108.423782 
L 427.120482 108.44046 
L 427.143614 108.460157 
L 427.162043 108.482988 
L 427.175597 108.50907 
L 427.1841 108.538519 
L 427.18738 108.57145 
L 427.185261 108.60798 
L 427.17757 108.648225 
L 427.16421 108.692233 
L 427.145394 108.739782 
L 427.121411 108.790581 
L 427.092553 108.844341 
L 427.059109 108.900771 
L 427.02137 108.959581 
L 426.979625 109.02048 
L 426.934166 109.083179 
L 426.885282 109.147387 
L 426.833264 109.212814 
L 426.778401 109.27917 
L 426.720984 109.346164 
L 426.661304 109.413506 
L 426.59965 109.480907 
L 426.536312 109.548075 
L 426.471582 109.614721 
L 426.405749 109.680554 
L 426.339103 109.745285 
L 426.271934 109.808622 
L 426.204534 109.870276 
L 426.137192 109.929956 
L 426.070197 109.987373 
L 426.003842 110.042236 
L 425.938415 110.094254 
L 425.874207 110.143138 
L 425.811508 110.188598 
L 425.750608 110.230342 
L 425.691799 110.268081 
L 425.635369 110.301525 
L 425.581609 110.330383 
L 425.530809 110.354366 
L 425.483261 110.373182 
L 425.439252 110.386542 
L 425.399007 110.394233 
L 425.362478 110.396352 
L 425.329546 110.393073 
L 425.300098 110.384569 
L 425.274016 110.371015 
L 425.251185 110.352586 
L 425.231488 110.329455 
L 425.21481 110.301796 
L 425.201034 110.269784 
L 425.190044 110.233593 
L 425.181724 110.193396 
L 425.175958 110.149368 
L 425.17263 110.101684 
L 425.171624 110.050517 
L 425.172824 109.996041 
L 425.176113 109.938431 
L 425.181376 109.877861 
L 425.188496 109.814504 
L 425.197357 109.748535 
L 425.207844 109.680129 
L 425.21984 109.609458 
L 425.23323 109.536698 
L 425.247896 109.462023 
L 425.263723 109.385606 
L 425.280595 109.307622 
L 425.298395 109.228244 
L 425.317009 109.147648 
L 425.336318 109.066007 
L 425.356209 108.983496 
L 425.376563 108.900287 
L 425.397266 108.816557 
L 425.418201 108.732478 
L 425.439252 108.648225 
" clip-path="url(#p72e9fc38d4)" style="fill: none; stroke: #000000; stroke-width: 2; stroke-linecap: round"></path>
   </g>
  </g>
 </g>
 <defs>
  <clipPath id="p72e9fc38d4">
   <rect x="7.2" y="7.2" width="446.4" height="120.847851"></rect>
  </clipPath>
 </defs>
</svg>
