<!--?xml version="1.0" encoding="utf-8" standalone="no"?-->

<svg xmlns:xlink="http://www.w3.org/1999/xlink" width="460.8pt" height="144.356986pt" viewBox="0 0 460.8 144.356986" xmlns="http://www.w3.org/2000/svg" version="1.1">
 <metadata>
  <rdf:rdf xmlns:dc="http://purl.org/dc/elements/1.1/" xmlns:cc="http://creativecommons.org/ns#" xmlns:rdf="http://www.w3.org/1999/02/22-rdf-syntax-ns#">
   <cc:work>
    <dc:type rdf:resource="http://purl.org/dc/dcmitype/StillImage"></dc:type>
    <dc:date>2024-10-04T10:09:29.208177</dc:date>
    <dc:format>image/svg+xml</dc:format>
    <dc:creator>
     <cc:agent>
      <dc:title>Matplotlib v3.9.1.post1, https://matplotlib.org/</dc:title>
     </cc:agent>
    </dc:creator>
   </cc:work>
  </rdf:rdf>
 </metadata>
 <defs>
  <style type="text/css">*{stroke-linejoin: round; stroke-linecap: butt}</style>
 </defs>
 <g id="figure_1">
  <g id="patch_1">
   <path d="M 0 144.356986 
L 460.8 144.356986 
L 460.8 0 
L 0 0 
z
" style="fill: #ffffff"></path>
  </g>
  <g id="axes_1">
   <g id="line2d_1">
    <path d="M 35.61407 43.016684 
L 35.6896 42.922272 
L 35.765129 42.827861 
L 35.840658 42.733449 
L 35.916187 42.639038 
L 35.991716 42.544626 
L 36.067245 42.450215 
L 36.142774 42.355803 
L 36.218304 42.261392 
L 36.293833 42.166981 
L 36.369362 42.072569 
L 36.444891 41.978158 
L 36.52042 41.883746 
L 36.595949 41.789335 
L 36.671479 41.694923 
L 36.747008 41.600512 
L 36.822537 41.5061 
L 36.898066 41.411689 
L 36.973595 41.317277 
L 37.049124 41.222866 
L 37.124654 41.128455 
L 37.200183 41.034043 
L 37.275712 40.939632 
L 37.351241 40.84522 
L 37.42677 40.750809 
L 37.502299 40.656397 
L 37.577829 40.561986 
L 37.653358 40.467574 
L 37.728887 40.373163 
L 37.804416 40.278751 
L 37.879945 40.18434 
L 37.955474 40.089929 
L 38.031004 39.995517 
L 38.106533 39.901106 
L 38.182062 39.806694 
L 38.257591 39.712283 
L 38.33312 39.617871 
L 38.408649 39.52346 
L 38.484178 39.429048 
L 38.559708 39.334637 
L 38.635237 39.240225 
L 38.710766 39.145814 
L 38.786295 39.051403 
L 38.861824 38.956991 
L 38.937353 38.86258 
L 39.012883 38.768168 
L 39.088412 38.673757 
L 39.163941 38.579345 
L 39.23947 38.484934 
L 39.314999 38.390522 
L 39.390528 38.296111 
L 39.466058 38.201699 
L 39.541587 38.107288 
L 39.617116 38.012877 
L 39.692645 37.918465 
L 39.768174 37.824054 
L 39.843703 37.729642 
L 39.919233 37.635231 
L 39.994762 37.540819 
L 40.070291 37.446408 
L 40.14582 37.351996 
L 40.221349 37.257585 
L 40.296878 37.163173 
L 40.372408 37.068762 
L 40.447937 36.974351 
L 40.523466 36.879939 
L 40.598995 36.785528 
L 40.674524 36.691116 
L 40.750053 36.596705 
L 40.825582 36.502293 
L 40.901112 36.407882 
L 40.976641 36.31347 
L 41.05217 36.219059 
L 41.127699 36.124647 
L 41.203228 36.030236 
L 41.278757 35.935825 
L 41.354287 35.841413 
L 41.429816 35.747002 
L 41.505345 35.65259 
L 41.580874 35.558179 
L 41.656403 35.463767 
L 41.731932 35.369356 
L 41.807462 35.274944 
L 41.882991 35.180533 
L 41.95852 35.086121 
L 42.034049 34.99171 
L 42.109578 34.897299 
L 42.185107 34.802887 
L 42.260637 34.708476 
L 42.336166 34.614064 
L 42.411695 34.519653 
L 42.487224 34.425241 
L 42.562753 34.33083 
L 42.638282 34.236418 
L 42.713812 34.142007 
L 42.789341 34.047595 
L 42.86487 33.953184 
L 42.940399 33.858773 
L 43.015928 33.764361 
L 43.091457 33.66995 
" clip-path="url(#p13f940d6c9)" style="fill: none; stroke: #000000; stroke-width: 2; stroke-linecap: round"></path>
   </g>
   <g id="line2d_2">
    <path d="M 43.091457 29.931257 
" clip-path="url(#p13f940d6c9)" style="fill: none; stroke: #000000; stroke-width: 2; stroke-linecap: round"></path>
   </g>
   <g id="line2d_3">
    <path d="M 43.091457 33.66995 
" clip-path="url(#p13f940d6c9)" style="fill: none; stroke: #000000; stroke-width: 2; stroke-linecap: round"></path>
   </g>
   <g id="line2d_4">
    <path d="M 43.091457 33.66995 
L 43.270368 33.509754 
L 43.44943 33.350568 
L 43.628796 33.1934 
L 43.808619 33.039261 
L 43.98905 32.889159 
L 44.170242 32.744104 
L 44.352346 32.605105 
L 44.535515 32.473172 
L 44.719901 32.349314 
L 44.905655 32.23454 
L 45.092931 32.12986 
L 45.28188 32.036283 
L 45.472653 31.954818 
L 45.665405 31.886475 
L 45.860285 31.832264 
L 46.057447 31.793193 
L 46.257042 31.770272 
L 46.459223 31.764511 
L 46.664142 31.776918 
L 46.87195 31.808501 
L 47.082539 31.859781 
L 47.295227 31.930191 
L 47.509253 32.01902 
L 47.723858 32.125557 
L 47.93828 32.249088 
L 48.151759 32.388902 
L 48.363534 32.544286 
L 48.572846 32.714529 
L 48.778932 32.898919 
L 48.981035 33.096742 
L 49.178391 33.307288 
L 49.370242 33.529845 
L 49.555826 33.763699 
L 49.734383 34.008139 
L 49.905153 34.262454 
L 50.067375 34.52593 
L 50.220289 34.797855 
L 50.363134 35.077519 
L 50.495149 35.364207 
L 50.615583 35.657206 
L 50.723998 35.955658 
L 50.820367 36.258526 
L 50.90469 36.564757 
L 50.976967 36.873302 
L 51.037197 37.183109 
L 51.085382 37.493127 
L 51.12152 37.802307 
L 51.145612 38.109596 
L 51.157659 38.413944 
L 51.157659 38.7143 
L 51.145612 39.009614 
L 51.12152 39.298834 
L 51.085382 39.580909 
L 51.037197 39.85479 
L 50.976967 40.119424 
L 50.90469 40.373761 
L 50.820367 40.61675 
L 50.723998 40.847341 
L 50.615583 41.064482 
L 50.495149 41.267181 
L 50.363134 41.455326 
L 50.220289 41.629478 
L 50.067375 41.79022 
L 49.905153 41.938132 
L 49.734383 42.073795 
L 49.555826 42.197789 
L 49.370242 42.310695 
L 49.178391 42.413093 
L 48.981035 42.505566 
L 48.778932 42.588692 
L 48.572846 42.663054 
L 48.363534 42.729231 
L 48.151759 42.787805 
L 47.93828 42.839357 
L 47.723858 42.884466 
L 47.509253 42.923714 
L 47.295227 42.957681 
L 47.082539 42.986949 
L 46.87195 43.012097 
L 46.664142 43.033672 
L 46.459223 43.051963 
L 46.257042 43.067143 
L 46.057447 43.079385 
L 45.860285 43.088861 
L 45.665405 43.095744 
L 45.472653 43.100208 
L 45.28188 43.102425 
L 45.092931 43.102568 
L 44.905655 43.10081 
L 44.719901 43.097323 
L 44.535515 43.092281 
L 44.352346 43.085856 
L 44.170242 43.078221 
L 43.98905 43.069549 
L 43.808619 43.060013 
L 43.628796 43.049786 
L 43.44943 43.03904 
L 43.270368 43.027948 
L 43.091457 43.016684 
" clip-path="url(#p13f940d6c9)" style="fill: none; stroke: #000000; stroke-width: 2; stroke-linecap: round"></path>
   </g>
   <g id="line2d_5">
    <path d="M 78.982915 22.45387 
L 79.039562 22.548281 
L 79.096208 22.642693 
L 79.152855 22.737104 
L 79.209502 22.831516 
L 79.266149 22.925927 
L 79.322796 23.020338 
L 79.379443 23.11475 
L 79.43609 23.209161 
L 79.492736 23.303573 
L 79.549383 23.397984 
L 79.60603 23.492396 
L 79.662677 23.586807 
L 79.719324 23.681219 
L 79.775971 23.77563 
L 79.832618 23.870042 
L 79.889265 23.964453 
L 79.945911 24.058864 
L 80.002558 24.153276 
L 80.059205 24.247687 
L 80.115852 24.342099 
L 80.172499 24.43651 
L 80.229146 24.530922 
L 80.285793 24.625333 
L 80.34244 24.719745 
L 80.399086 24.814156 
L 80.455733 24.908568 
L 80.51238 25.002979 
L 80.569027 25.09739 
L 80.625674 25.191802 
L 80.682321 25.286213 
L 80.738968 25.380625 
L 80.795614 25.475036 
L 80.852261 25.569448 
L 80.908908 25.663859 
L 80.965555 25.758271 
L 81.022202 25.852682 
L 81.078849 25.947094 
L 81.135496 26.041505 
L 81.192143 26.135916 
L 81.248789 26.230328 
L 81.305436 26.324739 
L 81.362083 26.419151 
L 81.41873 26.513562 
L 81.475377 26.607974 
L 81.532024 26.702385 
L 81.588671 26.796797 
L 81.645317 26.891208 
L 81.701964 26.98562 
L 81.758611 27.080031 
L 81.815258 27.174442 
L 81.871905 27.268854 
L 81.928552 27.363265 
L 81.985199 27.457677 
L 82.041846 27.552088 
L 82.098492 27.6465 
L 82.155139 27.740911 
L 82.211786 27.835323 
L 82.268433 27.929734 
L 82.32508 28.024146 
L 82.381727 28.118557 
L 82.438374 28.212968 
L 82.495021 28.30738 
L 82.551667 28.401791 
L 82.608314 28.496203 
L 82.664961 28.590614 
L 82.721608 28.685026 
L 82.778255 28.779437 
L 82.834902 28.873849 
L 82.891549 28.96826 
L 82.948195 29.062672 
L 83.004842 29.157083 
L 83.061489 29.251494 
L 83.118136 29.345906 
L 83.174783 29.440317 
L 83.23143 29.534729 
L 83.288077 29.62914 
L 83.344724 29.723552 
L 83.40137 29.817963 
L 83.458017 29.912375 
L 83.514664 30.006786 
L 83.571311 30.101198 
L 83.627958 30.195609 
L 83.684605 30.29002 
L 83.741252 30.384432 
L 83.797898 30.478843 
L 83.854545 30.573255 
L 83.911192 30.667666 
L 83.967839 30.762078 
L 84.024486 30.856489 
L 84.081133 30.950901 
L 84.13778 31.045312 
L 84.194427 31.139724 
L 84.251073 31.234135 
L 84.30772 31.328546 
L 84.364367 31.422958 
L 84.421014 31.517369 
L 84.477661 31.611781 
L 84.534308 31.706192 
L 84.590955 31.800604 
" clip-path="url(#p13f940d6c9)" style="fill: none; stroke: #000000; stroke-width: 2; stroke-linecap: round"></path>
   </g>
   <g id="line2d_6">
    <path d="M 120.482412 33.66995 
L 120.303502 33.509754 
L 120.124439 33.350568 
L 119.945073 33.1934 
L 119.76525 33.039261 
L 119.584819 32.889159 
L 119.403627 32.744104 
L 119.221523 32.605105 
L 119.038354 32.473172 
L 118.853968 32.349314 
L 118.668214 32.23454 
L 118.480938 32.12986 
L 118.29199 32.036283 
L 118.101216 31.954818 
L 117.908465 31.886475 
L 117.713584 31.832264 
L 117.516422 31.793193 
L 117.316827 31.770272 
L 117.114646 31.764511 
L 116.909727 31.776918 
L 116.701919 31.808501 
L 116.49133 31.859781 
L 116.278642 31.930191 
L 116.064616 32.01902 
L 115.850011 32.125557 
L 115.63559 32.249088 
L 115.422111 32.388902 
L 115.210335 32.544286 
L 115.001024 32.714529 
L 114.794937 32.898919 
L 114.592835 33.096742 
L 114.395478 33.307288 
L 114.203628 33.529845 
L 114.018043 33.763699 
L 113.839486 34.008139 
L 113.668716 34.262454 
L 113.506494 34.52593 
L 113.35358 34.797855 
L 113.210735 35.077519 
L 113.07872 35.364207 
L 112.958286 35.657206 
L 112.849871 35.955658 
L 112.753502 36.258526 
L 112.669179 36.564757 
L 112.596903 36.873302 
L 112.536672 37.183109 
L 112.488487 37.493127 
L 112.452349 37.802307 
L 112.428257 38.109596 
L 112.416211 38.413944 
L 112.416211 38.7143 
L 112.428257 39.009614 
L 112.452349 39.298834 
L 112.488487 39.580909 
L 112.536672 39.85479 
L 112.596903 40.119424 
L 112.669179 40.373761 
L 112.753502 40.61675 
L 112.849871 40.847341 
L 112.958286 41.064482 
L 113.07872 41.267181 
L 113.210735 41.455326 
L 113.35358 41.629478 
L 113.506494 41.79022 
L 113.668716 41.938132 
L 113.839486 42.073795 
L 114.018043 42.197789 
L 114.203628 42.310695 
L 114.395478 42.413093 
L 114.592835 42.505566 
L 114.794937 42.588692 
L 115.001024 42.663054 
L 115.210335 42.729231 
L 115.422111 42.787805 
L 115.63559 42.839357 
L 115.850011 42.884466 
L 116.064616 42.923714 
L 116.278642 42.957681 
L 116.49133 42.986949 
L 116.701919 43.012097 
L 116.909727 43.033672 
L 117.114646 43.051963 
L 117.316827 43.067143 
L 117.516422 43.079385 
L 117.713584 43.088861 
L 117.908465 43.095744 
L 118.101216 43.100208 
L 118.29199 43.102425 
L 118.480938 43.102568 
L 118.668214 43.10081 
L 118.853968 43.097323 
L 119.038354 43.092281 
L 119.221523 43.085856 
L 119.403627 43.078221 
L 119.584819 43.069549 
L 119.76525 43.060013 
L 119.945073 43.049786 
L 120.124439 43.03904 
L 120.303502 43.027948 
L 120.482412 43.016684 
" clip-path="url(#p13f940d6c9)" style="fill: none; stroke: #000000; stroke-width: 2; stroke-linecap: round"></path>
   </g>
   <g id="line2d_7">
    <path d="M 120.482412 43.016684 
L 120.595706 42.880752 
L 120.708999 42.744945 
L 120.822293 42.609388 
L 120.935587 42.474205 
L 121.048881 42.339522 
L 121.162174 42.205463 
L 121.275468 42.072153 
L 121.388762 41.939717 
L 121.502056 41.80828 
L 121.615349 41.677966 
L 121.728643 41.5489 
L 121.841937 41.421208 
L 121.955231 41.295014 
L 122.068524 41.170443 
L 122.181818 41.04762 
L 122.295112 40.926669 
L 122.408406 40.807716 
L 122.521699 40.690885 
L 122.634993 40.576301 
L 122.748287 40.464089 
L 122.861581 40.354374 
L 122.974874 40.247281 
L 123.088168 40.142934 
L 123.201462 40.041459 
L 123.314756 39.94298 
L 123.428049 39.847622 
L 123.541343 39.755509 
L 123.654637 39.666768 
L 123.76793 39.581522 
L 123.881224 39.499896 
L 123.994518 39.422016 
L 124.107812 39.348005 
L 124.221105 39.27799 
L 124.334399 39.212074 
L 124.447693 39.150277 
L 124.560987 39.0926 
L 124.67428 39.039043 
L 124.787574 38.989606 
L 124.900868 38.944289 
L 125.014162 38.903091 
L 125.127455 38.866013 
L 125.240749 38.833055 
L 125.354043 38.804216 
L 125.467337 38.779498 
L 125.58063 38.758899 
L 125.693924 38.74242 
L 125.807218 38.73006 
L 125.920512 38.721821 
L 126.033805 38.717701 
L 126.147099 38.717701 
L 126.260393 38.721821 
L 126.373687 38.73006 
L 126.48698 38.74242 
L 126.600274 38.758899 
L 126.713568 38.779498 
L 126.826862 38.804216 
L 126.940155 38.833055 
L 127.053449 38.866013 
L 127.166743 38.903091 
L 127.280037 38.944289 
L 127.39333 38.989606 
L 127.506624 39.039043 
L 127.619918 39.0926 
L 127.733211 39.150277 
L 127.846505 39.212074 
L 127.959799 39.27799 
L 128.073093 39.348005 
L 128.186386 39.422016 
L 128.29968 39.499896 
L 128.412974 39.581522 
L 128.526268 39.666768 
L 128.639561 39.755509 
L 128.752855 39.847622 
L 128.866149 39.94298 
L 128.979443 40.041459 
L 129.092736 40.142934 
L 129.20603 40.247281 
L 129.319324 40.354374 
L 129.432617 40.464089 
L 129.545911 40.576301 
L 129.659205 40.690885 
L 129.772499 40.807716 
L 129.885792 40.926669 
L 129.999086 41.04762 
L 130.11238 41.170443 
L 130.225674 41.295014 
L 130.338967 41.421208 
L 130.452261 41.5489 
L 130.565555 41.677966 
L 130.678848 41.80828 
L 130.792142 41.939717 
L 130.905436 42.072153 
L 131.01873 42.205463 
L 131.132023 42.339522 
L 131.245317 42.474205 
L 131.358611 42.609388 
L 131.471904 42.744945 
L 131.585198 42.880752 
L 131.698492 43.016684 
" clip-path="url(#p13f940d6c9)" style="fill: none; stroke: #000000; stroke-width: 2; stroke-linecap: round"></path>
   </g>
   <g id="line2d_8">
    <path d="M 131.698492 43.016684 
L 131.811786 43.152615 
L 131.925079 43.288422 
L 132.038373 43.423979 
L 132.151667 43.559162 
L 132.264961 43.693845 
L 132.378254 43.827904 
L 132.491548 43.961214 
L 132.604842 44.09365 
L 132.718136 44.225088 
L 132.831429 44.355402 
L 132.944723 44.484467 
L 133.058017 44.612159 
L 133.171311 44.738353 
L 133.284605 44.862924 
L 133.397898 44.985748 
L 133.511192 45.106698 
L 133.624486 45.225652 
L 133.73778 45.342482 
L 133.851073 45.457066 
L 133.964367 45.569278 
L 134.077661 45.678993 
L 134.190955 45.786086 
L 134.304248 45.890433 
L 134.417542 45.991908 
L 134.530836 46.090388 
L 134.64413 46.185746 
L 134.757423 46.277858 
L 134.870717 46.3666 
L 134.984011 46.451846 
L 135.097305 46.533471 
L 135.210598 46.611352 
L 135.323892 46.685362 
L 135.437186 46.755377 
L 135.55048 46.821294 
L 135.663773 46.88309 
L 135.777067 46.940767 
L 135.890361 46.994324 
L 136.003655 47.043761 
L 136.116949 47.089079 
L 136.230242 47.130276 
L 136.343536 47.167354 
L 136.45683 47.200313 
L 136.570124 47.229151 
L 136.683417 47.25387 
L 136.796711 47.274468 
L 136.910005 47.290948 
L 137.023299 47.303307 
L 137.136592 47.311546 
L 137.249886 47.315666 
L 137.36318 47.315666 
L 137.476474 47.311546 
L 137.589768 47.303307 
L 137.703061 47.290948 
L 137.816355 47.274468 
L 137.929649 47.25387 
L 138.042943 47.229151 
L 138.156236 47.200313 
L 138.26953 47.167354 
L 138.382824 47.130276 
L 138.496118 47.089079 
L 138.609411 47.043761 
L 138.722705 46.994324 
L 138.835999 46.940767 
L 138.949293 46.88309 
L 139.062586 46.821294 
L 139.17588 46.755377 
L 139.289174 46.685362 
L 139.402467 46.611352 
L 139.515761 46.533471 
L 139.629055 46.451846 
L 139.742349 46.3666 
L 139.855642 46.277858 
L 139.968936 46.185746 
L 140.08223 46.090388 
L 140.195523 45.991908 
L 140.308817 45.890433 
L 140.422111 45.786086 
L 140.535405 45.678993 
L 140.648698 45.569278 
L 140.761992 45.457066 
L 140.875286 45.342482 
L 140.988579 45.225652 
L 141.101873 45.106698 
L 141.215167 44.985748 
L 141.32846 44.862924 
L 141.441754 44.738353 
L 141.555048 44.612159 
L 141.668341 44.484467 
L 141.781635 44.355402 
L 141.894929 44.225088 
L 142.008222 44.09365 
L 142.121516 43.961214 
L 142.23481 43.827904 
L 142.348104 43.693845 
L 142.461397 43.559162 
L 142.574691 43.423979 
L 142.687985 43.288422 
L 142.801278 43.152615 
L 142.914572 43.016684 
" clip-path="url(#p13f940d6c9)" style="fill: none; stroke: #000000; stroke-width: 2; stroke-linecap: round"></path>
   </g>
   <g id="line2d_9">
    <path d="M 171.328642 33.66995 
L 171.517527 33.896537 
L 171.706781 34.123125 
L 171.896775 34.349712 
L 172.087879 34.5763 
L 172.280463 34.802887 
L 172.474896 35.029475 
L 172.671548 35.256062 
L 172.87079 35.48265 
L 173.072991 35.709237 
L 173.278521 35.935825 
L 173.48775 36.162412 
L 173.701048 36.389 
L 173.918785 36.615587 
L 174.141331 36.842175 
L 174.369055 37.068762 
L 174.602328 37.29535 
L 174.841519 37.521937 
L 175.086998 37.748525 
L 175.339136 37.975112 
L 175.598301 38.2017 
L 175.864865 38.428287 
L 176.139197 38.654875 
L 176.421666 38.881462 
L 176.712644 39.10805 
L 177.012497 39.334635 
L 177.32136 39.560984 
L 177.638916 39.786408 
L 177.964795 40.010167 
L 178.298627 40.231522 
L 178.640042 40.449733 
L 178.98867 40.664059 
L 179.344141 40.873762 
L 179.706085 41.078102 
L 180.074132 41.276338 
L 180.447914 41.467731 
L 180.827058 41.651541 
L 181.211197 41.827028 
L 181.599959 41.993453 
L 181.992975 42.150075 
L 182.389875 42.296155 
L 182.790289 42.430953 
L 183.193847 42.553729 
L 183.600179 42.663744 
L 184.008916 42.760258 
L 184.419687 42.84253 
L 184.832123 42.909821 
L 185.245853 42.961391 
L 185.660509 42.996501 
L 186.075719 43.01441 
L 186.491114 43.01441 
L 186.906324 42.996501 
L 187.320979 42.961391 
L 187.734709 42.909821 
L 188.147145 42.84253 
L 188.557916 42.760258 
L 188.966653 42.663744 
L 189.372986 42.553729 
L 189.776544 42.430953 
L 190.176958 42.296155 
L 190.573858 42.150075 
L 190.966874 41.993453 
L 191.355636 41.827028 
L 191.739774 41.651541 
L 192.118919 41.467731 
L 192.4927 41.276338 
L 192.860748 41.078102 
L 193.222692 40.873762 
L 193.578163 40.664059 
L 193.926791 40.449733 
L 194.268206 40.231522 
L 194.602037 40.010167 
L 194.927916 39.786408 
L 195.245472 39.560984 
L 195.554336 39.334635 
L 195.854189 39.10805 
L 196.145166 38.881462 
L 196.427636 38.654875 
L 196.701967 38.428287 
L 196.968531 38.2017 
L 197.227697 37.975112 
L 197.479834 37.748525 
L 197.725314 37.521937 
L 197.964505 37.29535 
L 198.197778 37.068762 
L 198.425502 36.842175 
L 198.648047 36.615587 
L 198.865784 36.389 
L 199.079082 36.162412 
L 199.288311 35.935825 
L 199.493841 35.709237 
L 199.696042 35.48265 
L 199.895284 35.256062 
L 200.091936 35.029475 
L 200.286369 34.802887 
L 200.478953 34.5763 
L 200.670057 34.349712 
L 200.860051 34.123125 
L 201.049306 33.896537 
L 201.23819 33.66995 
" clip-path="url(#p13f940d6c9)" style="fill: none; stroke: #000000; stroke-width: 2; stroke-linecap: round"></path>
   </g>
   <g id="line2d_10">
    <path d="M 238.998995 13.107136 
L 238.771061 13.29602 
L 238.54314 13.485275 
L 238.315245 13.675269 
L 238.087391 13.866373 
L 237.859589 14.058956 
L 237.631853 14.253389 
L 237.404196 14.450042 
L 237.176632 14.649284 
L 236.949174 14.851485 
L 236.721834 15.057015 
L 236.494627 15.266244 
L 236.267564 15.479542 
L 236.040661 15.697279 
L 235.813929 15.919824 
L 235.587382 16.147548 
L 235.361033 16.380821 
L 235.134896 16.620012 
L 234.908983 16.865492 
L 234.683308 17.117629 
L 234.457884 17.376795 
L 234.232724 17.643359 
L 234.007842 17.91769 
L 233.78325 18.20016 
L 233.558963 18.491137 
L 233.334993 18.79099 
L 233.111566 19.099853 
L 232.889308 19.41741 
L 232.668893 19.743289 
L 232.450994 20.07712 
L 232.236286 20.418535 
L 232.025442 20.767163 
L 231.819136 21.122634 
L 231.618042 21.484578 
L 231.422833 21.852626 
L 231.234183 22.226407 
L 231.052766 22.605552 
L 230.879255 22.98969 
L 230.714325 23.378452 
L 230.558649 23.771468 
L 230.412901 24.168368 
L 230.277755 24.568782 
L 230.153884 24.97234 
L 230.041962 25.378673 
L 229.942663 25.78741 
L 229.856661 26.198181 
L 229.784629 26.610617 
L 229.727241 27.024347 
L 229.685171 27.439002 
L 229.659092 27.854212 
L 229.649655 28.269607 
L 229.656951 28.684817 
L 229.680517 29.099472 
L 229.719862 29.513203 
L 229.774499 29.925639 
L 229.843939 30.33641 
L 229.927693 30.745147 
L 230.025271 31.151479 
L 230.136186 31.555037 
L 230.259948 31.955451 
L 230.396069 32.352351 
L 230.54406 32.745367 
L 230.703432 33.134129 
L 230.873696 33.518268 
L 231.054364 33.897412 
L 231.244946 34.271193 
L 231.444954 34.639241 
L 231.653899 35.001185 
L 231.871293 35.356656 
L 232.096646 35.705284 
L 232.32947 36.046699 
L 232.569275 36.380531 
L 232.815574 36.70641 
L 233.067877 37.023966 
L 233.325695 37.332829 
L 233.58856 37.632682 
L 233.856183 37.92366 
L 234.128362 38.206129 
L 234.404902 38.480461 
L 234.685603 38.747025 
L 234.970267 39.00619 
L 235.258696 39.258328 
L 235.550692 39.503807 
L 235.846056 39.742998 
L 236.144591 39.976271 
L 236.446099 40.203995 
L 236.750381 40.426541 
L 237.057239 40.644278 
L 237.366475 40.857576 
L 237.677891 41.066805 
L 237.991288 41.272335 
L 238.306469 41.474536 
L 238.623235 41.673777 
L 238.941388 41.87043 
L 239.260731 42.064863 
L 239.581064 42.257447 
L 239.902189 42.44855 
L 240.223909 42.638545 
L 240.546026 42.827799 
L 240.86834 43.016684 
" clip-path="url(#p13f940d6c9)" style="fill: none; stroke: #000000; stroke-width: 2; stroke-linecap: round"></path>
   </g>
   <g id="line2d_11">
    <path d="M 240.86834 43.016684 
L 241.094805 42.765859 
L 241.320529 42.515271 
L 241.544774 42.26516 
L 241.766799 42.015761 
L 241.985866 41.767314 
L 242.201233 41.520056 
L 242.412161 41.274225 
L 242.617911 41.030058 
L 242.817742 40.787793 
L 243.010915 40.547669 
L 243.19669 40.309923 
L 243.374328 40.074792 
L 243.543087 39.842515 
L 243.70223 39.613329 
L 243.851015 39.387472 
L 243.988703 39.165182 
L 244.114554 38.946697 
L 244.227828 38.732254 
L 244.327786 38.522092 
L 244.413688 38.316448 
L 244.484794 38.115559 
L 244.540364 37.919664 
L 244.579658 37.729001 
L 244.601937 37.543807 
L 244.606464 37.36432 
L 244.592971 37.190795 
L 244.562092 37.023519 
L 244.514567 36.862781 
L 244.451137 36.708874 
L 244.37254 36.562088 
L 244.279518 36.422712 
L 244.172809 36.291039 
L 244.053154 36.167358 
L 243.921292 36.05196 
L 243.777963 35.945136 
L 243.623907 35.847176 
L 243.459863 35.758372 
L 243.286572 35.679013 
L 243.104774 35.60939 
L 242.915207 35.549795 
L 242.718612 35.500516 
L 242.515729 35.461847 
L 242.307298 35.434076 
L 242.094058 35.417494 
L 241.876748 35.412393 
L 241.65611 35.419063 
L 241.432883 35.437793 
L 241.207806 35.468876 
L 240.981619 35.512602 
L 240.755062 35.569241 
L 240.528875 35.638609 
L 240.303798 35.720064 
L 240.080571 35.812947 
L 239.859933 35.916597 
L 239.642623 36.030353 
L 239.429383 36.153554 
L 239.220952 36.285541 
L 239.018069 36.425652 
L 238.821474 36.573228 
L 238.631908 36.727607 
L 238.450109 36.888128 
L 238.276818 37.054133 
L 238.112775 37.224959 
L 237.958719 37.399947 
L 237.81539 37.578435 
L 237.683528 37.759764 
L 237.563873 37.943273 
L 237.457164 38.128301 
L 237.364142 38.314187 
L 237.285545 38.500272 
L 237.222115 38.685894 
L 237.17459 38.870394 
L 237.143711 39.053109 
L 237.130218 39.233381 
L 237.134745 39.410605 
L 237.157024 39.584659 
L 237.196318 39.755675 
L 237.251888 39.923785 
L 237.322994 40.089121 
L 237.408896 40.251814 
L 237.508854 40.411998 
L 237.622128 40.569803 
L 237.747979 40.725363 
L 237.885667 40.878809 
L 238.034452 41.030273 
L 238.193594 41.179888 
L 238.362354 41.327785 
L 238.539991 41.474097 
L 238.725766 41.618956 
L 238.918939 41.762494 
L 239.118771 41.904843 
L 239.32452 42.046135 
L 239.535449 42.186502 
L 239.750816 42.326077 
L 239.969882 42.464991 
L 240.191907 42.603376 
L 240.416152 42.741366 
L 240.641876 42.879091 
L 240.86834 43.016684 
" clip-path="url(#p13f940d6c9)" style="fill: none; stroke: #000000; stroke-width: 2; stroke-linecap: round"></path>
   </g>
   <g id="line2d_12">
    <path d="M 240.86834 43.016684 
L 241.113803 43.007231 
L 241.359218 42.997709 
L 241.604542 42.988048 
L 241.849726 42.978179 
L 242.094726 42.968033 
L 242.339494 42.95754 
L 242.583986 42.946631 
L 242.828153 42.935236 
L 243.07195 42.923287 
L 243.315332 42.910713 
L 243.558251 42.897446 
L 243.800661 42.883415 
L 244.042517 42.868553 
L 244.283771 42.852789 
L 244.524378 42.836054 
L 244.764292 42.818278 
L 245.003465 42.799393 
L 245.241853 42.779329 
L 245.479409 42.758016 
L 245.716085 42.735386 
L 245.951838 42.711368 
L 246.186619 42.685894 
L 246.420383 42.658894 
L 246.653083 42.630299 
L 246.884674 42.600039 
L 247.115109 42.568046 
L 247.344341 42.534249 
L 247.572326 42.49858 
L 247.799015 42.460968 
L 248.024364 42.421345 
L 248.248326 42.379642 
L 248.470854 42.335788 
L 248.691902 42.289716 
L 248.911425 42.241354 
L 249.129376 42.190634 
L 249.345708 42.137487 
L 249.560376 42.081843 
L 249.773333 42.023632 
L 249.984533 41.962787 
L 250.19393 41.899236 
L 250.401477 41.832911 
L 250.607128 41.763742 
L 250.810838 41.691661 
L 251.012559 41.616597 
L 251.212246 41.538481 
L 251.409852 41.457245 
L 251.605331 41.372818 
L 251.798637 41.285131 
L 251.989724 41.194115 
L 252.178547 41.099703 
L 252.365106 41.001896 
L 252.549446 40.90076 
L 252.731612 40.796364 
L 252.911652 40.688778 
L 253.089611 40.578071 
L 253.265536 40.464312 
L 253.439472 40.34757 
L 253.611466 40.227916 
L 253.781565 40.105418 
L 253.949814 39.980146 
L 254.11626 39.852169 
L 254.280949 39.721556 
L 254.443927 39.588378 
L 254.60524 39.452702 
L 254.764935 39.314599 
L 254.923058 39.174138 
L 255.079656 39.031388 
L 255.234773 38.886418 
L 255.388457 38.739299 
L 255.540755 38.590098 
L 255.691711 38.438887 
L 255.841372 38.285734 
L 255.989786 38.130707 
L 256.136997 37.973878 
L 256.283052 37.815315 
L 256.427997 37.655087 
L 256.571879 37.493264 
L 256.714743 37.329915 
L 256.856637 37.16511 
L 256.997606 36.998917 
L 257.137696 36.831407 
L 257.276955 36.662648 
L 257.415427 36.492711 
L 257.553159 36.321663 
L 257.690198 36.149575 
L 257.826589 35.976517 
L 257.962379 35.802556 
L 258.097615 35.627764 
L 258.232342 35.452208 
L 258.366606 35.275959 
L 258.500454 35.099085 
L 258.633933 34.921657 
L 258.767088 34.743743 
L 258.899965 34.565414 
L 259.032611 34.386737 
L 259.165072 34.207783 
L 259.297395 34.028621 
L 259.429625 33.84932 
L 259.561808 33.66995 
" clip-path="url(#p13f940d6c9)" style="fill: none; stroke: #000000; stroke-width: 2; stroke-linecap: round"></path>
   </g>
   <g id="line2d_13">
    <path d="M 259.561808 33.66995 
L 259.675102 33.805881 
L 259.788396 33.941688 
L 259.90169 34.077245 
L 260.014983 34.212428 
L 260.128277 34.347111 
L 260.241571 34.48117 
L 260.354865 34.61448 
L 260.468158 34.746916 
L 260.581452 34.878354 
L 260.694746 35.008668 
L 260.80804 35.137733 
L 260.921333 35.265425 
L 261.034627 35.391619 
L 261.147921 35.51619 
L 261.261215 35.639014 
L 261.374508 35.759964 
L 261.487802 35.878918 
L 261.601096 35.995748 
L 261.71439 36.110332 
L 261.827683 36.222544 
L 261.940977 36.332259 
L 262.054271 36.439352 
L 262.167565 36.543699 
L 262.280858 36.645174 
L 262.394152 36.743654 
L 262.507446 36.839012 
L 262.62074 36.931124 
L 262.734033 37.019866 
L 262.847327 37.105112 
L 262.960621 37.186737 
L 263.073914 37.264618 
L 263.187208 37.338628 
L 263.300502 37.408643 
L 263.413796 37.47456 
L 263.527089 37.536356 
L 263.640383 37.594033 
L 263.753677 37.64759 
L 263.866971 37.697027 
L 263.980264 37.742345 
L 264.093558 37.783542 
L 264.206852 37.82062 
L 264.320146 37.853579 
L 264.433439 37.882417 
L 264.546733 37.907136 
L 264.660027 37.927734 
L 264.773321 37.944214 
L 264.886614 37.956573 
L 264.999908 37.964812 
L 265.113202 37.968932 
L 265.226496 37.968932 
L 265.339789 37.964812 
L 265.453083 37.956573 
L 265.566377 37.944214 
L 265.679671 37.927734 
L 265.792964 37.907136 
L 265.906258 37.882417 
L 266.019552 37.853579 
L 266.132846 37.82062 
L 266.246139 37.783542 
L 266.359433 37.742345 
L 266.472727 37.697027 
L 266.586021 37.64759 
L 266.699314 37.594033 
L 266.812608 37.536356 
L 266.925902 37.47456 
L 267.039195 37.408643 
L 267.152489 37.338628 
L 267.265783 37.264618 
L 267.379077 37.186737 
L 267.49237 37.105112 
L 267.605664 37.019866 
L 267.718958 36.931124 
L 267.832252 36.839012 
L 267.945545 36.743654 
L 268.058839 36.645174 
L 268.172133 36.543699 
L 268.285427 36.439352 
L 268.39872 36.332259 
L 268.512014 36.222544 
L 268.625308 36.110332 
L 268.738601 35.995748 
L 268.851895 35.878918 
L 268.965189 35.759964 
L 269.078483 35.639014 
L 269.191776 35.51619 
L 269.30507 35.391619 
L 269.418364 35.265425 
L 269.531657 35.137733 
L 269.644951 35.008668 
L 269.758245 34.878354 
L 269.871539 34.746916 
L 269.984832 34.61448 
L 270.098126 34.48117 
L 270.21142 34.347111 
L 270.324714 34.212428 
L 270.438007 34.077245 
L 270.551301 33.941688 
L 270.664595 33.805881 
L 270.777888 33.66995 
" clip-path="url(#p13f940d6c9)" style="fill: none; stroke: #000000; stroke-width: 2; stroke-linecap: round"></path>
   </g>
   <g id="line2d_14">
    <path d="M 299.191959 31.800604 
" clip-path="url(#p13f940d6c9)" style="fill: none; stroke: #000000; stroke-width: 2; stroke-linecap: round"></path>
   </g>
   <g id="line2d_15">
    <path d="M 299.191959 31.800604 
L 299.324143 32.055503 
L 299.456372 32.310333 
L 299.588695 32.565024 
L 299.721156 32.819508 
L 299.853802 33.073713 
L 299.98668 33.327572 
L 300.119834 33.581015 
L 300.253313 33.833973 
L 300.387161 34.086375 
L 300.521425 34.338153 
L 300.656152 34.589238 
L 300.791388 34.83956 
L 300.927178 35.089049 
L 301.063569 35.337637 
L 301.200608 35.585254 
L 301.33834 35.831831 
L 301.476812 36.077298 
L 301.61607 36.321586 
L 301.756161 36.564625 
L 301.89713 36.806347 
L 302.039023 37.046681 
L 302.181888 37.285559 
L 302.32577 37.522911 
L 302.470715 37.758668 
L 302.61677 37.992761 
L 302.763981 38.225119 
L 302.912394 38.455674 
L 303.062056 38.684357 
L 303.213012 38.911098 
L 303.365309 39.135827 
L 303.518993 39.358476 
L 303.674111 39.578974 
L 303.830708 39.797253 
L 303.988831 40.013244 
L 304.148526 40.226876 
L 304.30984 40.438081 
L 304.472818 40.646789 
L 304.637506 40.85293 
L 304.803952 41.056437 
L 304.972201 41.257238 
L 305.1423 41.455265 
L 305.314294 41.650449 
L 305.488231 41.842719 
L 305.664155 42.032007 
L 305.842114 42.218244 
L 306.022154 42.401359 
L 306.20432 42.581284 
L 306.38866 42.757949 
L 306.575219 42.931286 
L 306.764042 43.101226 
L 306.955129 43.267771 
L 307.148435 43.430987 
L 307.343914 43.590943 
L 307.54152 43.747709 
L 307.741207 43.901354 
L 307.942928 44.051947 
L 308.146638 44.199558 
L 308.352289 44.344256 
L 308.559837 44.48611 
L 308.769233 44.62519 
L 308.980433 44.761565 
L 309.19339 44.895304 
L 309.408058 45.026477 
L 309.624391 45.155154 
L 309.842341 45.281403 
L 310.061864 45.405294 
L 310.282913 45.526896 
L 310.505441 45.646278 
L 310.729402 45.763511 
L 310.954751 45.878663 
L 311.181441 45.991803 
L 311.409425 46.103002 
L 311.638658 46.212328 
L 311.869093 46.319851 
L 312.100683 46.42564 
L 312.333384 46.529764 
L 312.567148 46.632293 
L 312.801929 46.733296 
L 313.037681 46.832843 
L 313.274358 46.931002 
L 313.511914 47.027844 
L 313.750301 47.123438 
L 313.989475 47.217852 
L 314.229389 47.311157 
L 314.469996 47.403421 
L 314.71125 47.494714 
L 314.953106 47.585106 
L 315.195516 47.674666 
L 315.438435 47.763462 
L 315.681817 47.851565 
L 315.925614 47.939044 
L 316.169782 48.025968 
L 316.414273 48.112406 
L 316.659041 48.198428 
L 316.904041 48.284104 
L 317.149225 48.369502 
L 317.394549 48.454692 
L 317.639965 48.539743 
L 317.885427 48.624725 
" clip-path="url(#p13f940d6c9)" style="fill: none; stroke: #000000; stroke-width: 2; stroke-linecap: round"></path>
   </g>
   <g id="line2d_16">
    <path d="M 317.885427 48.624725 
L 317.866544 48.719136 
L 317.847662 48.813548 
L 317.82878 48.907959 
L 317.809898 49.00237 
L 317.791015 49.096782 
L 317.772133 49.191193 
L 317.753251 49.285605 
L 317.734368 49.380016 
L 317.715486 49.474428 
L 317.696604 49.568839 
L 317.677722 49.663251 
L 317.658839 49.757662 
L 317.639957 49.852073 
L 317.621075 49.946485 
L 317.602192 50.040896 
L 317.58331 50.135308 
L 317.564428 50.229719 
L 317.545546 50.324131 
L 317.526663 50.418542 
L 317.507781 50.512954 
L 317.488899 50.607365 
L 317.470016 50.701776 
L 317.451134 50.796188 
L 317.432252 50.890599 
L 317.413369 50.985011 
L 317.394487 51.079422 
L 317.375605 51.173834 
L 317.356723 51.268245 
L 317.33784 51.362657 
L 317.318958 51.457068 
L 317.300076 51.551479 
L 317.281193 51.645891 
L 317.262311 51.740302 
L 317.243429 51.834714 
L 317.224547 51.929125 
L 317.205664 52.023537 
L 317.186782 52.117948 
L 317.1679 52.21236 
L 317.149017 52.306771 
L 317.130135 52.401182 
L 317.111253 52.495594 
L 317.09237 52.590005 
L 317.073488 52.684417 
L 317.054606 52.778828 
L 317.035724 52.87324 
L 317.016841 52.967651 
L 316.997959 53.062063 
L 316.979077 53.156474 
L 316.960194 53.250885 
L 316.941312 53.345297 
L 316.92243 53.439708 
L 316.903548 53.53412 
L 316.884665 53.628531 
L 316.865783 53.722943 
L 316.846901 53.817354 
L 316.828018 53.911766 
L 316.809136 54.006177 
L 316.790254 54.100588 
L 316.771371 54.195 
L 316.752489 54.289411 
L 316.733607 54.383823 
L 316.714725 54.478234 
L 316.695842 54.572646 
L 316.67696 54.667057 
L 316.658078 54.761469 
L 316.639195 54.85588 
L 316.620313 54.950291 
L 316.601431 55.044703 
L 316.582549 55.139114 
L 316.563666 55.233526 
L 316.544784 55.327937 
L 316.525902 55.422349 
L 316.507019 55.51676 
L 316.488137 55.611172 
L 316.469255 55.705583 
L 316.450373 55.799994 
L 316.43149 55.894406 
L 316.412608 55.988817 
L 316.393726 56.083229 
L 316.374843 56.17764 
L 316.355961 56.272052 
L 316.337079 56.366463 
L 316.318196 56.460875 
L 316.299314 56.555286 
L 316.280432 56.649697 
L 316.26155 56.744109 
L 316.242667 56.83852 
L 316.223785 56.932932 
L 316.204903 57.027343 
L 316.18602 57.121755 
L 316.167138 57.216166 
L 316.148256 57.310578 
L 316.129374 57.404989 
L 316.110491 57.4994 
L 316.091609 57.593812 
L 316.072727 57.688223 
L 316.053844 57.782635 
L 316.034962 57.877046 
L 316.01608 57.971458 
" clip-path="url(#p13f940d6c9)" style="fill: none; stroke: #000000; stroke-width: 2; stroke-linecap: round"></path>
   </g>
   <g id="line2d_17">
    <path d="M 348.168844 43.016684 
L 348.178281 43.054448 
L 348.187695 43.092213 
L 348.197063 43.129977 
L 348.206362 43.167742 
L 348.215568 43.205507 
L 348.224658 43.243271 
L 348.23361 43.281036 
L 348.2424 43.3188 
L 348.251005 43.356565 
L 348.259402 43.394329 
L 348.267568 43.432094 
L 348.275479 43.469859 
L 348.283113 43.507623 
L 348.290447 43.545388 
L 348.297457 43.583152 
L 348.30412 43.620917 
L 348.310413 43.658682 
L 348.316313 43.696446 
L 348.321797 43.734211 
L 348.326842 43.771975 
L 348.331424 43.80974 
L 348.335521 43.847504 
L 348.339109 43.885269 
L 348.342166 43.923034 
L 348.344667 43.960798 
L 348.346591 43.998563 
L 348.347914 44.036327 
L 348.348612 44.074092 
L 348.348663 44.111857 
L 348.348044 44.149621 
L 348.346731 44.187386 
L 348.344701 44.22515 
L 348.341932 44.262915 
L 348.338399 44.300679 
L 348.334081 44.338444 
L 348.328953 44.376209 
L 348.322993 44.413973 
L 348.316178 44.451738 
L 348.308484 44.489502 
L 348.299889 44.527267 
L 348.290369 44.565031 
L 348.279901 44.602796 
L 348.268462 44.640561 
L 348.256029 44.678325 
L 348.242578 44.71609 
L 348.228088 44.753854 
L 348.212534 44.791619 
L 348.195893 44.829384 
L 348.178142 44.867148 
L 348.15926 44.904913 
L 348.139246 44.942677 
L 348.118122 44.980442 
L 348.095912 45.018206 
L 348.072638 45.055971 
L 348.048324 45.093736 
L 348.022992 45.1315 
L 347.996667 45.169265 
L 347.96937 45.207029 
L 347.941126 45.244794 
L 347.911956 45.282559 
L 347.881885 45.320323 
L 347.850936 45.358088 
L 347.819131 45.395852 
L 347.786494 45.433617 
L 347.753048 45.471381 
L 347.718816 45.509146 
L 347.683821 45.546911 
L 347.648086 45.584675 
L 347.611634 45.62244 
L 347.574489 45.660204 
L 347.536673 45.697969 
L 347.49821 45.735733 
L 347.459123 45.773498 
L 347.419435 45.811263 
L 347.379169 45.849027 
L 347.338348 45.886792 
L 347.296995 45.924556 
L 347.255133 45.962321 
L 347.212787 46.000086 
L 347.169977 46.03785 
L 347.126729 46.075615 
L 347.083064 46.113379 
L 347.039006 46.151144 
L 346.994579 46.188908 
L 346.949804 46.226673 
L 346.904706 46.264438 
L 346.859308 46.302202 
L 346.813632 46.339967 
L 346.767701 46.377731 
L 346.72154 46.415496 
L 346.67517 46.453261 
L 346.628616 46.491025 
L 346.581899 46.52879 
L 346.535044 46.566554 
L 346.488073 46.604319 
L 346.44101 46.642083 
L 346.393878 46.679848 
L 346.346699 46.717613 
L 346.299497 46.755377 
" clip-path="url(#p13f940d6c9)" style="fill: none; stroke: #000000; stroke-width: 2; stroke-linecap: round"></path>
   </g>
   <g id="line2d_18">
    <path d="M 35.61407 106.948342 
L 35.802955 107.174929 
L 35.992209 107.401517 
L 36.182204 107.628104 
L 36.373308 107.854692 
L 36.565891 108.081279 
L 36.760324 108.307867 
L 36.956977 108.534454 
L 37.156218 108.761042 
L 37.358419 108.987629 
L 37.563949 109.214217 
L 37.773178 109.440804 
L 37.986477 109.667392 
L 38.204213 109.893979 
L 38.426759 110.120567 
L 38.654483 110.347154 
L 38.887756 110.573742 
L 39.126947 110.800329 
L 39.372426 111.026917 
L 39.624564 111.253504 
L 39.88373 111.480092 
L 40.150293 111.706679 
L 40.424625 111.933267 
L 40.707094 112.159854 
L 40.998072 112.386442 
L 41.297925 112.613027 
L 41.606788 112.839376 
L 41.924344 113.0648 
L 42.250223 113.288559 
L 42.584055 113.509914 
L 42.92547 113.728125 
L 43.274098 113.942452 
L 43.629569 114.152155 
L 43.991513 114.356494 
L 44.359561 114.55473 
L 44.733342 114.746123 
L 45.112486 114.929933 
L 45.496625 115.10542 
L 45.885387 115.271845 
L 46.278403 115.428467 
L 46.675303 115.574547 
L 47.075717 115.709345 
L 47.479275 115.832122 
L 47.885607 115.942136 
L 48.294344 116.03865 
L 48.705115 116.120922 
L 49.117551 116.188213 
L 49.531282 116.239783 
L 49.945937 116.274893 
L 50.361147 116.292803 
L 50.776542 116.292803 
L 51.191752 116.274893 
L 51.606407 116.239783 
L 52.020137 116.188213 
L 52.432573 116.120922 
L 52.843344 116.03865 
L 53.252081 115.942136 
L 53.658414 115.832122 
L 54.061972 115.709345 
L 54.462386 115.574547 
L 54.859286 115.428467 
L 55.252302 115.271845 
L 55.641064 115.10542 
L 56.025202 114.929933 
L 56.404347 114.746123 
L 56.778128 114.55473 
L 57.146176 114.356494 
L 57.50812 114.152155 
L 57.863591 113.942452 
L 58.212219 113.728125 
L 58.553634 113.509914 
L 58.887465 113.288559 
L 59.213344 113.0648 
L 59.530901 112.839376 
L 59.839764 112.613027 
L 60.139617 112.386442 
L 60.430594 112.159854 
L 60.713064 111.933267 
L 60.987395 111.706679 
L 61.253959 111.480092 
L 61.513125 111.253504 
L 61.765262 111.026917 
L 62.010742 110.800329 
L 62.249933 110.573742 
L 62.483206 110.347154 
L 62.71093 110.120567 
L 62.933475 109.893979 
L 63.151212 109.667392 
L 63.36451 109.440804 
L 63.573739 109.214217 
L 63.779269 108.987629 
L 63.98147 108.761042 
L 64.180712 108.534454 
L 64.377365 108.307867 
L 64.571798 108.081279 
L 64.764381 107.854692 
L 64.955485 107.628104 
L 65.145479 107.401517 
L 65.334734 107.174929 
L 65.523618 106.948342 
" clip-path="url(#p13f940d6c9)" style="fill: none; stroke: #000000; stroke-width: 2; stroke-linecap: round"></path>
   </g>
   <g id="line2d_19">
    <path d="M 95.807035 106.948342 
L 95.788153 107.042753 
L 95.769271 107.137165 
L 95.750389 107.231576 
L 95.731506 107.325988 
L 95.712624 107.420399 
L 95.693742 107.514811 
L 95.674859 107.609222 
L 95.655977 107.703634 
L 95.637095 107.798045 
L 95.618212 107.892456 
L 95.59933 107.986868 
L 95.580448 108.081279 
L 95.561566 108.175691 
L 95.542683 108.270102 
L 95.523801 108.364514 
L 95.504919 108.458925 
L 95.486036 108.553337 
L 95.467154 108.647748 
L 95.448272 108.74216 
L 95.42939 108.836571 
L 95.410507 108.930982 
L 95.391625 109.025394 
L 95.372743 109.119805 
L 95.35386 109.214217 
L 95.334978 109.308628 
L 95.316096 109.40304 
L 95.297214 109.497451 
L 95.278331 109.591863 
L 95.259449 109.686274 
L 95.240567 109.780686 
L 95.221684 109.875097 
L 95.202802 109.969508 
L 95.18392 110.06392 
L 95.165038 110.158331 
L 95.146155 110.252743 
L 95.127273 110.347154 
L 95.108391 110.441566 
L 95.089508 110.535977 
L 95.070626 110.630389 
L 95.051744 110.7248 
L 95.032861 110.819212 
L 95.013979 110.913623 
L 94.995097 111.008034 
L 94.976215 111.102446 
L 94.957332 111.196857 
L 94.93845 111.291269 
L 94.919568 111.38568 
L 94.900685 111.480092 
L 94.881803 111.574503 
L 94.862921 111.668915 
L 94.844039 111.763326 
L 94.825156 111.857738 
L 94.806274 111.952149 
L 94.787392 112.04656 
L 94.768509 112.140972 
L 94.749627 112.235383 
L 94.730745 112.329795 
L 94.711863 112.424206 
L 94.69298 112.518618 
L 94.674098 112.613029 
L 94.655216 112.707441 
L 94.636333 112.801852 
L 94.617451 112.896264 
L 94.598569 112.990675 
L 94.579687 113.085086 
L 94.560804 113.179498 
L 94.541922 113.273909 
L 94.52304 113.368321 
L 94.504157 113.462732 
L 94.485275 113.557144 
L 94.466393 113.651555 
L 94.44751 113.745967 
L 94.428628 113.840378 
L 94.409746 113.93479 
L 94.390864 114.029201 
L 94.371981 114.123612 
L 94.353099 114.218024 
L 94.334217 114.312435 
L 94.315334 114.406847 
L 94.296452 114.501258 
L 94.27757 114.59567 
L 94.258688 114.690081 
L 94.239805 114.784493 
L 94.220923 114.878904 
L 94.202041 114.973316 
L 94.183158 115.067727 
L 94.164276 115.162138 
L 94.145394 115.25655 
L 94.126512 115.350961 
L 94.107629 115.445373 
L 94.088747 115.539784 
L 94.069865 115.634196 
L 94.050982 115.728607 
L 94.0321 115.823019 
L 94.013218 115.91743 
L 93.994336 116.011842 
L 93.975453 116.106253 
L 93.956571 116.200664 
L 93.937689 116.295076 
" clip-path="url(#p13f940d6c9)" style="fill: none; stroke: #000000; stroke-width: 2; stroke-linecap: round"></path>
   </g>
   <g id="line2d_20">
    <path d="M 93.937689 116.295076 
L 94.126573 116.068488 
L 94.315828 115.841901 
L 94.505822 115.615314 
L 94.696926 115.388726 
L 94.889509 115.162139 
L 95.083942 114.935551 
L 95.280595 114.708964 
L 95.479837 114.482376 
L 95.682038 114.255789 
L 95.887568 114.029201 
L 96.096797 113.802614 
L 96.310095 113.576026 
L 96.527832 113.349439 
L 96.750377 113.122851 
L 96.978101 112.896264 
L 97.211374 112.669676 
L 97.450565 112.443089 
L 97.696044 112.216502 
L 97.948182 111.989914 
L 98.207348 111.763327 
L 98.473912 111.536739 
L 98.748243 111.310152 
L 99.030713 111.083564 
L 99.32169 110.856977 
L 99.621543 110.630391 
L 99.930406 110.404042 
L 100.247963 110.178619 
L 100.573842 109.954859 
L 100.907673 109.733504 
L 101.249088 109.515294 
L 101.597716 109.300967 
L 101.953187 109.091264 
L 102.315131 108.886924 
L 102.683179 108.688688 
L 103.05696 108.497295 
L 103.436105 108.313485 
L 103.820243 108.137998 
L 104.209005 107.971573 
L 104.602021 107.814951 
L 104.998921 107.668871 
L 105.399335 107.534073 
L 105.802893 107.411296 
L 106.209226 107.301282 
L 106.617962 107.204768 
L 107.028734 107.122496 
L 107.441169 107.055205 
L 107.8549 107.003634 
L 108.269555 106.968525 
L 108.684765 106.950615 
L 109.10016 106.950615 
L 109.51537 106.968525 
L 109.930025 107.003634 
L 110.343756 107.055205 
L 110.756192 107.122496 
L 111.166963 107.204768 
L 111.5757 107.301282 
L 111.982032 107.411296 
L 112.38559 107.534073 
L 112.786004 107.668871 
L 113.182904 107.814951 
L 113.57592 107.971573 
L 113.964682 108.137998 
L 114.348821 108.313485 
L 114.727965 108.497295 
L 115.101746 108.688688 
L 115.469794 108.886924 
L 115.831738 109.091264 
L 116.187209 109.300967 
L 116.535837 109.515294 
L 116.877252 109.733504 
L 117.211084 109.954859 
L 117.536963 110.178619 
L 117.854519 110.404042 
L 118.163382 110.630391 
L 118.463235 110.856977 
L 118.754212 111.083564 
L 119.036682 111.310152 
L 119.311014 111.536739 
L 119.577577 111.763327 
L 119.836743 111.989914 
L 120.088881 112.216502 
L 120.33436 112.443089 
L 120.573551 112.669676 
L 120.806824 112.896264 
L 121.034548 113.122851 
L 121.257094 113.349439 
L 121.47483 113.576026 
L 121.688128 113.802614 
L 121.897358 114.029201 
L 122.102888 114.255789 
L 122.305089 114.482376 
L 122.50433 114.708964 
L 122.700983 114.935551 
L 122.895416 115.162139 
L 123.087999 115.388726 
L 123.279103 115.615314 
L 123.469098 115.841901 
L 123.658352 116.068488 
L 123.847237 116.295076 
" clip-path="url(#p13f940d6c9)" style="fill: none; stroke: #000000; stroke-width: 2; stroke-linecap: round"></path>
   </g>
   <g id="line2d_21">
    <path d="M 123.847237 116.295076 
L 123.96053 116.295076 
L 124.073824 116.295076 
L 124.187118 116.295076 
L 124.300412 116.295076 
L 124.413705 116.295076 
L 124.526999 116.295076 
L 124.640293 116.295076 
L 124.753586 116.295076 
L 124.86688 116.295076 
L 124.980174 116.295076 
L 125.093468 116.295076 
L 125.206761 116.295076 
L 125.320055 116.295076 
L 125.433349 116.295076 
L 125.546643 116.295076 
L 125.659936 116.295076 
L 125.77323 116.295076 
L 125.886524 116.295076 
L 125.999818 116.295076 
L 126.113111 116.295076 
L 126.226405 116.295076 
L 126.339699 116.295076 
L 126.452993 116.295076 
L 126.566286 116.295076 
L 126.67958 116.295076 
L 126.792874 116.295076 
L 126.906167 116.295076 
L 127.019461 116.295076 
L 127.132755 116.295076 
L 127.246049 116.295076 
L 127.359342 116.295076 
L 127.472636 116.295076 
L 127.58593 116.295076 
L 127.699224 116.295076 
L 127.812517 116.295076 
L 127.925811 116.295076 
L 128.039105 116.295076 
L 128.152399 116.295076 
L 128.265692 116.295076 
L 128.378986 116.295076 
L 128.49228 116.295076 
L 128.605574 116.295076 
L 128.718867 116.295076 
L 128.832161 116.295076 
L 128.945455 116.295076 
L 129.058748 116.295076 
L 129.172042 116.295076 
L 129.285336 116.295076 
L 129.39863 116.295076 
L 129.511923 116.295076 
L 129.625217 116.295076 
L 129.738511 116.295076 
L 129.851805 116.295076 
L 129.965098 116.295076 
L 130.078392 116.295076 
L 130.191686 116.295076 
L 130.30498 116.295076 
L 130.418273 116.295076 
L 130.531567 116.295076 
L 130.644861 116.295076 
L 130.758155 116.295076 
L 130.871448 116.295076 
L 130.984742 116.295076 
L 131.098036 116.295076 
L 131.21133 116.295076 
L 131.324623 116.295076 
L 131.437917 116.295076 
L 131.551211 116.295076 
L 131.664504 116.295076 
L 131.777798 116.295076 
L 131.891092 116.295076 
L 132.004386 116.295076 
L 132.117679 116.295076 
L 132.230973 116.295076 
L 132.344267 116.295076 
L 132.457561 116.295076 
L 132.570854 116.295076 
L 132.684148 116.295076 
L 132.797442 116.295076 
L 132.910736 116.295076 
L 133.024029 116.295076 
L 133.137323 116.295076 
L 133.250617 116.295076 
L 133.363911 116.295076 
L 133.477204 116.295076 
L 133.590498 116.295076 
L 133.703792 116.295076 
L 133.817085 116.295076 
L 133.930379 116.295076 
L 134.043673 116.295076 
L 134.156967 116.295076 
L 134.27026 116.295076 
L 134.383554 116.295076 
L 134.496848 116.295076 
L 134.610142 116.295076 
L 134.723435 116.295076 
L 134.836729 116.295076 
L 134.950023 116.295076 
L 135.063317 116.295076 
" clip-path="url(#p13f940d6c9)" style="fill: none; stroke: #000000; stroke-width: 2; stroke-linecap: round"></path>
   </g>
   <g id="line2d_22">
    <path d="M 135.063317 116.295076 
L 135.289781 116.432669 
L 135.515505 116.570394 
L 135.73975 116.708383 
L 135.961775 116.846769 
L 136.180841 116.985683 
L 136.396209 117.125258 
L 136.607137 117.265625 
L 136.812887 117.406917 
L 137.012718 117.549266 
L 137.205891 117.692804 
L 137.391666 117.837662 
L 137.569303 117.983975 
L 137.738063 118.131872 
L 137.897205 118.281487 
L 138.04599 118.432951 
L 138.183678 118.586397 
L 138.309529 118.741956 
L 138.422804 118.899762 
L 138.522762 119.059945 
L 138.608664 119.222639 
L 138.679769 119.387974 
L 138.735339 119.556084 
L 138.774634 119.7271 
L 138.796912 119.901155 
L 138.80144 120.078378 
L 138.787946 120.25865 
L 138.757067 120.441366 
L 138.709543 120.625865 
L 138.646112 120.811488 
L 138.567516 120.997573 
L 138.474494 121.183459 
L 138.367785 121.368487 
L 138.24813 121.551996 
L 138.116268 121.733324 
L 137.972939 121.911813 
L 137.818883 122.086801 
L 137.654839 122.257627 
L 137.481548 122.423631 
L 137.29975 122.584153 
L 137.110183 122.738532 
L 136.913588 122.886107 
L 136.710705 123.026219 
L 136.502274 123.158205 
L 136.289034 123.281407 
L 136.071724 123.395163 
L 135.851086 123.498812 
L 135.627859 123.591695 
L 135.402782 123.673151 
L 135.176595 123.742518 
L 134.950038 123.799158 
L 134.723851 123.842883 
L 134.498774 123.873966 
L 134.275547 123.892697 
L 134.054909 123.899367 
L 133.837599 123.894265 
L 133.624359 123.877684 
L 133.415928 123.849913 
L 133.213045 123.811243 
L 133.01645 123.761965 
L 132.826884 123.702369 
L 132.645085 123.632747 
L 132.471794 123.553388 
L 132.307751 123.464583 
L 132.153695 123.366624 
L 132.010366 123.2598 
L 131.878504 123.144402 
L 131.758848 123.020721 
L 131.65214 122.889047 
L 131.559117 122.749672 
L 131.480521 122.602885 
L 131.417091 122.448978 
L 131.369566 122.288241 
L 131.338687 122.120965 
L 131.325193 121.94744 
L 131.329721 121.767953 
L 131.352 121.582759 
L 131.391294 121.392095 
L 131.446864 121.1962 
L 131.51797 120.995312 
L 131.603871 120.789668 
L 131.703829 120.579505 
L 131.817104 120.365063 
L 131.942955 120.146577 
L 132.080643 119.924288 
L 132.229428 119.698431 
L 132.38857 119.469245 
L 132.55733 119.236968 
L 132.734967 119.001837 
L 132.920742 118.764091 
L 133.113915 118.523966 
L 133.313746 118.281702 
L 133.519496 118.037535 
L 133.730425 117.791704 
L 133.945792 117.544445 
L 134.164858 117.295998 
L 134.386883 117.0466 
L 134.611128 116.796488 
L 134.836852 116.545901 
L 135.063317 116.295076 
" clip-path="url(#p13f940d6c9)" style="fill: none; stroke: #000000; stroke-width: 2; stroke-linecap: round"></path>
   </g>
   <g id="line2d_23">
    <path d="M 167.21608 105.078996 
" clip-path="url(#p13f940d6c9)" style="fill: none; stroke: #000000; stroke-width: 2; stroke-linecap: round"></path>
   </g>
   <g id="line2d_24">
    <path d="M 167.21608 105.078996 
L 167.348264 105.333895 
L 167.480494 105.588725 
L 167.612817 105.843417 
L 167.745278 106.0979 
L 167.877924 106.352106 
L 168.010801 106.605965 
L 168.143956 106.859407 
L 168.277434 107.112365 
L 168.411283 107.364767 
L 168.545547 107.616546 
L 168.680274 107.86763 
L 168.815509 108.117952 
L 168.951299 108.367442 
L 169.087691 108.61603 
L 169.22473 108.863647 
L 169.362462 109.110223 
L 169.500934 109.35569 
L 169.640192 109.599978 
L 169.780282 109.843017 
L 169.921251 110.084739 
L 170.063145 110.325073 
L 170.206009 110.563951 
L 170.349891 110.801303 
L 170.494837 111.03706 
L 170.640892 111.271153 
L 170.788103 111.503511 
L 170.936516 111.734067 
L 171.086177 111.962749 
L 171.237134 112.18949 
L 171.389431 112.414219 
L 171.543115 112.636868 
L 171.698232 112.857366 
L 171.85483 113.075645 
L 172.012953 113.291636 
L 172.172648 113.505268 
L 172.333961 113.716473 
L 172.496939 113.925181 
L 172.661628 114.131323 
L 172.828074 114.334829 
L 172.996323 114.53563 
L 173.166422 114.733657 
L 173.338416 114.928841 
L 173.512352 115.121111 
L 173.688277 115.310399 
L 173.866236 115.496636 
L 174.046275 115.679751 
L 174.228442 115.859676 
L 174.412782 116.036342 
L 174.599341 116.209678 
L 174.788164 116.379619 
L 174.979251 116.546164 
L 175.172557 116.70938 
L 175.368036 116.869336 
L 175.565642 117.026101 
L 175.765329 117.179746 
L 175.96705 117.330339 
L 176.17076 117.47795 
L 176.376411 117.622648 
L 176.583958 117.764502 
L 176.793355 117.903582 
L 177.004555 118.039957 
L 177.217512 118.173696 
L 177.43218 118.30487 
L 177.648512 118.433546 
L 177.866463 118.559795 
L 178.085986 118.683686 
L 178.307034 118.805288 
L 178.529563 118.924671 
L 178.753524 119.041903 
L 178.978873 119.157055 
L 179.205562 119.270196 
L 179.433547 119.381394 
L 179.662779 119.49072 
L 179.893214 119.598243 
L 180.124805 119.704032 
L 180.357505 119.808156 
L 180.591269 119.910685 
L 180.826051 120.011688 
L 181.061803 120.111235 
L 181.29848 120.209395 
L 181.536035 120.306237 
L 181.774423 120.40183 
L 182.013597 120.496244 
L 182.25351 120.589549 
L 182.494117 120.681813 
L 182.735372 120.773107 
L 182.977227 120.863498 
L 183.219638 120.953058 
L 183.462557 121.041854 
L 183.705938 121.129957 
L 183.949736 121.217436 
L 184.193903 121.30436 
L 184.438394 121.390798 
L 184.683163 121.47682 
L 184.928162 121.562496 
L 185.173347 121.647894 
L 185.41867 121.733084 
L 185.664086 121.818135 
L 185.909548 121.903117 
" clip-path="url(#p13f940d6c9)" style="fill: none; stroke: #000000; stroke-width: 2; stroke-linecap: round"></path>
   </g>
   <g id="line2d_25">
    <path d="M 185.909548 121.903117 
L 185.890666 121.997528 
L 185.871784 122.09194 
L 185.852902 122.186351 
L 185.834019 122.280763 
L 185.815137 122.375174 
L 185.796255 122.469586 
L 185.777372 122.563997 
L 185.75849 122.658409 
L 185.739608 122.75282 
L 185.720725 122.847231 
L 185.701843 122.941643 
L 185.682961 123.036054 
L 185.664079 123.130466 
L 185.645196 123.224877 
L 185.626314 123.319289 
L 185.607432 123.4137 
L 185.588549 123.508112 
L 185.569667 123.602523 
L 185.550785 123.696934 
L 185.531903 123.791346 
L 185.51302 123.885757 
L 185.494138 123.980169 
L 185.475256 124.07458 
L 185.456373 124.168992 
L 185.437491 124.263403 
L 185.418609 124.357815 
L 185.399726 124.452226 
L 185.380844 124.546637 
L 185.361962 124.641049 
L 185.34308 124.73546 
L 185.324197 124.829872 
L 185.305315 124.924283 
L 185.286433 125.018695 
L 185.26755 125.113106 
L 185.248668 125.207518 
L 185.229786 125.301929 
L 185.210904 125.39634 
L 185.192021 125.490752 
L 185.173139 125.585163 
L 185.154257 125.679575 
L 185.135374 125.773986 
L 185.116492 125.868398 
L 185.09761 125.962809 
L 185.078728 126.057221 
L 185.059845 126.151632 
L 185.040963 126.246043 
L 185.022081 126.340455 
L 185.003198 126.434866 
L 184.984316 126.529278 
L 184.965434 126.623689 
L 184.946551 126.718101 
L 184.927669 126.812512 
L 184.908787 126.906924 
L 184.889905 127.001335 
L 184.871022 127.095746 
L 184.85214 127.190158 
L 184.833258 127.284569 
L 184.814375 127.378981 
L 184.795493 127.473392 
L 184.776611 127.567804 
L 184.757729 127.662215 
L 184.738846 127.756626 
L 184.719964 127.851038 
L 184.701082 127.945449 
L 184.682199 128.039861 
L 184.663317 128.134272 
L 184.644435 128.228684 
L 184.625552 128.323095 
L 184.60667 128.417507 
L 184.587788 128.511918 
L 184.568906 128.606329 
L 184.550023 128.700741 
L 184.531141 128.795152 
L 184.512259 128.889564 
L 184.493376 128.983975 
L 184.474494 129.078387 
L 184.455612 129.172798 
L 184.43673 129.26721 
L 184.417847 129.361621 
L 184.398965 129.456032 
L 184.380083 129.550444 
L 184.3612 129.644855 
L 184.342318 129.739267 
L 184.323436 129.833678 
L 184.304553 129.92809 
L 184.285671 130.022501 
L 184.266789 130.116913 
L 184.247907 130.211324 
L 184.229024 130.305735 
L 184.210142 130.400147 
L 184.19126 130.494558 
L 184.172377 130.58897 
L 184.153495 130.683381 
L 184.134613 130.777793 
L 184.115731 130.872204 
L 184.096848 130.966616 
L 184.077966 131.061027 
L 184.059084 131.155438 
L 184.040201 131.24985 
" clip-path="url(#p13f940d6c9)" style="fill: none; stroke: #000000; stroke-width: 2; stroke-linecap: round"></path>
   </g>
   <g id="line2d_26">
    <path d="M 214.323619 116.295076 
L 214.399148 116.200664 
L 214.474677 116.106253 
L 214.550206 116.011842 
L 214.625735 115.91743 
L 214.701265 115.823019 
L 214.776794 115.728607 
L 214.852323 115.634196 
L 214.927852 115.539784 
L 215.003381 115.445373 
L 215.07891 115.350961 
L 215.15444 115.25655 
L 215.229969 115.162138 
L 215.305498 115.067727 
L 215.381027 114.973316 
L 215.456556 114.878904 
L 215.532085 114.784493 
L 215.607614 114.690081 
L 215.683144 114.59567 
L 215.758673 114.501258 
L 215.834202 114.406847 
L 215.909731 114.312435 
L 215.98526 114.218024 
L 216.060789 114.123612 
L 216.136319 114.029201 
L 216.211848 113.93479 
L 216.287377 113.840378 
L 216.362906 113.745967 
L 216.438435 113.651555 
L 216.513964 113.557144 
L 216.589494 113.462732 
L 216.665023 113.368321 
L 216.740552 113.273909 
L 216.816081 113.179498 
L 216.89161 113.085086 
L 216.967139 112.990675 
L 217.042669 112.896264 
L 217.118198 112.801852 
L 217.193727 112.707441 
L 217.269256 112.613029 
L 217.344785 112.518618 
L 217.420314 112.424206 
L 217.495844 112.329795 
L 217.571373 112.235383 
L 217.646902 112.140972 
L 217.722431 112.04656 
L 217.79796 111.952149 
L 217.873489 111.857738 
L 217.949018 111.763326 
L 218.024548 111.668915 
L 218.100077 111.574503 
L 218.175606 111.480092 
L 218.251135 111.38568 
L 218.326664 111.291269 
L 218.402193 111.196857 
L 218.477723 111.102446 
L 218.553252 111.008034 
L 218.628781 110.913623 
L 218.70431 110.819212 
L 218.779839 110.7248 
L 218.855368 110.630389 
L 218.930898 110.535977 
L 219.006427 110.441566 
L 219.081956 110.347154 
L 219.157485 110.252743 
L 219.233014 110.158331 
L 219.308543 110.06392 
L 219.384073 109.969508 
L 219.459602 109.875097 
L 219.535131 109.780686 
L 219.61066 109.686274 
L 219.686189 109.591863 
L 219.761718 109.497451 
L 219.837248 109.40304 
L 219.912777 109.308628 
L 219.988306 109.214217 
L 220.063835 109.119805 
L 220.139364 109.025394 
L 220.214893 108.930982 
L 220.290423 108.836571 
L 220.365952 108.74216 
L 220.441481 108.647748 
L 220.51701 108.553337 
L 220.592539 108.458925 
L 220.668068 108.364514 
L 220.743597 108.270102 
L 220.819127 108.175691 
L 220.894656 108.081279 
L 220.970185 107.986868 
L 221.045714 107.892456 
L 221.121243 107.798045 
L 221.196772 107.703634 
L 221.272302 107.609222 
L 221.347831 107.514811 
L 221.42336 107.420399 
L 221.498889 107.325988 
L 221.574418 107.231576 
L 221.649947 107.137165 
L 221.725477 107.042753 
L 221.801006 106.948342 
" clip-path="url(#p13f940d6c9)" style="fill: none; stroke: #000000; stroke-width: 2; stroke-linecap: round"></path>
   </g>
   <g id="line2d_27">
    <path d="M 221.801006 103.209649 
" clip-path="url(#p13f940d6c9)" style="fill: none; stroke: #000000; stroke-width: 2; stroke-linecap: round"></path>
   </g>
   <g id="line2d_28">
    <path d="M 221.801006 106.948342 
" clip-path="url(#p13f940d6c9)" style="fill: none; stroke: #000000; stroke-width: 2; stroke-linecap: round"></path>
   </g>
   <g id="line2d_29">
    <path d="M 221.801006 106.948342 
L 221.914299 106.81241 
L 222.027593 106.676603 
L 222.140887 106.541046 
L 222.254181 106.405864 
L 222.367474 106.27118 
L 222.480768 106.137121 
L 222.594062 106.003811 
L 222.707356 105.871375 
L 222.820649 105.739938 
L 222.933943 105.609624 
L 223.047237 105.480559 
L 223.160531 105.352866 
L 223.273824 105.226672 
L 223.387118 105.102101 
L 223.500412 104.979278 
L 223.613706 104.858327 
L 223.726999 104.739374 
L 223.840293 104.622543 
L 223.953587 104.507959 
L 224.066881 104.395748 
L 224.180174 104.286033 
L 224.293468 104.178939 
L 224.406762 104.074593 
L 224.520056 103.973117 
L 224.633349 103.874638 
L 224.746643 103.77928 
L 224.859937 103.687168 
L 224.973231 103.598426 
L 225.086524 103.51318 
L 225.199818 103.431554 
L 225.313112 103.353674 
L 225.426405 103.279664 
L 225.539699 103.209648 
L 225.652993 103.143732 
L 225.766287 103.081936 
L 225.87958 103.024259 
L 225.992874 102.970702 
L 226.106168 102.921264 
L 226.219462 102.875947 
L 226.332755 102.834749 
L 226.446049 102.797671 
L 226.559343 102.764713 
L 226.672637 102.735875 
L 226.78593 102.711156 
L 226.899224 102.690557 
L 227.012518 102.674078 
L 227.125812 102.661719 
L 227.239105 102.653479 
L 227.352399 102.649359 
L 227.465693 102.649359 
L 227.578987 102.653479 
L 227.69228 102.661719 
L 227.805574 102.674078 
L 227.918868 102.690557 
L 228.032162 102.711156 
L 228.145455 102.735875 
L 228.258749 102.764713 
L 228.372043 102.797671 
L 228.485337 102.834749 
L 228.59863 102.875947 
L 228.711924 102.921264 
L 228.825218 102.970702 
L 228.938512 103.024259 
L 229.051805 103.081936 
L 229.165099 103.143732 
L 229.278393 103.209648 
L 229.391686 103.279664 
L 229.50498 103.353674 
L 229.618274 103.431554 
L 229.731568 103.51318 
L 229.844861 103.598426 
L 229.958155 103.687168 
L 230.071449 103.77928 
L 230.184743 103.874638 
L 230.298036 103.973117 
L 230.41133 104.074593 
L 230.524624 104.178939 
L 230.637917 104.286033 
L 230.751211 104.395748 
L 230.864505 104.507959 
L 230.977799 104.622543 
L 231.091092 104.739374 
L 231.204386 104.858327 
L 231.31768 104.979278 
L 231.430974 105.102101 
L 231.544267 105.226672 
L 231.657561 105.352866 
L 231.770855 105.480559 
L 231.884148 105.609624 
L 231.997442 105.739938 
L 232.110736 105.871375 
L 232.22403 106.003811 
L 232.337323 106.137121 
L 232.450617 106.27118 
L 232.563911 106.405864 
L 232.677205 106.541046 
L 232.790498 106.676603 
L 232.903792 106.81241 
L 233.017086 106.948342 
" clip-path="url(#p13f940d6c9)" style="fill: none; stroke: #000000; stroke-width: 2; stroke-linecap: round"></path>
   </g>
   <g id="line2d_30">
    <path d="M 261.431156 116.295076 
L 261.54445 116.295076 
L 261.657744 116.295076 
L 261.771037 116.295076 
L 261.884331 116.295076 
L 261.997625 116.295076 
L 262.110918 116.295076 
L 262.224212 116.295076 
L 262.337506 116.295076 
L 262.4508 116.295076 
L 262.564093 116.295076 
L 262.677387 116.295076 
L 262.790681 116.295076 
L 262.903975 116.295076 
L 263.017268 116.295076 
L 263.130562 116.295076 
L 263.243856 116.295076 
L 263.35715 116.295076 
L 263.470443 116.295076 
L 263.583737 116.295076 
L 263.697031 116.295076 
L 263.810325 116.295076 
L 263.923618 116.295076 
L 264.036912 116.295076 
L 264.150206 116.295076 
L 264.263499 116.295076 
L 264.376793 116.295076 
L 264.490087 116.295076 
L 264.603381 116.295076 
L 264.716674 116.295076 
L 264.829968 116.295076 
L 264.943262 116.295076 
L 265.056556 116.295076 
L 265.169849 116.295076 
L 265.283143 116.295076 
L 265.396437 116.295076 
L 265.509731 116.295076 
L 265.623024 116.295076 
L 265.736318 116.295076 
L 265.849612 116.295076 
L 265.962906 116.295076 
L 266.076199 116.295076 
L 266.189493 116.295076 
L 266.302787 116.295076 
L 266.41608 116.295076 
L 266.529374 116.295076 
L 266.642668 116.295076 
L 266.755962 116.295076 
L 266.869255 116.295076 
L 266.982549 116.295076 
L 267.095843 116.295076 
L 267.209137 116.295076 
L 267.32243 116.295076 
L 267.435724 116.295076 
L 267.549018 116.295076 
L 267.662312 116.295076 
L 267.775605 116.295076 
L 267.888899 116.295076 
L 268.002193 116.295076 
L 268.115487 116.295076 
L 268.22878 116.295076 
L 268.342074 116.295076 
L 268.455368 116.295076 
L 268.568661 116.295076 
L 268.681955 116.295076 
L 268.795249 116.295076 
L 268.908543 116.295076 
L 269.021836 116.295076 
L 269.13513 116.295076 
L 269.248424 116.295076 
L 269.361718 116.295076 
L 269.475011 116.295076 
L 269.588305 116.295076 
L 269.701599 116.295076 
L 269.814893 116.295076 
L 269.928186 116.295076 
L 270.04148 116.295076 
L 270.154774 116.295076 
L 270.268068 116.295076 
L 270.381361 116.295076 
L 270.494655 116.295076 
L 270.607949 116.295076 
L 270.721242 116.295076 
L 270.834536 116.295076 
L 270.94783 116.295076 
L 271.061124 116.295076 
L 271.174417 116.295076 
L 271.287711 116.295076 
L 271.401005 116.295076 
L 271.514299 116.295076 
L 271.627592 116.295076 
L 271.740886 116.295076 
L 271.85418 116.295076 
L 271.967474 116.295076 
L 272.080767 116.295076 
L 272.194061 116.295076 
L 272.307355 116.295076 
L 272.420649 116.295076 
L 272.533942 116.295076 
L 272.647236 116.295076 
" clip-path="url(#p13f940d6c9)" style="fill: none; stroke: #000000; stroke-width: 2; stroke-linecap: round"></path>
   </g>
   <g id="line2d_31">
    <path d="M 310.40804 86.385528 
L 310.180106 86.574413 
L 309.952185 86.763667 
L 309.724291 86.953661 
L 309.496436 87.144765 
L 309.268634 87.337349 
L 309.040899 87.531782 
L 308.813242 87.728434 
L 308.585678 87.927676 
L 308.358219 88.129877 
L 308.13088 88.335407 
L 307.903672 88.544636 
L 307.67661 88.757934 
L 307.449707 88.975671 
L 307.222975 89.198217 
L 306.996428 89.425941 
L 306.770079 89.659213 
L 306.543942 89.898404 
L 306.318029 90.143884 
L 306.092354 90.396021 
L 305.86693 90.655187 
L 305.64177 90.921751 
L 305.416888 91.196083 
L 305.192296 91.478552 
L 304.968008 91.769529 
L 304.744039 92.069382 
L 304.520612 92.378246 
L 304.298354 92.695802 
L 304.077939 93.021681 
L 303.86004 93.355513 
L 303.645332 93.696927 
L 303.434488 94.045555 
L 303.228182 94.401026 
L 303.027088 94.762971 
L 302.831879 95.131018 
L 302.643229 95.504799 
L 302.461812 95.883944 
L 302.288301 96.268082 
L 302.123371 96.656845 
L 301.967695 97.049861 
L 301.821947 97.44676 
L 301.686801 97.847174 
L 301.56293 98.250733 
L 301.451008 98.657065 
L 301.351709 99.065802 
L 301.265707 99.476573 
L 301.193675 99.889009 
L 301.136287 100.302739 
L 301.094217 100.717394 
L 301.068138 101.132604 
L 301.058701 101.547999 
L 301.065997 101.96321 
L 301.089563 102.377865 
L 301.128908 102.791595 
L 301.183545 103.204031 
L 301.252985 103.614802 
L 301.336738 104.023539 
L 301.434317 104.429871 
L 301.545232 104.833429 
L 301.668994 105.233843 
L 301.805115 105.630743 
L 301.953106 106.023759 
L 302.112478 106.412522 
L 302.282742 106.79666 
L 302.46341 107.175805 
L 302.653992 107.549586 
L 302.854 107.917633 
L 303.062945 108.279578 
L 303.280339 108.635049 
L 303.505692 108.983676 
L 303.738515 109.325091 
L 303.978321 109.658923 
L 304.224619 109.984802 
L 304.476922 110.302358 
L 304.734741 110.611222 
L 304.997606 110.911075 
L 305.265228 111.202052 
L 305.537408 111.484521 
L 305.813948 111.758853 
L 306.094648 112.025417 
L 306.379312 112.284583 
L 306.667741 112.53672 
L 306.959737 112.7822 
L 307.255102 113.021391 
L 307.553637 113.254663 
L 307.855145 113.482387 
L 308.159427 113.704933 
L 308.466285 113.92267 
L 308.775521 114.135968 
L 309.086937 114.345197 
L 309.400334 114.550727 
L 309.715515 114.752928 
L 310.032281 114.95217 
L 310.350434 115.148822 
L 310.669776 115.343255 
L 310.990109 115.535839 
L 311.311235 115.726943 
L 311.632955 115.916937 
L 311.955072 116.106191 
L 312.277386 116.295076 
" clip-path="url(#p13f940d6c9)" style="fill: none; stroke: #000000; stroke-width: 2; stroke-linecap: round"></path>
   </g>
   <g id="line2d_32">
    <path d="M 312.277386 116.295076 
L 312.503851 116.044251 
L 312.729575 115.793664 
L 312.95382 115.543552 
L 313.175845 115.294154 
L 313.394911 115.045706 
L 313.610279 114.798448 
L 313.821207 114.552617 
L 314.026957 114.30845 
L 314.226788 114.066186 
L 314.419961 113.826061 
L 314.605736 113.588315 
L 314.783374 113.353184 
L 314.952133 113.120907 
L 315.111275 112.891721 
L 315.26006 112.665864 
L 315.397748 112.443574 
L 315.523599 112.225089 
L 315.636874 112.010647 
L 315.736832 111.800484 
L 315.822734 111.59484 
L 315.89384 111.393951 
L 315.94941 111.198057 
L 315.988704 111.007393 
L 316.010983 110.822199 
L 316.01551 110.642712 
L 316.002016 110.469187 
L 315.971137 110.301911 
L 315.923613 110.141174 
L 315.860182 109.987266 
L 315.781586 109.84048 
L 315.688564 109.701105 
L 315.581855 109.569431 
L 315.4622 109.44575 
L 315.330338 109.330352 
L 315.187009 109.223528 
L 315.032953 109.125569 
L 314.868909 109.036764 
L 314.695618 108.957405 
L 314.51382 108.887782 
L 314.324253 108.828187 
L 314.127658 108.778909 
L 313.924775 108.740239 
L 313.716344 108.712468 
L 313.503103 108.695887 
L 313.285794 108.690785 
L 313.065156 108.697455 
L 312.841928 108.716186 
L 312.616851 108.747269 
L 312.390665 108.790994 
L 312.164108 108.847633 
L 311.937921 108.917001 
L 311.712844 108.998457 
L 311.489617 109.09134 
L 311.268978 109.194989 
L 311.051669 109.308745 
L 310.838429 109.431947 
L 310.629998 109.563933 
L 310.427115 109.704045 
L 310.23052 109.85162 
L 310.040953 110.005999 
L 309.859155 110.166521 
L 309.685864 110.332525 
L 309.521821 110.503351 
L 309.367765 110.678339 
L 309.224436 110.856828 
L 309.092574 111.038156 
L 308.972918 111.221665 
L 308.86621 111.406693 
L 308.773187 111.592579 
L 308.694591 111.778664 
L 308.631161 111.964286 
L 308.583636 112.148786 
L 308.552757 112.331502 
L 308.539264 112.511774 
L 308.543791 112.688997 
L 308.56607 112.863052 
L 308.605364 113.034068 
L 308.660934 113.202178 
L 308.73204 113.367513 
L 308.817942 113.530207 
L 308.9179 113.69039 
L 309.031174 113.848195 
L 309.157025 114.003755 
L 309.294713 114.157201 
L 309.443498 114.308665 
L 309.60264 114.45828 
L 309.7714 114.606177 
L 309.949037 114.752489 
L 310.134812 114.897348 
L 310.327985 115.040886 
L 310.527816 115.183235 
L 310.733566 115.324527 
L 310.944494 115.464894 
L 311.159862 115.604469 
L 311.378928 115.743383 
L 311.600953 115.881769 
L 311.825198 116.019758 
L 312.050922 116.157483 
L 312.277386 116.295076 
" clip-path="url(#p13f940d6c9)" style="fill: none; stroke: #000000; stroke-width: 2; stroke-linecap: round"></path>
   </g>
   <g id="line2d_33">
    <path d="M 312.277386 116.295076 
L 312.522848 116.285623 
L 312.768264 116.276101 
L 313.013587 116.26644 
L 313.258772 116.256572 
L 313.503772 116.246425 
L 313.74854 116.235932 
L 313.993031 116.225023 
L 314.237199 116.213628 
L 314.480996 116.201679 
L 314.724378 116.189105 
L 314.967297 116.175838 
L 315.209707 116.161808 
L 315.451562 116.146945 
L 315.692817 116.131181 
L 315.933424 116.114446 
L 316.173338 116.09667 
L 316.412511 116.077785 
L 316.650899 116.057721 
L 316.888454 116.036408 
L 317.125131 116.013778 
L 317.360883 115.98976 
L 317.595665 115.964286 
L 317.829429 115.937286 
L 318.062129 115.908691 
L 318.29372 115.878432 
L 318.524155 115.846438 
L 318.753387 115.812641 
L 318.981371 115.776972 
L 319.208061 115.73936 
L 319.43341 115.699738 
L 319.657371 115.658034 
L 319.8799 115.614181 
L 320.100948 115.568108 
L 320.320471 115.519746 
L 320.538422 115.469026 
L 320.754754 115.415879 
L 320.969422 115.360235 
L 321.182379 115.302025 
L 321.393579 115.241179 
L 321.602975 115.177628 
L 321.810523 115.111303 
L 322.016174 115.042135 
L 322.219884 114.970053 
L 322.421605 114.894989 
L 322.621292 114.816874 
L 322.818898 114.735637 
L 323.014377 114.65121 
L 323.207683 114.563523 
L 323.39877 114.472507 
L 323.587593 114.378096 
L 323.774152 114.280289 
L 323.958492 114.179153 
L 324.140658 114.074757 
L 324.320698 113.96717 
L 324.498657 113.856463 
L 324.674581 113.742704 
L 324.848518 113.625963 
L 325.020512 113.506308 
L 325.190611 113.383811 
L 325.35886 113.258538 
L 325.525306 113.130561 
L 325.689994 112.999949 
L 325.852972 112.86677 
L 326.014286 112.731094 
L 326.173981 112.592991 
L 326.332104 112.45253 
L 326.488701 112.30978 
L 326.643819 112.16481 
L 326.797503 112.017691 
L 326.9498 111.868491 
L 327.100757 111.717279 
L 327.250418 111.564126 
L 327.398831 111.4091 
L 327.546042 111.25227 
L 327.692097 111.093707 
L 327.837043 110.933479 
L 327.980925 110.771656 
L 328.123789 110.608307 
L 328.265683 110.443502 
L 328.406652 110.27731 
L 328.546742 110.109799 
L 328.686 109.941041 
L 328.824472 109.771103 
L 328.962205 109.600055 
L 329.099243 109.427968 
L 329.235635 109.254909 
L 329.371425 109.080948 
L 329.506661 108.906156 
L 329.641387 108.7306 
L 329.775652 108.554351 
L 329.9095 108.377478 
L 330.042979 108.200049 
L 330.176133 108.022136 
L 330.309011 107.843806 
L 330.441657 107.665129 
L 330.574118 107.486175 
L 330.706441 107.307013 
L 330.838671 107.127712 
L 330.970854 106.948342 
" clip-path="url(#p13f940d6c9)" style="fill: none; stroke: #000000; stroke-width: 2; stroke-linecap: round"></path>
   </g>
   <g id="line2d_34">
    <path d="M 330.970854 106.948342 
L 331.084148 107.084274 
L 331.197442 107.22008 
L 331.310736 107.355638 
L 331.424029 107.49082 
L 331.537323 107.625504 
L 331.650617 107.759563 
L 331.76391 107.892873 
L 331.877204 108.025309 
L 331.990498 108.156746 
L 332.103792 108.28706 
L 332.217085 108.416125 
L 332.330379 108.543817 
L 332.443673 108.670011 
L 332.556967 108.794583 
L 332.67026 108.917406 
L 332.783554 109.038357 
L 332.896848 109.15731 
L 333.010142 109.274141 
L 333.123435 109.388725 
L 333.236729 109.500936 
L 333.350023 109.610651 
L 333.463317 109.717745 
L 333.57661 109.822091 
L 333.689904 109.923567 
L 333.803198 110.022046 
L 333.916492 110.117404 
L 334.029785 110.209516 
L 334.143079 110.298258 
L 334.256373 110.383504 
L 334.369667 110.46513 
L 334.48296 110.54301 
L 334.596254 110.61702 
L 334.709548 110.687035 
L 334.822842 110.752952 
L 334.936135 110.814748 
L 335.049429 110.872425 
L 335.162723 110.925982 
L 335.276017 110.97542 
L 335.38931 111.020737 
L 335.502604 111.061935 
L 335.615898 111.099013 
L 335.729191 111.131971 
L 335.842485 111.160809 
L 335.955779 111.185528 
L 336.069073 111.206127 
L 336.182366 111.222606 
L 336.29566 111.234965 
L 336.408954 111.243205 
L 336.522248 111.247324 
L 336.635541 111.247324 
L 336.748835 111.243205 
L 336.862129 111.234965 
L 336.975423 111.222606 
L 337.088716 111.206127 
L 337.20201 111.185528 
L 337.315304 111.160809 
L 337.428598 111.131971 
L 337.541891 111.099013 
L 337.655185 111.061935 
L 337.768479 111.020737 
L 337.881773 110.97542 
L 337.995066 110.925982 
L 338.10836 110.872425 
L 338.221654 110.814748 
L 338.334948 110.752952 
L 338.448241 110.687035 
L 338.561535 110.61702 
L 338.674829 110.54301 
L 338.788122 110.46513 
L 338.901416 110.383504 
L 339.01471 110.298258 
L 339.128004 110.209516 
L 339.241297 110.117404 
L 339.354591 110.022046 
L 339.467885 109.923567 
L 339.581179 109.822091 
L 339.694472 109.717745 
L 339.807766 109.610651 
L 339.92106 109.500936 
L 340.034353 109.388725 
L 340.147647 109.274141 
L 340.260941 109.15731 
L 340.374235 109.038357 
L 340.487528 108.917406 
L 340.600822 108.794583 
L 340.714116 108.670011 
L 340.82741 108.543817 
L 340.940703 108.416125 
L 341.053997 108.28706 
L 341.167291 108.156746 
L 341.280584 108.025309 
L 341.393878 107.892873 
L 341.507172 107.759563 
L 341.620466 107.625504 
L 341.733759 107.49082 
L 341.847053 107.355638 
L 341.960347 107.22008 
L 342.073641 107.084274 
L 342.186934 106.948342 
" clip-path="url(#p13f940d6c9)" style="fill: none; stroke: #000000; stroke-width: 2; stroke-linecap: round"></path>
   </g>
   <g id="line2d_35">
    <path d="M 378.078392 125.64181 
L 377.899481 125.802006 
L 377.720419 125.961192 
L 377.541053 126.118359 
L 377.36123 126.272499 
L 377.180799 126.422601 
L 376.999607 126.567656 
L 376.817503 126.706655 
L 376.634334 126.838588 
L 376.449948 126.962446 
L 376.264193 127.07722 
L 376.076918 127.1819 
L 375.887969 127.275477 
L 375.697195 127.356942 
L 375.504444 127.425284 
L 375.309564 127.479496 
L 375.112402 127.518566 
L 374.912807 127.541487 
L 374.710625 127.547249 
L 374.505707 127.534841 
L 374.297899 127.503258 
L 374.08731 127.451979 
L 373.874622 127.381569 
L 373.660596 127.292739 
L 373.445991 127.186203 
L 373.231569 127.062672 
L 373.01809 126.922858 
L 372.806315 126.767473 
L 372.597003 126.59723 
L 372.390916 126.412841 
L 372.188814 126.215017 
L 371.991458 126.004471 
L 371.799607 125.781915 
L 371.614023 125.548061 
L 371.435466 125.30362 
L 371.264696 125.049306 
L 371.102474 124.78583 
L 370.94956 124.513904 
L 370.806715 124.234241 
L 370.674699 123.947552 
L 370.554266 123.654554 
L 370.445851 123.356101 
L 370.349482 123.053234 
L 370.265159 122.747003 
L 370.192882 122.438458 
L 370.132652 122.128651 
L 370.084467 121.818632 
L 370.048329 121.509453 
L 370.024236 121.202164 
L 370.01219 120.897816 
L 370.01219 120.597459 
L 370.024236 120.302146 
L 370.048329 120.012926 
L 370.084467 119.73085 
L 370.132652 119.45697 
L 370.192882 119.192336 
L 370.265159 118.937999 
L 370.349482 118.695009 
L 370.445851 118.464419 
L 370.554266 118.247278 
L 370.674699 118.044578 
L 370.806715 117.856434 
L 370.94956 117.682281 
L 371.102474 117.521539 
L 371.264696 117.373627 
L 371.435466 117.237965 
L 371.614023 117.113971 
L 371.799607 117.001065 
L 371.991458 116.898666 
L 372.188814 116.806194 
L 372.390916 116.723067 
L 372.597003 116.648706 
L 372.806315 116.582528 
L 373.01809 116.523954 
L 373.231569 116.472403 
L 373.445991 116.427294 
L 373.660596 116.388046 
L 373.874622 116.354078 
L 374.08731 116.324811 
L 374.297899 116.299662 
L 374.505707 116.278087 
L 374.710625 116.259796 
L 374.912807 116.244616 
L 375.112402 116.232375 
L 375.309564 116.222899 
L 375.504444 116.216015 
L 375.697195 116.211551 
L 375.887969 116.209334 
L 376.076918 116.209192 
L 376.264193 116.21095 
L 376.449948 116.214437 
L 376.634334 116.219479 
L 376.817503 116.225904 
L 376.999607 116.233539 
L 377.180799 116.242211 
L 377.36123 116.251747 
L 377.541053 116.261974 
L 377.720419 116.27272 
L 377.899481 116.283812 
L 378.078392 116.295076 
" clip-path="url(#p13f940d6c9)" style="fill: none; stroke: #000000; stroke-width: 2; stroke-linecap: round"></path>
   </g>
   <g id="line2d_36">
    <path d="M 378.078392 116.295076 
L 378.333291 116.304529 
L 378.588121 116.314051 
L 378.842812 116.323711 
L 379.097295 116.33358 
L 379.351501 116.343727 
L 379.60536 116.35422 
L 379.858803 116.365129 
L 380.11176 116.376524 
L 380.364163 116.388473 
L 380.615941 116.401047 
L 380.867026 116.414314 
L 381.117348 116.428344 
L 381.366837 116.443207 
L 381.615425 116.458971 
L 381.863042 116.475706 
L 382.109619 116.493482 
L 382.355086 116.512367 
L 382.599373 116.532431 
L 382.842413 116.553744 
L 383.084134 116.576374 
L 383.324469 116.600392 
L 383.563347 116.625866 
L 383.800699 116.652866 
L 384.036456 116.681461 
L 384.270548 116.71172 
L 384.502907 116.743714 
L 384.733462 116.777511 
L 384.962145 116.81318 
L 385.188885 116.850791 
L 385.413615 116.890414 
L 385.636263 116.932118 
L 385.856762 116.975971 
L 386.075041 117.022044 
L 386.291031 117.070406 
L 386.504664 117.121126 
L 386.715869 117.174273 
L 386.924576 117.229917 
L 387.130718 117.288127 
L 387.334225 117.348973 
L 387.535026 117.412524 
L 387.733053 117.478849 
L 387.928236 117.548017 
L 388.120507 117.620099 
L 388.309795 117.695163 
L 388.496032 117.773278 
L 388.679147 117.854515 
L 388.859072 117.938942 
L 389.035737 118.026629 
L 389.209074 118.117645 
L 389.379014 118.212056 
L 389.545559 118.309863 
L 389.708775 118.410999 
L 389.868731 118.515395 
L 390.025497 118.622981 
L 390.179142 118.733689 
L 390.329735 118.847448 
L 390.477346 118.964189 
L 390.622043 119.083843 
L 390.763898 119.206341 
L 390.902977 119.331614 
L 391.039352 119.459591 
L 391.173092 119.590203 
L 391.304265 119.723382 
L 391.432942 119.859058 
L 391.559191 119.997161 
L 391.683081 120.137622 
L 391.804683 120.280372 
L 391.924066 120.425342 
L 392.041299 120.572461 
L 392.156451 120.721661 
L 392.269591 120.872873 
L 392.38079 121.026026 
L 392.490116 121.181052 
L 392.597639 121.337882 
L 392.703427 121.496445 
L 392.807552 121.656673 
L 392.910081 121.818496 
L 393.011084 121.981845 
L 393.110631 122.14665 
L 393.20879 122.312842 
L 393.305632 122.480353 
L 393.401226 122.649111 
L 393.49564 122.819049 
L 393.588945 122.990096 
L 393.681209 123.162184 
L 393.772502 123.335243 
L 393.862894 123.509203 
L 393.952453 123.683996 
L 394.04125 123.859552 
L 394.129353 124.035801 
L 394.216832 124.212674 
L 394.303755 124.390102 
L 394.390194 124.568016 
L 394.476216 124.746346 
L 394.561891 124.925023 
L 394.647289 125.103977 
L 394.732479 125.283139 
L 394.817531 125.46244 
L 394.902513 125.64181 
" clip-path="url(#p13f940d6c9)" style="fill: none; stroke: #000000; stroke-width: 2; stroke-linecap: round"></path>
   </g>
   <g id="line2d_37">
    <path d="M 423.316583 116.295076 
L 423.407187 116.272438 
L 423.497603 116.249925 
L 423.587645 116.227661 
L 423.677125 116.205773 
L 423.765857 116.184383 
L 423.853651 116.163618 
L 423.940323 116.143601 
L 424.025683 116.124459 
L 424.109545 116.106315 
L 424.191722 116.089295 
L 424.272027 116.073524 
L 424.350271 116.059125 
L 424.426269 116.046225 
L 424.499831 116.034948 
L 424.570773 116.025418 
L 424.638905 116.017761 
L 424.704041 116.012102 
L 424.765994 116.008564 
L 424.824576 116.007274 
L 424.8796 116.008356 
L 424.930878 116.011935 
L 424.978224 116.018136 
L 425.021451 116.027083 
L 425.06037 116.038901 
L 425.094795 116.053716 
L 425.124539 116.071651 
L 425.149413 116.092833 
L 425.169232 116.117385 
L 425.183807 116.145432 
L 425.192952 116.177101 
L 425.196479 116.212514 
L 425.1942 116.251798 
L 425.18593 116.295076 
L 425.171562 116.342401 
L 425.151328 116.393534 
L 425.125538 116.448163 
L 425.094504 116.505975 
L 425.058539 116.566658 
L 425.017955 116.629901 
L 424.973064 116.695391 
L 424.924178 116.762816 
L 424.87161 116.831864 
L 424.81567 116.902222 
L 424.756672 116.97358 
L 424.694928 117.045624 
L 424.630749 117.118042 
L 424.564447 117.190523 
L 424.496336 117.262754 
L 424.426726 117.334424 
L 424.355931 117.405219 
L 424.284261 117.474829 
L 424.21203 117.54294 
L 424.139549 117.609242 
L 424.067131 117.673421 
L 423.995087 117.735165 
L 423.923729 117.794163 
L 423.853371 117.850103 
L 423.784323 117.902671 
L 423.716898 117.951557 
L 423.651408 117.996448 
L 423.588165 118.037032 
L 423.527482 118.072997 
L 423.46967 118.104031 
L 423.415041 118.129821 
L 423.363908 118.150056 
L 423.316583 118.164423 
L 423.273304 118.172693 
L 423.234021 118.174972 
L 423.198608 118.171445 
L 423.166939 118.1623 
L 423.138892 118.147725 
L 423.11434 118.127907 
L 423.093158 118.103032 
L 423.075223 118.073288 
L 423.060408 118.038863 
L 423.04859 117.999944 
L 423.039643 117.956717 
L 423.033442 117.909371 
L 423.029863 117.858093 
L 423.028781 117.803069 
L 423.030071 117.744487 
L 423.033609 117.682534 
L 423.039268 117.617398 
L 423.046925 117.549266 
L 423.056455 117.478325 
L 423.067732 117.404762 
L 423.080632 117.328764 
L 423.095031 117.25052 
L 423.110802 117.170215 
L 423.127822 117.088039 
L 423.145966 117.004176 
L 423.165108 116.918816 
L 423.185125 116.832144 
L 423.20589 116.74435 
L 423.22728 116.655618 
L 423.249168 116.566138 
L 423.271432 116.476096 
L 423.293945 116.38568 
L 423.316583 116.295076 
" clip-path="url(#p13f940d6c9)" style="fill: none; stroke: #000000; stroke-width: 2; stroke-linecap: round"></path>
   </g>
  </g>
 </g>
 <defs>
  <clipPath id="p13f940d6c9">
   <rect x="7.2" y="7.2" width="446.4" height="129.956986"></rect>
  </clipPath>
 </defs>
</svg>
